NotoSansTamil-CondensedLight.ufo
<glyph name="quotedbl.tamil" format="2">
  <advance width="313"/>
  <unicode hex="0022"/>
  <outline>
    <contour>
      <point x="78" y="542" type="line"/>
      <point x="99" y="542" type="line"/>
      <point x="103" y="800" type="line"/>
      <point x="75" y="800" type="line"/>
    </contour>
    <contour>
      <point x="213" y="542" type="line"/>
      <point x="234" y="542" type="line"/>
      <point x="238" y="800" type="line"/>
      <point x="210" y="800" type="line"/>
    </contour>
  </outline>
</glyph>
<glyph name="numbersign.tamil" format="2">
  <advance width="501"/>
  <unicode hex="0023"/>
  <outline>
    <contour>
      <point x="84" y="0" type="line"/>
      <point x="111" y="0" type="line"/>
      <point x="154" y="226" type="line"/>
      <point x="298" y="226" type="line"/>
      <point x="255" y="0" type="line"/>
      <point x="282" y="0" type="line"/>
      <point x="325" y="226" type="line"/>
      <point x="430" y="226" type="line"/>
      <point x="430" y="252" type="line"/>
      <point x="330" y="252" type="line"/>
      <point x="369" y="462" type="line"/>
      <point x="474" y="462" type="line"/>
      <point x="474" y="488" type="line"/>
      <point x="374" y="488" type="line"/>
      <point x="417" y="714" type="line"/>
      <point x="390" y="714" type="line"/>
      <point x="347" y="488" type="line"/>
      <point x="203" y="488" type="line"/>
      <point x="246" y="714" type="line"/>
      <point x="219" y="714" type="line"/>
      <point x="176" y="488" type="line"/>
      <point x="71" y="488" type="line"/>
      <point x="71" y="462" type="line"/>
      <point x="171" y="462" type="line"/>
      <point x="132" y="252" type="line"/>
      <point x="27" y="252" type="line"/>
      <point x="27" y="226" type="line"/>
      <point x="127" y="226" type="line"/>
    </contour>
    <contour>
      <point x="159" y="252" type="line"/>
      <point x="198" y="462" type="line"/>
      <point x="342" y="462" type="line"/>
      <point x="303" y="252" type="line"/>
    </contour>
  </outline>
</glyph>
<glyph name="percent.tamil" format="2">
  <advance width="590"/>
  <unicode hex="0025"/>
  <outline>
    <contour>
      <point x="166" y="0" type="line"/>
      <point x="193" y="0" type="line"/>
      <point x="424" y="714" type="line"/>
      <point x="397" y="714" type="line"/>
    </contour>
    <contour>
      <point x="150" y="276" type="curve" smooth="yes"/>
      <point x="213" y="276"/>
      <point x="248" y="348"/>
      <point x="248" y="501" type="curve" smooth="yes"/>
      <point x="248" y="654"/>
      <point x="216" y="724"/>
      <point x="149" y="724" type="curve" smooth="yes"/>
      <point x="83" y="724"/>
      <point x="51" y="654"/>
      <point x="51" y="502" type="curve" smooth="yes"/>
      <point x="51" y="348"/>
      <point x="86" y="276"/>
    </contour>
    <contour>
      <point x="150" y="304" type="curve" smooth="yes"/>
      <point x="103" y="304"/>
      <point x="78" y="365"/>
      <point x="78" y="501" type="curve" smooth="yes"/>
      <point x="78" y="637"/>
      <point x="102" y="699"/>
      <point x="149" y="699" type="curve" smooth="yes"/>
      <point x="197" y="699"/>
      <point x="221" y="637"/>
      <point x="221" y="501" type="curve" smooth="yes"/>
      <point x="221" y="365"/>
      <point x="196" y="304"/>
    </contour>
    <contour>
      <point x="441" y="-9" type="curve" smooth="yes"/>
      <point x="504" y="-9"/>
      <point x="539" y="63"/>
      <point x="539" y="216" type="curve" smooth="yes"/>
      <point x="539" y="369"/>
      <point x="507" y="439"/>
      <point x="440" y="439" type="curve" smooth="yes"/>
      <point x="374" y="439"/>
      <point x="342" y="369"/>
      <point x="342" y="217" type="curve" smooth="yes"/>
      <point x="342" y="63"/>
      <point x="377" y="-9"/>
    </contour>
    <contour>
      <point x="441" y="19" type="curve" smooth="yes"/>
      <point x="394" y="19"/>
      <point x="369" y="80"/>
      <point x="369" y="216" type="curve" smooth="yes"/>
      <point x="369" y="352"/>
      <point x="393" y="414"/>
      <point x="440" y="414" type="curve" smooth="yes"/>
      <point x="488" y="414"/>
      <point x="512" y="352"/>
      <point x="512" y="216" type="curve" smooth="yes"/>
      <point x="512" y="80"/>
      <point x="487" y="19"/>
    </contour>
  </outline>
</glyph>
<glyph name="quotesingle.tamil" format="2">
  <advance width="178"/>
  <unicode hex="0027"/>
  <outline>
    <contour>
      <point x="78" y="542" type="line"/>
      <point x="99" y="542" type="line"/>
      <point x="103" y="800" type="line"/>
      <point x="75" y="800" type="line"/>
    </contour>
  </outline>
</glyph>
<glyph name="asterisk.tamil" format="2">
  <advance width="494"/>
  <unicode hex="002A"/>
  <outline>
    <contour>
      <point x="261" y="800" type="line"/>
      <point x="233" y="800" type="line"/>
      <point x="236" y="607" type="line"/>
      <point x="54" y="670" type="line"/>
      <point x="45" y="643" type="line"/>
      <point x="230" y="588" type="line"/>
      <point x="116" y="436" type="line"/>
      <point x="139" y="420" type="line"/>
      <point x="247" y="577" type="line"/>
      <point x="356" y="419" type="line"/>
      <point x="379" y="436" type="line"/>
      <point x="264" y="588" type="line"/>
      <point x="449" y="643" type="line"/>
      <point x="441" y="670" type="line"/>
      <point x="258" y="607" type="line"/>
    </contour>
  </outline>
</glyph>
<glyph name="comma.tamil" format="2">
  <advance width="206"/>
  <unicode hex="002C"/>
  <outline>
    <contour>
      <point x="120" y="116" type="line"/>
      <point x="95" y="116" type="line"/>
      <point x="88" y="44"/>
      <point x="65" y="-60"/>
      <point x="38" y="-129" type="curve"/>
      <point x="60" y="-129" type="line"/>
      <point x="90" y="-60"/>
      <point x="115" y="25"/>
      <point x="126" y="107" type="curve"/>
    </contour>
  </outline>
</glyph>
<glyph name="hyphen.tamil" format="2">
  <advance width="304"/>
  <unicode hex="002D"/>
  <outline>
    <contour>
      <point x="38" y="290" type="line"/>
      <point x="266" y="290" type="line"/>
      <point x="266" y="316" type="line"/>
      <point x="38" y="316" type="line"/>
    </contour>
  </outline>
</glyph>
<glyph name="one.tamil" format="2">
  <advance width="399"/>
  <unicode hex="0031"/>
  <outline>
    <contour>
      <point x="248" y="0" type="line"/>
      <point x="248" y="714" type="line"/>
      <point x="225" y="714" type="line"/>
      <point x="66" y="553" type="line"/>
      <point x="85" y="535" type="line"/>
      <point x="183" y="637" type="line" smooth="yes"/>
      <point x="198" y="652"/>
      <point x="210" y="665"/>
      <point x="223" y="683" type="curve"/>
      <point x="222" y="639"/>
      <point x="222" y="611"/>
      <point x="222" y="569" type="curve" smooth="yes"/>
      <point x="222" y="0" type="line"/>
    </contour>
  </outline>
</glyph>
<glyph name="two.tamil" format="2">
  <advance width="399"/>
  <unicode hex="0032"/>
  <outline>
    <contour>
      <point x="37" y="0" type="line"/>
      <point x="347" y="0" type="line"/>
      <point x="346" y="26" type="line"/>
      <point x="72" y="26" type="line"/>
      <point x="72" y="27" type="line"/>
      <point x="210" y="239" type="line" smooth="yes"/>
      <point x="276" y="341"/>
      <point x="332" y="427"/>
      <point x="332" y="545" type="curve" smooth="yes"/>
      <point x="332" y="662"/>
      <point x="258" y="724"/>
      <point x="173" y="724" type="curve" smooth="yes"/>
      <point x="118" y="724"/>
      <point x="74" y="704"/>
      <point x="39" y="681" type="curve"/>
      <point x="54" y="659" type="line"/>
      <point x="83" y="678"/>
      <point x="118" y="698"/>
      <point x="170" y="698" type="curve" smooth="yes"/>
      <point x="241" y="698"/>
      <point x="305" y="652"/>
      <point x="305" y="543" type="curve" smooth="yes"/>
      <point x="305" y="439"/>
      <point x="256" y="359"/>
      <point x="188" y="254" type="curve" smooth="yes"/>
      <point x="37" y="21" type="line"/>
    </contour>
  </outline>
</glyph>
<glyph name="less.tamil" format="2">
  <advance width="399"/>
  <unicode hex="003C"/>
  <outline>
    <contour>
      <point x="367" y="151" type="line"/>
      <point x="367" y="180" type="line"/>
      <point x="60" y="366" type="line"/>
      <point x="367" y="526" type="line"/>
      <point x="367" y="555" type="line"/>
      <point x="32" y="378" type="line"/>
      <point x="32" y="354" type="line"/>
    </contour>
  </outline>
</glyph>
<glyph name="equal.tamil" format="2">
  <advance width="399"/>
  <unicode hex="003D"/>
  <outline>
    <contour>
      <point x="33" y="235" type="line"/>
      <point x="365" y="235" type="line"/>
      <point x="365" y="261" type="line"/>
      <point x="33" y="261" type="line"/>
    </contour>
    <contour>
      <point x="33" y="444" type="line"/>
      <point x="365" y="444" type="line"/>
      <point x="365" y="470" type="line"/>
      <point x="33" y="470" type="line"/>
    </contour>
  </outline>
</glyph>
<glyph name="greater.tamil" format="2">
  <advance width="399"/>
  <unicode hex="003E"/>
  <outline>
    <contour>
      <point x="32" y="151" type="line"/>
      <point x="367" y="354" type="line"/>
      <point x="367" y="377" type="line"/>
      <point x="32" y="555" type="line"/>
      <point x="32" y="526" type="line"/>
      <point x="339" y="365" type="line"/>
      <point x="32" y="180" type="line"/>
    </contour>
  </outline>
</glyph>
<glyph name="question.tamil" format="2">
  <advance width="299"/>
  <unicode hex="003F"/>
  <outline>
    <contour>
      <point x="135" y="724" type="curve" smooth="yes"/>
      <point x="94" y="724"/>
      <point x="58" y="710"/>
      <point x="32" y="697" type="curve"/>
      <point x="43" y="673" type="line"/>
      <point x="70" y="687"/>
      <point x="102" y="698"/>
      <point x="134" y="698" type="curve" smooth="yes"/>
      <point x="197" y="698"/>
      <point x="233" y="653"/>
      <point x="233" y="566" type="curve" smooth="yes"/>
      <point x="233" y="483"/>
      <point x="201" y="438"/>
      <point x="161" y="380" type="curve" smooth="yes"/>
      <point x="115" y="313"/>
      <point x="104" y="274"/>
      <point x="104" y="190" type="curve" smooth="yes"/>
      <point x="104" y="170" type="line"/>
      <point x="130" y="170" type="line"/>
      <point x="130" y="189" type="line" smooth="yes"/>
      <point x="130" y="253"/>
      <point x="137" y="298"/>
      <point x="185" y="367" type="curve" smooth="yes"/>
      <point x="228" y="429"/>
      <point x="260" y="478"/>
      <point x="260" y="566" type="curve" smooth="yes"/>
      <point x="260" y="671"/>
      <point x="209" y="724"/>
    </contour>
    <contour>
      <point x="117" y="-8" type="curve" smooth="yes"/>
      <point x="141" y="-8"/>
      <point x="144" y="6"/>
      <point x="144" y="23" type="curve" smooth="yes"/>
      <point x="144" y="39"/>
      <point x="141" y="54"/>
      <point x="117" y="54" type="curve" smooth="yes"/>
      <point x="97" y="54"/>
      <point x="92" y="39"/>
      <point x="92" y="23" type="curve" smooth="yes"/>
      <point x="92" y="6"/>
      <point x="97" y="-8"/>
    </contour>
  </outline>
</glyph>
<glyph name="bracketleft.tamil" format="2">
  <advance width="308"/>
  <unicode hex="005B"/>
  <outline>
    <contour>
      <point x="83" y="-244" type="line"/>
      <point x="268" y="-244" type="line"/>
      <point x="268" y="-218" type="line"/>
      <point x="109" y="-218" type="line"/>
      <point x="109" y="773" type="line"/>
      <point x="268" y="773" type="line"/>
      <point x="268" y="799" type="line"/>
      <point x="83" y="799" type="line"/>
    </contour>
  </outline>
</glyph>
<glyph name="backslash.tamil" format="2">
  <advance width="340"/>
  <unicode hex="005C"/>
  <outline>
    <contour>
      <point x="288" y="-245" type="line"/>
      <point x="315" y="-245" type="line"/>
      <point x="52" y="800" type="line"/>
      <point x="25" y="800" type="line"/>
    </contour>
  </outline>
</glyph>
<glyph name="braceleft.tamil" format="2">
  <advance width="344"/>
  <unicode hex="007B"/>
  <outline>
    <contour>
      <point x="305" y="-244" type="curve"/>
      <point x="305" y="-218" type="line"/>
      <point x="199" y="-218"/>
      <point x="167" y="-192"/>
      <point x="167" y="-105" type="curve" smooth="yes"/>
      <point x="167" y="155" type="line" smooth="yes"/>
      <point x="167" y="230"/>
      <point x="146" y="264"/>
      <point x="89" y="277" type="curve"/>
      <point x="89" y="279" type="line"/>
      <point x="147" y="290"/>
      <point x="167" y="336"/>
      <point x="167" y="404" type="curve" smooth="yes"/>
      <point x="167" y="658" type="line" smooth="yes"/>
      <point x="167" y="739"/>
      <point x="209" y="774"/>
      <point x="305" y="774" type="curve"/>
      <point x="305" y="800" type="line"/>
      <point x="197" y="800"/>
      <point x="141" y="751"/>
      <point x="141" y="664" type="curve" smooth="yes"/>
      <point x="141" y="408" type="line" smooth="yes"/>
      <point x="141" y="322"/>
      <point x="111" y="291"/>
      <point x="30" y="291" type="curve"/>
      <point x="30" y="265" type="line"/>
      <point x="111" y="265"/>
      <point x="141" y="236"/>
      <point x="141" y="151" type="curve" smooth="yes"/>
      <point x="141" y="-111" type="line" smooth="yes"/>
      <point x="141" y="-209"/>
      <point x="188" y="-244"/>
    </contour>
  </outline>
</glyph>
<glyph name="uni00B2" format="2">
  <advance width="260"/>
  <unicode hex="00B2"/>
  <outline>
    <contour>
      <point x="17" y="369" type="line"/>
      <point x="245" y="369" type="line"/>
      <point x="245" y="394" type="line"/>
      <point x="50" y="394" type="line"/>
      <point x="133" y="495" type="line" smooth="yes"/>
      <point x="213" y="593"/>
      <point x="241" y="635"/>
      <point x="241" y="698" type="curve" smooth="yes"/>
      <point x="241" y="758"/>
      <point x="200" y="807"/>
      <point x="129" y="807" type="curve" smooth="yes"/>
      <point x="87" y="807"/>
      <point x="54" y="792"/>
      <point x="24" y="771" type="curve"/>
      <point x="38" y="749" type="line"/>
      <point x="66" y="770"/>
      <point x="96" y="782"/>
      <point x="129" y="782" type="curve" smooth="yes"/>
      <point x="186" y="782"/>
      <point x="214" y="746"/>
      <point x="214" y="697" type="curve" smooth="yes"/>
      <point x="214" y="640"/>
      <point x="186" y="600"/>
      <point x="110" y="506" type="curve" smooth="yes"/>
      <point x="17" y="391" type="line"/>
    </contour>
  </outline>
</glyph>
<glyph name="uni00B3" format="2">
  <advance width="259"/>
  <unicode hex="00B3"/>
  <outline>
    <contour>
      <point x="106" y="361" type="curve" smooth="yes"/>
      <point x="187" y="361"/>
      <point x="236" y="406"/>
      <point x="236" y="486" type="curve" smooth="yes"/>
      <point x="236" y="543"/>
      <point x="204" y="579"/>
      <point x="150" y="592" type="curve"/>
      <point x="150" y="593" type="line"/>
      <point x="190" y="607"/>
      <point x="225" y="646"/>
      <point x="225" y="705" type="curve" smooth="yes"/>
      <point x="225" y="769"/>
      <point x="186" y="807"/>
      <point x="120" y="807" type="curve" smooth="yes"/>
      <point x="77" y="807"/>
      <point x="43" y="790"/>
      <point x="16" y="772" type="curve"/>
      <point x="30" y="750" type="line"/>
      <point x="57" y="770"/>
      <point x="85" y="782"/>
      <point x="121" y="782" type="curve" smooth="yes"/>
      <point x="170" y="782"/>
      <point x="198" y="756"/>
      <point x="198" y="704" type="curve" smooth="yes"/>
      <point x="198" y="645"/>
      <point x="161" y="603"/>
      <point x="103" y="603" type="curve" smooth="yes"/>
      <point x="70" y="603" type="line"/>
      <point x="70" y="578" type="line"/>
      <point x="103" y="578" type="line" smooth="yes"/>
      <point x="173" y="578"/>
      <point x="209" y="542"/>
      <point x="209" y="485" type="curve" smooth="yes"/>
      <point x="209" y="427"/>
      <point x="179" y="386"/>
      <point x="106" y="386" type="curve" smooth="yes"/>
      <point x="70" y="386"/>
      <point x="42" y="394"/>
      <point x="16" y="405" type="curve"/>
      <point x="16" y="378" type="line"/>
      <point x="39" y="369"/>
      <point x="75" y="361"/>
    </contour>
  </outline>
</glyph>
<glyph name="uni0952" format="2">
  <unicode hex="0952"/>
  <outline>
    <contour>
      <point x="-117" y="-157" type="line"/>
      <point x="-117" y="-132" type="line"/>
      <point x="-439" y="-132" type="line"/>
      <point x="-439" y="-157" type="line"/>
    </contour>
  </outline>
</glyph>
<glyph name="anusvaratamil" format="2">
  <advance width="246"/>
  <unicode hex="0B82"/>
  <outline>
    <contour>
      <point x="47" y="736" type="curve" smooth="yes"/>
      <point x="47" y="674"/>
      <point x="74" y="638"/>
      <point x="123" y="638" type="curve" smooth="yes"/>
      <point x="172" y="638"/>
      <point x="199" y="674"/>
      <point x="199" y="736" type="curve" smooth="yes"/>
      <point x="199" y="798"/>
      <point x="172" y="835"/>
      <point x="123" y="835" type="curve" smooth="yes"/>
      <point x="74" y="835"/>
      <point x="47" y="798"/>
    </contour>
    <contour>
      <point x="74" y="736" type="curve" smooth="yes"/>
      <point x="74" y="786"/>
      <point x="92" y="810"/>
      <point x="123" y="810" type="curve" smooth="yes"/>
      <point x="154" y="810"/>
      <point x="172" y="786"/>
      <point x="172" y="736" type="curve" smooth="yes"/>
      <point x="172" y="686"/>
      <point x="154" y="662"/>
      <point x="123" y="662" type="curve" smooth="yes"/>
      <point x="92" y="662"/>
      <point x="74" y="686"/>
    </contour>
  </outline>
</glyph>
<glyph name="visargatamil" format="2">
  <advance width="608"/>
  <unicode hex="0B83"/>
  <outline>
    <contour>
      <point x="154" y="-12" type="curve" smooth="yes"/>
      <point x="214" y="-12"/>
      <point x="266" y="33"/>
      <point x="266" y="162" type="curve" smooth="yes"/>
      <point x="266" y="291"/>
      <point x="214" y="336"/>
      <point x="154" y="336" type="curve" smooth="yes"/>
      <point x="94" y="336"/>
      <point x="42" y="291"/>
      <point x="42" y="162" type="curve" smooth="yes"/>
      <point x="42" y="33"/>
      <point x="94" y="-12"/>
    </contour>
    <contour>
      <point x="154" y="13" type="curve" smooth="yes"/>
      <point x="107" y="13"/>
      <point x="69" y="50"/>
      <point x="69" y="162" type="curve" smooth="yes"/>
      <point x="69" y="274"/>
      <point x="107" y="311"/>
      <point x="154" y="311" type="curve" smooth="yes"/>
      <point x="201" y="311"/>
      <point x="239" y="274"/>
      <point x="239" y="162" type="curve" smooth="yes"/>
      <point x="239" y="50"/>
      <point x="201" y="13"/>
    </contour>
    <contour>
      <point x="454" y="-12" type="curve" smooth="yes"/>
      <point x="514" y="-12"/>
      <point x="566" y="33"/>
      <point x="566" y="162" type="curve" smooth="yes"/>
      <point x="566" y="291"/>
      <point x="514" y="336"/>
      <point x="454" y="336" type="curve" smooth="yes"/>
      <point x="394" y="336"/>
      <point x="342" y="291"/>
      <point x="342" y="162" type="curve" smooth="yes"/>
      <point x="342" y="33"/>
      <point x="394" y="-12"/>
    </contour>
    <contour>
      <point x="454" y="13" type="curve" smooth="yes"/>
      <point x="407" y="13"/>
      <point x="369" y="50"/>
      <point x="369" y="162" type="curve" smooth="yes"/>
      <point x="369" y="274"/>
      <point x="407" y="311"/>
      <point x="454" y="311" type="curve" smooth="yes"/>
      <point x="501" y="311"/>
      <point x="539" y="274"/>
      <point x="539" y="162" type="curve" smooth="yes"/>
      <point x="539" y="50"/>
      <point x="502" y="13"/>
    </contour>
    <contour>
      <point x="305" y="476" type="curve" smooth="yes"/>
      <point x="365" y="476"/>
      <point x="417" y="521"/>
      <point x="417" y="650" type="curve" smooth="yes"/>
      <point x="417" y="779"/>
      <point x="365" y="824"/>
      <point x="305" y="824" type="curve" smooth="yes"/>
      <point x="245" y="824"/>
      <point x="193" y="779"/>
      <point x="193" y="650" type="curve" smooth="yes"/>
      <point x="193" y="521"/>
      <point x="245" y="476"/>
    </contour>
    <contour>
      <point x="305" y="501" type="curve" smooth="yes"/>
      <point x="258" y="501"/>
      <point x="220" y="538"/>
      <point x="220" y="650" type="curve" smooth="yes"/>
      <point x="220" y="762"/>
      <point x="258" y="799"/>
      <point x="305" y="799" type="curve" smooth="yes"/>
      <point x="352" y="799"/>
      <point x="390" y="762"/>
      <point x="390" y="650" type="curve" smooth="yes"/>
      <point x="390" y="538"/>
      <point x="352" y="501"/>
    </contour>
  </outline>
</glyph>
<glyph name="atamil" format="2">
  <advance width="775"/>
  <unicode hex="0B85"/>
  <outline>
    <contour>
      <point x="228" y="-96" type="curve" smooth="yes"/>
      <point x="235" y="-96" type="line" smooth="yes"/>
      <point x="392" y="-96"/>
      <point x="506" y="-8"/>
      <point x="540" y="151" type="curve"/>
      <point x="543" y="163" type="line"/>
      <point x="549" y="193"/>
      <point x="553" y="225"/>
      <point x="553" y="259" type="curve" smooth="yes"/>
      <point x="553" y="455"/>
      <point x="477" y="558"/>
      <point x="356" y="558" type="curve" smooth="yes"/>
      <point x="277" y="558"/>
      <point x="212" y="511"/>
      <point x="212" y="405" type="curve" smooth="yes"/>
      <point x="212" y="314"/>
      <point x="249" y="265"/>
      <point x="315" y="265" type="curve" smooth="yes"/>
      <point x="373" y="265"/>
      <point x="415" y="304"/>
      <point x="415" y="403" type="curve" smooth="yes"/>
      <point x="415" y="459"/>
      <point x="397" y="510"/>
      <point x="365" y="544" type="curve"/>
      <point x="336" y="542" type="line"/>
      <point x="367" y="512"/>
      <point x="389" y="458"/>
      <point x="389" y="402" type="curve" smooth="yes"/>
      <point x="389" y="329"/>
      <point x="367" y="290"/>
      <point x="314" y="290" type="curve" smooth="yes"/>
      <point x="259" y="290"/>
      <point x="239" y="338"/>
      <point x="239" y="405" type="curve" smooth="yes"/>
      <point x="239" y="500"/>
      <point x="295" y="533"/>
      <point x="346" y="533" type="curve" smooth="yes"/>
      <point x="356" y="533"/>
      <point x="363" y="533"/>
      <point x="370" y="533" type="curve"/>
      <point x="482" y="522"/>
      <point x="526" y="406"/>
      <point x="526" y="260" type="curve" smooth="yes"/>
      <point x="526" y="224"/>
      <point x="522" y="192"/>
      <point x="516" y="163" type="curve"/>
      <point x="513" y="150" type="line"/>
      <point x="478" y="0"/>
      <point x="371" y="-71"/>
      <point x="234" y="-71" type="curve" smooth="yes"/>
      <point x="228" y="-71" type="line" smooth="yes"/>
      <point x="114" y="-71"/>
      <point x="52" y="-14"/>
      <point x="52" y="66" type="curve" smooth="yes"/>
      <point x="52" y="93"/>
      <point x="60" y="114"/>
      <point x="77" y="127" type="curve" smooth="yes"/>
      <point x="92" y="139"/>
      <point x="113" y="144"/>
      <point x="163" y="144" type="curve" smooth="yes"/>
      <point x="691" y="144" type="line"/>
      <point x="686" y="169" type="line"/>
      <point x="160" y="169" type="line" smooth="yes"/>
      <point x="103" y="169"/>
      <point x="75" y="160"/>
      <point x="54" y="141" type="curve" smooth="yes"/>
      <point x="33" y="122"/>
      <point x="25" y="95"/>
      <point x="25" y="68" type="curve" smooth="yes"/>
      <point x="25" y="-30"/>
      <point x="102" y="-96"/>
    </contour>
    <contour>
      <point x="676" y="-154" type="line"/>
      <point x="702" y="-154" type="line"/>
      <point x="702" y="546" type="line"/>
      <point x="676" y="546" type="line"/>
    </contour>
  </outline>
</glyph>
<glyph name="aatamil" format="2">
  <advance width="902"/>
  <unicode hex="0B86"/>
  <outline>
    <contour>
      <point x="228" y="-96" type="curve" smooth="yes"/>
      <point x="235" y="-96" type="line" smooth="yes"/>
      <point x="392" y="-96"/>
      <point x="506" y="-8"/>
      <point x="540" y="151" type="curve" smooth="yes"/>
      <point x="543" y="163" type="line" smooth="yes"/>
      <point x="549" y="193"/>
      <point x="553" y="225"/>
      <point x="553" y="259" type="curve" smooth="yes"/>
      <point x="553" y="455"/>
      <point x="477" y="558"/>
      <point x="356" y="558" type="curve" smooth="yes"/>
      <point x="277" y="558"/>
      <point x="212" y="511"/>
      <point x="212" y="405" type="curve" smooth="yes"/>
      <point x="212" y="314"/>
      <point x="249" y="265"/>
      <point x="315" y="265" type="curve" smooth="yes"/>
      <point x="373" y="265"/>
      <point x="415" y="304"/>
      <point x="415" y="403" type="curve" smooth="yes"/>
      <point x="415" y="459"/>
      <point x="397" y="510"/>
      <point x="365" y="544" type="curve"/>
      <point x="336" y="542" type="line"/>
      <point x="367" y="512"/>
      <point x="389" y="458"/>
      <point x="389" y="402" type="curve" smooth="yes"/>
      <point x="389" y="329"/>
      <point x="367" y="290"/>
      <point x="314" y="290" type="curve" smooth="yes"/>
      <point x="259" y="290"/>
      <point x="239" y="338"/>
      <point x="239" y="405" type="curve" smooth="yes"/>
      <point x="239" y="500"/>
      <point x="295" y="533"/>
      <point x="346" y="533" type="curve" smooth="yes"/>
      <point x="356" y="533"/>
      <point x="363" y="533"/>
      <point x="370" y="533" type="curve"/>
      <point x="482" y="522"/>
      <point x="526" y="406"/>
      <point x="526" y="260" type="curve" smooth="yes"/>
      <point x="526" y="224"/>
      <point x="522" y="192"/>
      <point x="516" y="163" type="curve" smooth="yes"/>
      <point x="513" y="150" type="line" smooth="yes"/>
      <point x="478" y="0"/>
      <point x="371" y="-71"/>
      <point x="234" y="-71" type="curve" smooth="yes"/>
      <point x="228" y="-71" type="line" smooth="yes"/>
      <point x="114" y="-71"/>
      <point x="52" y="-14"/>
      <point x="52" y="66" type="curve" smooth="yes"/>
      <point x="52" y="93"/>
      <point x="60" y="114"/>
      <point x="77" y="127" type="curve" smooth="yes"/>
      <point x="92" y="139"/>
      <point x="113" y="144"/>
      <point x="163" y="144" type="curve" smooth="yes"/>
      <point x="691" y="144" type="line"/>
      <point x="686" y="169" type="line"/>
      <point x="160" y="169" type="line" smooth="yes"/>
      <point x="103" y="169"/>
      <point x="75" y="160"/>
      <point x="54" y="141" type="curve" smooth="yes"/>
      <point x="33" y="122"/>
      <point x="25" y="95"/>
      <point x="25" y="68" type="curve" smooth="yes"/>
      <point x="25" y="-30"/>
      <point x="102" y="-96"/>
    </contour>
    <contour>
      <point x="616" y="-321" type="curve" smooth="yes"/>
      <point x="620" y="-321" type="line" smooth="yes"/>
      <point x="771" y="-321"/>
      <point x="899" y="-228"/>
      <point x="899" y="-73" type="curve" smooth="yes"/>
      <point x="899" y="26"/>
      <point x="850" y="82"/>
      <point x="777" y="82" type="curve" smooth="yes"/>
      <point x="739" y="82"/>
      <point x="708" y="66"/>
      <point x="684" y="47" type="curve"/>
      <point x="690" y="25" type="line"/>
      <point x="717" y="47"/>
      <point x="750" y="57"/>
      <point x="778" y="57" type="curve" smooth="yes"/>
      <point x="834" y="57"/>
      <point x="872" y="12"/>
      <point x="872" y="-73" type="curve" smooth="yes"/>
      <point x="872" y="-214"/>
      <point x="756" y="-296"/>
      <point x="621" y="-296" type="curve" smooth="yes"/>
      <point x="618" y="-296" type="line" smooth="yes"/>
      <point x="501" y="-296"/>
      <point x="460" y="-241"/>
      <point x="460" y="-173" type="curve" smooth="yes"/>
      <point x="460" y="-119"/>
      <point x="497" y="-83"/>
      <point x="548" y="-83" type="curve" smooth="yes"/>
      <point x="568" y="-83"/>
      <point x="587" y="-85"/>
      <point x="602" y="-91" type="curve"/>
      <point x="609" y="-66" type="line"/>
      <point x="589" y="-60"/>
      <point x="572" y="-58"/>
      <point x="547" y="-58" type="curve" smooth="yes"/>
      <point x="490" y="-58"/>
      <point x="433" y="-98"/>
      <point x="433" y="-173" type="curve" smooth="yes"/>
      <point x="433" y="-262"/>
      <point x="496" y="-321"/>
    </contour>
    <contour>
      <point x="676" y="-124" type="line"/>
      <point x="702" y="-124" type="line"/>
      <point x="702" y="546" type="line"/>
      <point x="676" y="546" type="line"/>
    </contour>
  </outline>
</glyph>
<glyph name="itamil" format="2">
  <advance width="785"/>
  <unicode hex="0B87"/>
  <outline>
    <contour>
      <point x="210" y="-321" type="curve" smooth="yes"/>
      <point x="257" y="-321"/>
      <point x="303" y="-305"/>
      <point x="343" y="-280" type="curve"/>
      <point x="442" y="-217"/>
      <point x="502" y="-89"/>
      <point x="530" y="54" type="curve"/>
      <point x="544" y="116"/>
      <point x="548" y="180"/>
      <point x="548" y="243" type="curve" smooth="yes"/>
      <point x="548" y="460"/>
      <point x="469" y="558"/>
      <point x="354" y="558" type="curve" smooth="yes"/>
      <point x="272" y="558"/>
      <point x="207" y="511"/>
      <point x="207" y="405" type="curve" smooth="yes"/>
      <point x="207" y="311"/>
      <point x="243" y="263"/>
      <point x="310" y="263" type="curve" smooth="yes"/>
      <point x="368" y="263"/>
      <point x="410" y="302"/>
      <point x="410" y="403" type="curve" smooth="yes"/>
      <point x="410" y="459"/>
      <point x="392" y="510"/>
      <point x="360" y="544" type="curve"/>
      <point x="331" y="542" type="line"/>
      <point x="362" y="512"/>
      <point x="384" y="458"/>
      <point x="384" y="402" type="curve" smooth="yes"/>
      <point x="384" y="327"/>
      <point x="362" y="288"/>
      <point x="309" y="288" type="curve" smooth="yes"/>
      <point x="254" y="288"/>
      <point x="234" y="336"/>
      <point x="234" y="405" type="curve" smooth="yes"/>
      <point x="234" y="500"/>
      <point x="290" y="533"/>
      <point x="343" y="533" type="curve" smooth="yes"/>
      <point x="351" y="533"/>
      <point x="355" y="533"/>
      <point x="359" y="533" type="curve"/>
      <point x="370" y="533" type="line"/>
      <point x="452" y="521"/>
      <point x="521" y="451"/>
      <point x="521" y="240" type="curve" smooth="yes"/>
      <point x="521" y="184"/>
      <point x="517" y="125"/>
      <point x="506" y="67" type="curve"/>
      <point x="480" y="-74"/>
      <point x="419" y="-208"/>
      <point x="321" y="-266" type="curve"/>
      <point x="287" y="-286"/>
      <point x="249" y="-296"/>
      <point x="208" y="-296" type="curve" smooth="yes"/>
      <point x="113" y="-296"/>
      <point x="57" y="-245"/>
      <point x="57" y="-129" type="curve" smooth="yes"/>
      <point x="57" y="-61"/>
      <point x="82" y="-6"/>
      <point x="123" y="35" type="curve"/>
      <point x="172" y="82"/>
      <point x="245" y="106"/>
      <point x="325" y="106" type="curve" smooth="yes"/>
      <point x="400" y="106"/>
      <point x="466" y="85"/>
      <point x="515" y="46" type="curve"/>
      <point x="567" y="5"/>
      <point x="598" y="-58"/>
      <point x="598" y="-138" type="curve" smooth="yes"/>
      <point x="598" y="-243"/>
      <point x="544" y="-296"/>
      <point x="458" y="-296" type="curve" smooth="yes"/>
      <point x="415" y="-296"/>
      <point x="375" y="-285"/>
      <point x="340" y="-265" type="curve"/>
      <point x="243" y="-208"/>
      <point x="173" y="-84"/>
      <point x="133" y="58" type="curve"/>
      <point x="101" y="162"/>
      <point x="86" y="269"/>
      <point x="86" y="379" type="curve" smooth="yes"/>
      <point x="86" y="650"/>
      <point x="207" y="814"/>
      <point x="396" y="814" type="curve" smooth="yes"/>
      <point x="461" y="814"/>
      <point x="511" y="798"/>
      <point x="551" y="770" type="curve" smooth="yes"/>
      <point x="668" y="687"/>
      <point x="687" y="504"/>
      <point x="687" y="312" type="curve" smooth="yes"/>
      <point x="687" y="0" type="line"/>
      <point x="713" y="0" type="line"/>
      <point x="713" y="326" type="line" smooth="yes"/>
      <point x="713" y="549"/>
      <point x="680" y="714"/>
      <point x="563" y="793" type="curve" smooth="yes"/>
      <point x="520" y="822"/>
      <point x="465" y="839"/>
      <point x="397" y="839" type="curve" smooth="yes"/>
      <point x="188" y="839"/>
      <point x="59" y="662"/>
      <point x="59" y="376" type="curve" smooth="yes"/>
      <point x="59" y="262"/>
      <point x="77" y="144"/>
      <point x="112" y="40" type="curve"/>
      <point x="152" y="-98"/>
      <point x="221" y="-221"/>
      <point x="320" y="-281" type="curve"/>
      <point x="362" y="-307"/>
      <point x="406" y="-321"/>
      <point x="458" y="-321" type="curve" smooth="yes"/>
      <point x="562" y="-321"/>
      <point x="625" y="-253"/>
      <point x="625" y="-138" type="curve" smooth="yes"/>
      <point x="625" y="-42"/>
      <point x="584" y="30"/>
      <point x="520" y="74" type="curve"/>
      <point x="465" y="114"/>
      <point x="397" y="131"/>
      <point x="325" y="131" type="curve" smooth="yes"/>
      <point x="244" y="131"/>
      <point x="168" y="107"/>
      <point x="115" y="60" type="curve"/>
      <point x="63" y="15"/>
      <point x="30" y="-50"/>
      <point x="30" y="-129" type="curve" smooth="yes"/>
      <point x="30" y="-257"/>
      <point x="96" y="-321"/>
    </contour>
  </outline>
</glyph>
<glyph name="iitamil" format="2">
  <advance width="460"/>
  <unicode hex="0B88"/>
  <outline>
    <contour>
      <point x="73" y="0" type="line"/>
      <point x="99" y="0" type="line"/>
      <point x="99" y="521" type="line"/>
      <point x="270" y="521" type="line"/>
      <point x="270" y="0" type="line"/>
      <point x="296" y="0" type="line"/>
      <point x="296" y="521" type="line"/>
      <point x="438" y="521" type="line"/>
      <point x="438" y="546" type="line"/>
      <point x="73" y="546" type="line"/>
    </contour>
    <contour>
      <point x="184" y="243" type="curve" smooth="yes"/>
      <point x="203" y="243"/>
      <point x="217" y="256"/>
      <point x="217" y="281" type="curve" smooth="yes"/>
      <point x="217" y="306"/>
      <point x="203" y="319"/>
      <point x="184" y="319" type="curve" smooth="yes"/>
      <point x="165" y="319"/>
      <point x="151" y="306"/>
      <point x="151" y="281" type="curve" smooth="yes"/>
      <point x="151" y="256"/>
      <point x="165" y="243"/>
    </contour>
    <contour>
      <point x="381" y="243" type="curve" smooth="yes"/>
      <point x="400" y="243"/>
      <point x="414" y="256"/>
      <point x="414" y="281" type="curve" smooth="yes"/>
      <point x="414" y="306"/>
      <point x="400" y="319"/>
      <point x="381" y="319" type="curve" smooth="yes"/>
      <point x="362" y="319"/>
      <point x="348" y="306"/>
      <point x="348" y="281" type="curve" smooth="yes"/>
      <point x="348" y="256"/>
      <point x="363" y="243"/>
    </contour>
  </outline>
</glyph>
<glyph name="utamil" format="2">
  <advance width="734"/>
  <unicode hex="0B89"/>
  <outline>
    <contour>
      <point x="196" y="558" type="curve" smooth="yes"/>
      <point x="99" y="558"/>
      <point x="38" y="507"/>
      <point x="38" y="403" type="curve" smooth="yes"/>
      <point x="38" y="312"/>
      <point x="75" y="263"/>
      <point x="141" y="263" type="curve" smooth="yes"/>
      <point x="199" y="263"/>
      <point x="241" y="302"/>
      <point x="241" y="401" type="curve" smooth="yes"/>
      <point x="241" y="459"/>
      <point x="223" y="510"/>
      <point x="191" y="544" type="curve"/>
      <point x="162" y="542" type="line"/>
      <point x="193" y="512"/>
      <point x="215" y="458"/>
      <point x="215" y="400" type="curve" smooth="yes"/>
      <point x="215" y="327"/>
      <point x="193" y="288"/>
      <point x="140" y="288" type="curve" smooth="yes"/>
      <point x="85" y="288"/>
      <point x="65" y="335"/>
      <point x="65" y="403" type="curve" smooth="yes"/>
      <point x="65" y="498"/>
      <point x="116" y="533"/>
      <point x="189" y="533" type="curve" smooth="yes"/>
      <point x="191" y="533"/>
      <point x="193" y="533"/>
      <point x="195" y="533" type="curve"/>
      <point x="200" y="533" type="line"/>
      <point x="285" y="533"/>
      <point x="369" y="478"/>
      <point x="369" y="349" type="curve" smooth="yes"/>
      <point x="369" y="245"/>
      <point x="331" y="192"/>
      <point x="212" y="173" type="curve" smooth="yes"/>
      <point x="149" y="163" type="line" smooth="yes"/>
      <point x="89" y="154"/>
      <point x="42" y="128"/>
      <point x="42" y="74" type="curve" smooth="yes"/>
      <point x="42" y="31"/>
      <point x="67" y="0"/>
      <point x="139" y="0" type="curve" smooth="yes"/>
      <point x="718" y="0" type="line"/>
      <point x="718" y="25" type="line"/>
      <point x="142" y="25" type="line" smooth="yes"/>
      <point x="82" y="25"/>
      <point x="69" y="44"/>
      <point x="69" y="74" type="curve" smooth="yes"/>
      <point x="69" y="107"/>
      <point x="93" y="129"/>
      <point x="150" y="138" type="curve" smooth="yes"/>
      <point x="213" y="148" type="line" smooth="yes"/>
      <point x="316" y="164"/>
      <point x="396" y="204"/>
      <point x="396" y="349" type="curve" smooth="yes"/>
      <point x="396" y="468"/>
      <point x="325" y="558"/>
    </contour>
  </outline>
</glyph>
<glyph name="uutamil" format="2">
  <advance width="1035"/>
  <unicode hex="0B8A"/>
  <outline>
    <contour>
      <point x="196" y="558" type="curve" smooth="yes"/>
      <point x="99" y="558"/>
      <point x="38" y="507"/>
      <point x="38" y="403" type="curve" smooth="yes"/>
      <point x="38" y="312"/>
      <point x="75" y="263"/>
      <point x="141" y="263" type="curve" smooth="yes"/>
      <point x="199" y="263"/>
      <point x="241" y="302"/>
      <point x="241" y="401" type="curve" smooth="yes"/>
      <point x="241" y="459"/>
      <point x="223" y="510"/>
      <point x="191" y="544" type="curve"/>
      <point x="162" y="542" type="line"/>
      <point x="193" y="512"/>
      <point x="215" y="458"/>
      <point x="215" y="400" type="curve" smooth="yes"/>
      <point x="215" y="327"/>
      <point x="193" y="288"/>
      <point x="140" y="288" type="curve" smooth="yes"/>
      <point x="85" y="288"/>
      <point x="65" y="335"/>
      <point x="65" y="403" type="curve" smooth="yes"/>
      <point x="65" y="498"/>
      <point x="116" y="533"/>
      <point x="189" y="533" type="curve" smooth="yes"/>
      <point x="191" y="533"/>
      <point x="193" y="533"/>
      <point x="195" y="533" type="curve" smooth="yes"/>
      <point x="200" y="533" type="line" smooth="yes"/>
      <point x="285" y="533"/>
      <point x="369" y="478"/>
      <point x="369" y="349" type="curve" smooth="yes"/>
      <point x="369" y="245"/>
      <point x="331" y="192"/>
      <point x="212" y="173" type="curve" smooth="yes"/>
      <point x="149" y="163" type="line" smooth="yes"/>
      <point x="89" y="154"/>
      <point x="42" y="128"/>
      <point x="42" y="74" type="curve" smooth="yes"/>
      <point x="42" y="31"/>
      <point x="67" y="0"/>
      <point x="139" y="0" type="curve" smooth="yes"/>
      <point x="1001" y="0" type="line"/>
      <point x="1001" y="25" type="line"/>
      <point x="142" y="25" type="line" smooth="yes"/>
      <point x="82" y="25"/>
      <point x="69" y="44"/>
      <point x="69" y="74" type="curve" smooth="yes"/>
      <point x="69" y="107"/>
      <point x="93" y="129"/>
      <point x="150" y="138" type="curve" smooth="yes"/>
      <point x="213" y="148" type="line" smooth="yes"/>
      <point x="316" y="164"/>
      <point x="396" y="204"/>
      <point x="396" y="349" type="curve" smooth="yes"/>
      <point x="396" y="468"/>
      <point x="325" y="558"/>
    </contour>
    <contour>
      <point x="577" y="124" type="curve" smooth="yes"/>
      <point x="625" y="124"/>
      <point x="665" y="157"/>
      <point x="665" y="251" type="curve" smooth="yes"/>
      <point x="665" y="330"/>
      <point x="630" y="372"/>
      <point x="577" y="372" type="curve" smooth="yes"/>
      <point x="539" y="372"/>
      <point x="508" y="346"/>
      <point x="482" y="313" type="curve"/>
      <point x="490" y="292" type="line"/>
      <point x="516" y="328"/>
      <point x="548" y="347"/>
      <point x="575" y="347" type="curve" smooth="yes"/>
      <point x="612" y="347"/>
      <point x="638" y="322"/>
      <point x="638" y="248" type="curve" smooth="yes"/>
      <point x="638" y="168"/>
      <point x="608" y="149"/>
      <point x="577" y="149" type="curve" smooth="yes"/>
      <point x="538" y="149"/>
      <point x="503" y="172"/>
      <point x="503" y="312" type="curve" smooth="yes"/>
      <point x="503" y="320" type="line"/>
      <point x="503" y="430"/>
      <point x="551" y="533"/>
      <point x="645" y="533" type="curve" smooth="yes"/>
      <point x="694" y="533"/>
      <point x="727" y="506"/>
      <point x="746" y="483" type="curve"/>
      <point x="751" y="513" type="line"/>
      <point x="721" y="541"/>
      <point x="687" y="558"/>
      <point x="645" y="558" type="curve" smooth="yes"/>
      <point x="546" y="558"/>
      <point x="477" y="465"/>
      <point x="477" y="315" type="curve" smooth="yes"/>
      <point x="477" y="156"/>
      <point x="523" y="124"/>
    </contour>
    <contour>
      <point x="737" y="134" type="line"/>
      <point x="763" y="134" type="line"/>
      <point x="763" y="521" type="line"/>
      <point x="881" y="521" type="line"/>
      <point x="881" y="134" type="line"/>
      <point x="907" y="134" type="line"/>
      <point x="907" y="521" type="line"/>
      <point x="1001" y="521" type="line"/>
      <point x="1001" y="546" type="line"/>
      <point x="739" y="546" type="line"/>
      <point x="739" y="516" type="line"/>
      <point x="737" y="506" type="line"/>
    </contour>
  </outline>
</glyph>
<glyph name="etamil" format="2">
  <advance width="551"/>
  <unicode hex="0B8E"/>
  <outline>
    <contour>
      <point x="173" y="-12" type="curve" smooth="yes"/>
      <point x="232" y="-12"/>
      <point x="282" y="22"/>
      <point x="282" y="154" type="curve" smooth="yes"/>
      <point x="282" y="259"/>
      <point x="235" y="312"/>
      <point x="170" y="312" type="curve" smooth="yes"/>
      <point x="126" y="312"/>
      <point x="88" y="285"/>
      <point x="58" y="247" type="curve"/>
      <point x="62" y="220" type="line"/>
      <point x="91" y="259"/>
      <point x="128" y="287"/>
      <point x="168" y="287" type="curve" smooth="yes"/>
      <point x="226" y="287"/>
      <point x="255" y="236"/>
      <point x="255" y="153" type="curve" smooth="yes"/>
      <point x="255" y="42"/>
      <point x="221" y="13"/>
      <point x="175" y="13" type="curve" smooth="yes"/>
      <point x="118" y="13"/>
      <point x="77" y="61"/>
      <point x="77" y="233" type="curve" smooth="yes"/>
      <point x="77" y="335"/>
      <point x="100" y="414"/>
      <point x="155" y="463" type="curve" smooth="yes"/>
      <point x="197" y="501"/>
      <point x="256" y="521"/>
      <point x="343" y="521" type="curve" smooth="yes"/>
      <point x="371" y="521" type="line"/>
      <point x="372" y="546" type="line"/>
      <point x="357" y="546" type="line" smooth="yes"/>
      <point x="246" y="546"/>
      <point x="179" y="522"/>
      <point x="133" y="477" type="curve" smooth="yes"/>
      <point x="77" y="423"/>
      <point x="51" y="339"/>
      <point x="51" y="234" type="curve" smooth="yes"/>
      <point x="51" y="40"/>
      <point x="106" y="-12"/>
    </contour>
    <contour>
      <point x="372" y="0" type="line"/>
      <point x="398" y="0" type="line"/>
      <point x="398" y="521" type="line"/>
      <point x="535" y="521" type="line"/>
      <point x="535" y="546" type="line"/>
      <point x="368" y="546" type="line"/>
      <point x="367" y="521" type="line"/>
      <point x="372" y="521" type="line"/>
    </contour>
  </outline>
</glyph>
<glyph name="aitamil" format="2">
  <advance width="717"/>
  <unicode hex="0B90"/>
  <outline>
    <contour>
      <point x="225" y="-321" type="curve" smooth="yes"/>
      <point x="319" y="-321"/>
      <point x="376" y="-273"/>
      <point x="393" y="-163" type="curve"/>
      <point x="385" y="-163" type="line"/>
      <point x="394" y="-247"/>
      <point x="431" y="-321"/>
      <point x="524" y="-321" type="curve" smooth="yes"/>
      <point x="609" y="-321"/>
      <point x="665" y="-265"/>
      <point x="665" y="-133" type="curve" smooth="yes"/>
      <point x="665" y="-60"/>
      <point x="650" y="-5"/>
      <point x="632" y="43" type="curve"/>
      <point x="607" y="34" type="line"/>
      <point x="628" y="-18"/>
      <point x="638" y="-70"/>
      <point x="638" y="-133" type="curve" smooth="yes"/>
      <point x="638" y="-256"/>
      <point x="591" y="-296"/>
      <point x="524" y="-296" type="curve" smooth="yes"/>
      <point x="472" y="-296"/>
      <point x="442" y="-268"/>
      <point x="425" y="-233" type="curve" smooth="yes"/>
      <point x="405" y="-191"/>
      <point x="402" y="-144"/>
      <point x="402" y="-98" type="curve" smooth="yes"/>
      <point x="402" y="-7" type="line"/>
      <point x="376" y="-7" type="line"/>
      <point x="376" y="-100" type="line" smooth="yes"/>
      <point x="376" y="-171"/>
      <point x="366" y="-208"/>
      <point x="343" y="-241" type="curve" smooth="yes"/>
      <point x="318" y="-276"/>
      <point x="282" y="-296"/>
      <point x="226" y="-296" type="curve" smooth="yes"/>
      <point x="137" y="-296"/>
      <point x="77" y="-242"/>
      <point x="77" y="-118" type="curve" smooth="yes"/>
      <point x="77" y="-46"/>
      <point x="95" y="3"/>
      <point x="129" y="34" type="curve" smooth="yes"/>
      <point x="169" y="72"/>
      <point x="225" y="85"/>
      <point x="335" y="85" type="curve" smooth="yes"/>
      <point x="377" y="85" type="line" smooth="yes"/>
      <point x="474" y="85"/>
      <point x="540" y="95"/>
      <point x="587" y="129" type="curve" smooth="yes"/>
      <point x="639" y="166"/>
      <point x="666" y="232"/>
      <point x="666" y="342" type="curve" smooth="yes"/>
      <point x="666" y="494"/>
      <point x="594" y="558"/>
      <point x="519" y="558" type="curve" smooth="yes"/>
      <point x="456" y="558"/>
      <point x="397" y="522"/>
      <point x="383" y="401" type="curve"/>
      <point x="394" y="401" type="line"/>
      <point x="382" y="502"/>
      <point x="320" y="558"/>
      <point x="233" y="558" type="curve" smooth="yes"/>
      <point x="132" y="558"/>
      <point x="49" y="485"/>
      <point x="49" y="341" type="curve" smooth="yes"/>
      <point x="49" y="248"/>
      <point x="90" y="196"/>
      <point x="156" y="196" type="curve" smooth="yes"/>
      <point x="217" y="196"/>
      <point x="262" y="241"/>
      <point x="262" y="328" type="curve" smooth="yes"/>
      <point x="262" y="423"/>
      <point x="195" y="480"/>
      <point x="122" y="496" type="curve"/>
      <point x="105" y="475" type="line"/>
      <point x="175" y="463"/>
      <point x="235" y="412"/>
      <point x="235" y="328" type="curve" smooth="yes"/>
      <point x="235" y="253"/>
      <point x="201" y="221"/>
      <point x="158" y="221" type="curve" smooth="yes"/>
      <point x="104" y="221"/>
      <point x="76" y="261"/>
      <point x="76" y="344" type="curve" smooth="yes"/>
      <point x="76" y="404"/>
      <point x="89" y="450"/>
      <point x="119" y="484" type="curve"/>
      <point x="124" y="490" type="line"/>
      <point x="149" y="519"/>
      <point x="192" y="533"/>
      <point x="233" y="533" type="curve" smooth="yes"/>
      <point x="312" y="533"/>
      <point x="376" y="479"/>
      <point x="376" y="357" type="curve" smooth="yes"/>
      <point x="376" y="202" type="line"/>
      <point x="402" y="202" type="line"/>
      <point x="402" y="353" type="line" smooth="yes"/>
      <point x="402" y="415"/>
      <point x="413" y="474"/>
      <point x="449" y="508" type="curve" smooth="yes"/>
      <point x="466" y="523"/>
      <point x="485" y="533"/>
      <point x="518" y="533" type="curve" smooth="yes"/>
      <point x="581" y="533"/>
      <point x="639" y="479"/>
      <point x="639" y="342" type="curve" smooth="yes"/>
      <point x="639" y="241"/>
      <point x="617" y="182"/>
      <point x="571" y="149" type="curve" smooth="yes"/>
      <point x="529" y="119"/>
      <point x="470" y="110"/>
      <point x="379" y="110" type="curve" smooth="yes"/>
      <point x="333" y="110" type="line" smooth="yes"/>
      <point x="227" y="110"/>
      <point x="161" y="96"/>
      <point x="112" y="53" type="curve" smooth="yes"/>
      <point x="72" y="18"/>
      <point x="50" y="-36"/>
      <point x="50" y="-118" type="curve" smooth="yes"/>
      <point x="50" y="-241"/>
      <point x="109" y="-321"/>
    </contour>
  </outline>
</glyph>
<glyph name="otamil" format="2">
  <advance width="709"/>
  <unicode hex="0B92"/>
  <outline>
    <contour>
      <point x="557" y="86" type="curve" smooth="yes"/>
      <point x="624" y="86"/>
      <point x="662" y="143"/>
      <point x="662" y="246" type="curve" smooth="yes"/>
      <point x="662" y="354"/>
      <point x="623" y="441"/>
      <point x="554" y="495" type="curve" smooth="yes"/>
      <point x="503" y="535"/>
      <point x="435" y="558"/>
      <point x="355" y="558" type="curve" smooth="yes"/>
      <point x="267" y="558"/>
      <point x="190" y="530"/>
      <point x="135" y="480" type="curve" smooth="yes"/>
      <point x="80" y="430"/>
      <point x="47" y="360"/>
      <point x="47" y="267" type="curve" smooth="yes"/>
      <point x="47" y="119"/>
      <point x="99" y="73"/>
      <point x="163" y="73" type="curve" smooth="yes"/>
      <point x="222" y="73"/>
      <point x="267" y="111"/>
      <point x="267" y="229" type="curve" smooth="yes"/>
      <point x="267" y="329"/>
      <point x="221" y="378"/>
      <point x="158" y="378" type="curve" smooth="yes"/>
      <point x="125" y="378"/>
      <point x="90" y="357"/>
      <point x="60" y="324" type="curve"/>
      <point x="64" y="300" type="line"/>
      <point x="93" y="333"/>
      <point x="124" y="353"/>
      <point x="157" y="353" type="curve" smooth="yes"/>
      <point x="203" y="353"/>
      <point x="240" y="321"/>
      <point x="240" y="228" type="curve" smooth="yes"/>
      <point x="240" y="125"/>
      <point x="207" y="98"/>
      <point x="163" y="98" type="curve" smooth="yes"/>
      <point x="105" y="98"/>
      <point x="74" y="150"/>
      <point x="74" y="268" type="curve" smooth="yes"/>
      <point x="74" y="291"/>
      <point x="76" y="313"/>
      <point x="81" y="333" type="curve"/>
      <point x="82" y="341" type="line"/>
      <point x="115" y="467"/>
      <point x="224" y="533"/>
      <point x="353" y="533" type="curve" smooth="yes"/>
      <point x="524" y="533"/>
      <point x="636" y="424"/>
      <point x="636" y="246" type="curve" smooth="yes"/>
      <point x="636" y="154"/>
      <point x="606" y="111"/>
      <point x="557" y="111" type="curve" smooth="yes"/>
      <point x="499" y="111"/>
      <point x="485" y="156"/>
      <point x="485" y="209" type="curve" smooth="yes"/>
      <point x="485" y="257"/>
      <point x="495" y="288"/>
      <point x="513" y="328" type="curve"/>
      <point x="486" y="345" type="line"/>
      <point x="407" y="316"/>
      <point x="336" y="252"/>
      <point x="336" y="134" type="curve" smooth="yes"/>
      <point x="336" y="11"/>
      <point x="415" y="-58"/>
      <point x="529" y="-77" type="curve"/>
      <point x="547" y="-80"/>
      <point x="568" y="-83"/>
      <point x="598" y="-83" type="curve" smooth="yes"/>
      <point x="628" y="-83" type="line"/>
      <point x="628" y="-59" type="line"/>
      <point x="606" y="-59" type="line" smooth="yes"/>
      <point x="517" y="-59"/>
      <point x="458" y="-40"/>
      <point x="416" y="0" type="curve" smooth="yes"/>
      <point x="383" y="31"/>
      <point x="363" y="75"/>
      <point x="363" y="134" type="curve" smooth="yes"/>
      <point x="363" y="236"/>
      <point x="418" y="297"/>
      <point x="502" y="326" type="curve"/>
      <point x="487" y="330" type="line"/>
      <point x="467" y="295"/>
      <point x="458" y="253"/>
      <point x="458" y="208" type="curve" smooth="yes"/>
      <point x="458" y="130"/>
      <point x="492" y="86"/>
    </contour>
    <contour>
      <point x="278" y="-321" type="curve" smooth="yes"/>
      <point x="379" y="-321"/>
      <point x="440" y="-266"/>
      <point x="495" y="-164" type="curve" smooth="yes"/>
      <point x="527" y="-104"/>
      <point x="541" y="-86"/>
      <point x="560" y="-67" type="curve"/>
      <point x="534" y="-59" type="line"/>
      <point x="513" y="-78"/>
      <point x="499" y="-101"/>
      <point x="471" y="-153" type="curve" smooth="yes"/>
      <point x="418" y="-251"/>
      <point x="364" y="-296"/>
      <point x="278" y="-296" type="curve" smooth="yes"/>
      <point x="203" y="-296"/>
      <point x="165" y="-245"/>
      <point x="165" y="-168" type="curve" smooth="yes"/>
      <point x="165" y="-106"/>
      <point x="189" y="-61"/>
      <point x="234" y="2" type="curve"/>
      <point x="213" y="16" type="line"/>
      <point x="169" y="-41"/>
      <point x="138" y="-100"/>
      <point x="138" y="-168" type="curve" smooth="yes"/>
      <point x="138" y="-266"/>
      <point x="195" y="-321"/>
    </contour>
  </outline>
</glyph>
<glyph name="katamil" format="2">
  <advance width="560"/>
  <unicode hex="0B95"/>
  <outline>
    <contour>
      <point x="177" y="-12" type="curve" smooth="yes"/>
      <point x="228" y="-12"/>
      <point x="263" y="6"/>
      <point x="286" y="36" type="curve" smooth="yes"/>
      <point x="312" y="71"/>
      <point x="321" y="115"/>
      <point x="321" y="180" type="curve" smooth="yes"/>
      <point x="321" y="521" type="line"/>
      <point x="463" y="521" type="line"/>
      <point x="463" y="546" type="line"/>
      <point x="119" y="546" type="line"/>
      <point x="119" y="276" type="line"/>
      <point x="145" y="284" type="line"/>
      <point x="145" y="521" type="line"/>
      <point x="295" y="521" type="line"/>
      <point x="295" y="181" type="line" smooth="yes"/>
      <point x="295" y="56"/>
      <point x="252" y="13"/>
      <point x="176" y="13" type="curve" smooth="yes"/>
      <point x="107" y="13"/>
      <point x="71" y="61"/>
      <point x="71" y="146" type="curve" smooth="yes"/>
      <point x="71" y="193"/>
      <point x="86" y="229"/>
      <point x="113" y="252" type="curve" smooth="yes"/>
      <point x="140" y="275"/>
      <point x="176" y="287"/>
      <point x="242" y="287" type="curve" smooth="yes"/>
      <point x="328" y="287" type="line" smooth="yes"/>
      <point x="427" y="287"/>
      <point x="489" y="257"/>
      <point x="489" y="143" type="curve" smooth="yes"/>
      <point x="489" y="63"/>
      <point x="458" y="15"/>
      <point x="390" y="15" type="curve" smooth="yes"/>
      <point x="368" y="15"/>
      <point x="354" y="17"/>
      <point x="336" y="22" type="curve"/>
      <point x="332" y="-3" type="line"/>
      <point x="350" y="-8"/>
      <point x="373" y="-10"/>
      <point x="390" y="-10" type="curve" smooth="yes"/>
      <point x="468" y="-10"/>
      <point x="516" y="43"/>
      <point x="516" y="143" type="curve" smooth="yes"/>
      <point x="516" y="199"/>
      <point x="502" y="241"/>
      <point x="473" y="269" type="curve" smooth="yes"/>
      <point x="442" y="298"/>
      <point x="398" y="312"/>
      <point x="330" y="312" type="curve" smooth="yes"/>
      <point x="241" y="312" type="line" smooth="yes"/>
      <point x="103" y="312"/>
      <point x="44" y="246"/>
      <point x="44" y="145" type="curve" smooth="yes"/>
      <point x="44" y="49"/>
      <point x="90" y="-12"/>
    </contour>
  </outline>
</glyph>
<glyph name="jatamil" format="2">
  <advance width="717"/>
  <unicode hex="0B9C"/>
  <outline>
    <contour>
      <point x="233" y="558" type="curve" smooth="yes"/>
      <point x="132" y="558"/>
      <point x="49" y="485"/>
      <point x="49" y="341" type="curve" smooth="yes"/>
      <point x="49" y="248"/>
      <point x="90" y="196"/>
      <point x="156" y="196" type="curve" smooth="yes"/>
      <point x="217" y="196"/>
      <point x="262" y="241"/>
      <point x="262" y="328" type="curve" smooth="yes"/>
      <point x="262" y="423"/>
      <point x="195" y="480"/>
      <point x="122" y="496" type="curve"/>
      <point x="105" y="475" type="line"/>
      <point x="175" y="463"/>
      <point x="235" y="412"/>
      <point x="235" y="328" type="curve" smooth="yes"/>
      <point x="235" y="253"/>
      <point x="201" y="221"/>
      <point x="158" y="221" type="curve" smooth="yes"/>
      <point x="104" y="221"/>
      <point x="76" y="261"/>
      <point x="76" y="344" type="curve" smooth="yes"/>
      <point x="76" y="404"/>
      <point x="89" y="450"/>
      <point x="119" y="484" type="curve" smooth="yes"/>
      <point x="124" y="490" type="line" smooth="yes"/>
      <point x="149" y="519"/>
      <point x="192" y="533"/>
      <point x="233" y="533" type="curve" smooth="yes"/>
      <point x="312" y="533"/>
      <point x="376" y="479"/>
      <point x="376" y="357" type="curve" smooth="yes"/>
      <point x="376" y="202" type="line"/>
      <point x="402" y="202" type="line"/>
      <point x="402" y="353" type="line" smooth="yes"/>
      <point x="402" y="415"/>
      <point x="413" y="474"/>
      <point x="449" y="508" type="curve" smooth="yes"/>
      <point x="466" y="523"/>
      <point x="485" y="533"/>
      <point x="518" y="533" type="curve" smooth="yes"/>
      <point x="581" y="533"/>
      <point x="639" y="479"/>
      <point x="639" y="342" type="curve" smooth="yes"/>
      <point x="639" y="241"/>
      <point x="617" y="182"/>
      <point x="571" y="149" type="curve" smooth="yes"/>
      <point x="529" y="119"/>
      <point x="470" y="110"/>
      <point x="379" y="110" type="curve" smooth="yes"/>
      <point x="333" y="110" type="line" smooth="yes"/>
      <point x="227" y="110"/>
      <point x="161" y="96"/>
      <point x="112" y="53" type="curve" smooth="yes"/>
      <point x="72" y="18"/>
      <point x="50" y="-36"/>
      <point x="50" y="-118" type="curve" smooth="yes"/>
      <point x="50" y="-260"/>
      <point x="113" y="-311"/>
      <point x="194" y="-311" type="curve" smooth="yes"/>
      <point x="278" y="-311"/>
      <point x="321" y="-267"/>
      <point x="380" y="-166" type="curve" smooth="yes"/>
      <point x="429" y="-82"/>
      <point x="471" y="-40"/>
      <point x="522" y="-40" type="curve"/>
      <point x="526" y="-40"/>
      <point x="531" y="-40"/>
      <point x="536" y="-40" type="curve" smooth="yes"/>
      <point x="574" y="-40"/>
      <point x="635" y="-74"/>
      <point x="635" y="-179" type="curve" smooth="yes"/>
      <point x="635" y="-264"/>
      <point x="599" y="-286"/>
      <point x="561" y="-286" type="curve" smooth="yes"/>
      <point x="513" y="-286"/>
      <point x="488" y="-248"/>
      <point x="488" y="-184" type="curve" smooth="yes"/>
      <point x="488" y="-124"/>
      <point x="514" y="-76"/>
      <point x="556" y="-29" type="curve"/>
      <point x="529" y="-25" type="line"/>
      <point x="491" y="-63"/>
      <point x="461" y="-123"/>
      <point x="461" y="-185" type="curve" smooth="yes"/>
      <point x="461" y="-264"/>
      <point x="499" y="-311"/>
      <point x="561" y="-311" type="curve" smooth="yes"/>
      <point x="616" y="-311"/>
      <point x="662" y="-275"/>
      <point x="662" y="-179" type="curve" smooth="yes"/>
      <point x="662" y="-54"/>
      <point x="586" y="-16"/>
      <point x="529" y="-16" type="curve" smooth="yes"/>
      <point x="453" y="-16"/>
      <point x="406" y="-71"/>
      <point x="357" y="-154" type="curve" smooth="yes"/>
      <point x="298" y="-254"/>
      <point x="263" y="-286"/>
      <point x="194" y="-286" type="curve" smooth="yes"/>
      <point x="133" y="-286"/>
      <point x="77" y="-251"/>
      <point x="77" y="-119" type="curve" smooth="yes"/>
      <point x="77" y="-46"/>
      <point x="95" y="3"/>
      <point x="129" y="34" type="curve" smooth="yes"/>
      <point x="169" y="72"/>
      <point x="225" y="85"/>
      <point x="335" y="85" type="curve" smooth="yes"/>
      <point x="377" y="85" type="line" smooth="yes"/>
      <point x="474" y="85"/>
      <point x="540" y="95"/>
      <point x="587" y="129" type="curve" smooth="yes"/>
      <point x="639" y="166"/>
      <point x="666" y="232"/>
      <point x="666" y="342" type="curve" smooth="yes"/>
      <point x="666" y="494"/>
      <point x="594" y="558"/>
      <point x="519" y="558" type="curve" smooth="yes"/>
      <point x="456" y="558"/>
      <point x="397" y="522"/>
      <point x="383" y="401" type="curve"/>
      <point x="394" y="401" type="line"/>
      <point x="382" y="502"/>
      <point x="320" y="558"/>
    </contour>
  </outline>
</glyph>
<glyph name="nyatamil" format="2">
  <advance width="834"/>
  <unicode hex="0B9E"/>
  <outline>
    <contour>
      <point x="660" y="299" type="curve" smooth="yes"/>
      <point x="626" y="299"/>
      <point x="596" y="286"/>
      <point x="565" y="262" type="curve"/>
      <point x="567" y="235" type="line"/>
      <point x="593" y="260"/>
      <point x="623" y="274"/>
      <point x="656" y="274" type="curve" smooth="yes"/>
      <point x="722" y="274"/>
      <point x="763" y="217"/>
      <point x="763" y="77" type="curve" smooth="yes"/>
      <point x="763" y="-187"/>
      <point x="629" y="-296"/>
      <point x="440" y="-296" type="curve" smooth="yes"/>
      <point x="433" y="-296" type="line" smooth="yes"/>
      <point x="191" y="-296"/>
      <point x="78" y="-114"/>
      <point x="78" y="143" type="curve" smooth="yes"/>
      <point x="78" y="151" type="line" smooth="yes"/>
      <point x="78" y="303"/>
      <point x="121" y="411"/>
      <point x="187" y="534" type="curve"/>
      <point x="163" y="546" type="line"/>
      <point x="99" y="426"/>
      <point x="52" y="320"/>
      <point x="52" y="149" type="curve" smooth="yes"/>
      <point x="52" y="142" type="line" smooth="yes"/>
      <point x="52" y="-120"/>
      <point x="171" y="-321"/>
      <point x="431" y="-321" type="curve" smooth="yes"/>
      <point x="441" y="-321" type="line" smooth="yes"/>
      <point x="637" y="-321"/>
      <point x="790" y="-206"/>
      <point x="790" y="78" type="curve" smooth="yes"/>
      <point x="790" y="235"/>
      <point x="734" y="299"/>
    </contour>
    <contour>
      <point x="352" y="-12" type="curve" smooth="yes"/>
      <point x="411" y="-12"/>
      <point x="461" y="22"/>
      <point x="461" y="154" type="curve" smooth="yes"/>
      <point x="461" y="259"/>
      <point x="414" y="312"/>
      <point x="349" y="312" type="curve" smooth="yes"/>
      <point x="305" y="312"/>
      <point x="267" y="285"/>
      <point x="237" y="247" type="curve"/>
      <point x="241" y="220" type="line"/>
      <point x="270" y="259"/>
      <point x="307" y="287"/>
      <point x="347" y="287" type="curve" smooth="yes"/>
      <point x="405" y="287"/>
      <point x="434" y="236"/>
      <point x="434" y="153" type="curve" smooth="yes"/>
      <point x="434" y="42"/>
      <point x="400" y="13"/>
      <point x="354" y="13" type="curve" smooth="yes"/>
      <point x="297" y="13"/>
      <point x="256" y="61"/>
      <point x="256" y="233" type="curve" smooth="yes"/>
      <point x="256" y="335"/>
      <point x="279" y="414"/>
      <point x="334" y="463" type="curve" smooth="yes"/>
      <point x="376" y="501"/>
      <point x="435" y="521"/>
      <point x="522" y="521" type="curve" smooth="yes"/>
      <point x="550" y="521" type="line"/>
      <point x="551" y="546" type="line"/>
      <point x="536" y="546" type="line" smooth="yes"/>
      <point x="425" y="546"/>
      <point x="358" y="522"/>
      <point x="312" y="477" type="curve" smooth="yes"/>
      <point x="256" y="423"/>
      <point x="230" y="339"/>
      <point x="230" y="234" type="curve" smooth="yes"/>
      <point x="230" y="40"/>
      <point x="285" y="-12"/>
    </contour>
    <contour>
      <point x="551" y="0" type="line"/>
      <point x="577" y="0" type="line"/>
      <point x="577" y="521" type="line"/>
      <point x="714" y="521" type="line"/>
      <point x="714" y="546" type="line"/>
      <point x="547" y="546" type="line"/>
      <point x="546" y="521" type="line"/>
      <point x="551" y="521" type="line"/>
    </contour>
  </outline>
</glyph>
<glyph name="ttatamil" format="2">
  <advance width="501"/>
  <unicode hex="0B9F"/>
  <outline>
    <contour>
      <point x="73" y="0" type="line"/>
      <point x="485" y="0" type="line"/>
      <point x="485" y="25" type="line"/>
      <point x="99" y="25" type="line"/>
      <point x="99" y="546" type="line"/>
      <point x="73" y="546" type="line"/>
    </contour>
  </outline>
</glyph>
<glyph name="nnatamil" format="2">
  <advance width="1117"/>
  <unicode hex="0BA3"/>
  <outline>
    <contour>
      <point x="173" y="-12" type="curve" smooth="yes"/>
      <point x="232" y="-12"/>
      <point x="282" y="22"/>
      <point x="282" y="154" type="curve" smooth="yes"/>
      <point x="282" y="259"/>
      <point x="235" y="312"/>
      <point x="170" y="312" type="curve" smooth="yes"/>
      <point x="126" y="312"/>
      <point x="88" y="285"/>
      <point x="58" y="247" type="curve"/>
      <point x="62" y="220" type="line"/>
      <point x="91" y="259"/>
      <point x="128" y="287"/>
      <point x="168" y="287" type="curve" smooth="yes"/>
      <point x="226" y="287"/>
      <point x="255" y="236"/>
      <point x="255" y="153" type="curve" smooth="yes"/>
      <point x="255" y="42"/>
      <point x="221" y="13"/>
      <point x="175" y="13" type="curve" smooth="yes"/>
      <point x="118" y="13"/>
      <point x="77" y="61"/>
      <point x="77" y="229" type="curve" smooth="yes"/>
      <point x="77" y="232"/>
      <point x="77" y="240"/>
      <point x="77" y="244" type="curve"/>
      <point x="77" y="412"/>
      <point x="162" y="533"/>
      <point x="280" y="533" type="curve" smooth="yes"/>
      <point x="352" y="533"/>
      <point x="404" y="500"/>
      <point x="440" y="452" type="curve"/>
      <point x="496" y="376"/>
      <point x="521" y="274"/>
      <point x="521" y="170" type="curve" smooth="yes"/>
      <point x="521" y="58"/>
      <point x="501" y="13"/>
      <point x="449" y="13" type="curve" smooth="yes"/>
      <point x="402" y="13"/>
      <point x="375" y="52"/>
      <point x="375" y="172" type="curve" smooth="yes"/>
      <point x="375" y="272"/>
      <point x="395" y="387"/>
      <point x="448" y="460" type="curve"/>
      <point x="481" y="505"/>
      <point x="525" y="533"/>
      <point x="586" y="533" type="curve" smooth="yes"/>
      <point x="648" y="533"/>
      <point x="693" y="503"/>
      <point x="726" y="457" type="curve"/>
      <point x="778" y="384"/>
      <point x="798" y="270"/>
      <point x="798" y="170" type="curve" smooth="yes"/>
      <point x="798" y="58"/>
      <point x="778" y="13"/>
      <point x="726" y="13" type="curve" smooth="yes"/>
      <point x="680" y="13"/>
      <point x="652" y="52"/>
      <point x="652" y="172" type="curve" smooth="yes"/>
      <point x="652" y="282"/>
      <point x="674" y="386"/>
      <point x="739" y="452" type="curve"/>
      <point x="780" y="494"/>
      <point x="841" y="521"/>
      <point x="929" y="521" type="curve" smooth="yes"/>
      <point x="939" y="521" type="line"/>
      <point x="939" y="0" type="line"/>
      <point x="965" y="0" type="line"/>
      <point x="965" y="521" type="line"/>
      <point x="1101" y="521" type="line"/>
      <point x="1101" y="546" type="line"/>
      <point x="947" y="546" type="line" smooth="yes"/>
      <point x="836" y="546"/>
      <point x="770" y="518"/>
      <point x="728" y="476" type="curve"/>
      <point x="720" y="468" type="line"/>
      <point x="648" y="394"/>
      <point x="625" y="290"/>
      <point x="625" y="172" type="curve" smooth="yes"/>
      <point x="625" y="47"/>
      <point x="659" y="-12"/>
      <point x="725" y="-12" type="curve" smooth="yes"/>
      <point x="785" y="-12"/>
      <point x="825" y="30"/>
      <point x="825" y="170" type="curve" smooth="yes"/>
      <point x="825" y="271"/>
      <point x="804" y="390"/>
      <point x="746" y="471" type="curve"/>
      <point x="740" y="478" type="line"/>
      <point x="704" y="528"/>
      <point x="654" y="558"/>
      <point x="587" y="558" type="curve" smooth="yes"/>
      <point x="521" y="558"/>
      <point x="468" y="528"/>
      <point x="433" y="481" type="curve"/>
      <point x="428" y="475" type="line"/>
      <point x="369" y="396"/>
      <point x="348" y="275"/>
      <point x="348" y="172" type="curve" smooth="yes"/>
      <point x="348" y="47"/>
      <point x="382" y="-12"/>
      <point x="448" y="-12" type="curve" smooth="yes"/>
      <point x="508" y="-12"/>
      <point x="548" y="30"/>
      <point x="548" y="170" type="curve" smooth="yes"/>
      <point x="548" y="280"/>
      <point x="520" y="389"/>
      <point x="457" y="469" type="curve"/>
      <point x="448" y="480" type="line"/>
      <point x="413" y="521"/>
      <point x="362" y="558"/>
      <point x="282" y="558" type="curve" smooth="yes"/>
      <point x="146" y="558"/>
      <point x="51" y="432"/>
      <point x="51" y="234" type="curve" smooth="yes"/>
      <point x="51" y="40"/>
      <point x="106" y="-12"/>
    </contour>
  </outline>
</glyph>
<glyph name="tatamil" format="2">
  <advance width="558"/>
  <unicode hex="0BA4"/>
  <outline>
    <contour>
      <point x="177" y="-12" type="curve" smooth="yes"/>
      <point x="228" y="-12"/>
      <point x="263" y="6"/>
      <point x="286" y="36" type="curve" smooth="yes"/>
      <point x="312" y="71"/>
      <point x="321" y="115"/>
      <point x="321" y="180" type="curve" smooth="yes"/>
      <point x="321" y="521" type="line"/>
      <point x="463" y="521" type="line"/>
      <point x="463" y="546" type="line"/>
      <point x="119" y="546" type="line"/>
      <point x="119" y="276" type="line"/>
      <point x="145" y="284" type="line"/>
      <point x="145" y="521" type="line"/>
      <point x="295" y="521" type="line"/>
      <point x="295" y="181" type="line" smooth="yes"/>
      <point x="295" y="56"/>
      <point x="252" y="13"/>
      <point x="176" y="13" type="curve" smooth="yes"/>
      <point x="107" y="13"/>
      <point x="71" y="61"/>
      <point x="71" y="146" type="curve" smooth="yes"/>
      <point x="71" y="193"/>
      <point x="86" y="229"/>
      <point x="113" y="252" type="curve" smooth="yes"/>
      <point x="140" y="275"/>
      <point x="176" y="287"/>
      <point x="242" y="287" type="curve" smooth="yes"/>
      <point x="294" y="287" type="line" smooth="yes"/>
      <point x="403" y="287"/>
      <point x="488" y="243"/>
      <point x="488" y="103" type="curve" smooth="yes"/>
      <point x="488" y="42"/>
      <point x="474" y="-17"/>
      <point x="433" y="-54" type="curve" smooth="yes"/>
      <point x="390" y="-92"/>
      <point x="345" y="-106"/>
      <point x="243" y="-106" type="curve" smooth="yes"/>
      <point x="229" y="-106" type="line" smooth="yes"/>
      <point x="153" y="-106"/>
      <point x="117" y="-115"/>
      <point x="86" y="-140" type="curve" smooth="yes"/>
      <point x="58" y="-162"/>
      <point x="42" y="-198"/>
      <point x="42" y="-251" type="curve" smooth="yes"/>
      <point x="42" y="-277"/>
      <point x="44" y="-299"/>
      <point x="48" y="-321" type="curve"/>
      <point x="74" y="-319" type="line"/>
      <point x="70" y="-297"/>
      <point x="68" y="-279"/>
      <point x="68" y="-251" type="curve" smooth="yes"/>
      <point x="68" y="-204"/>
      <point x="81" y="-176"/>
      <point x="104" y="-158" type="curve" smooth="yes"/>
      <point x="130" y="-137"/>
      <point x="158" y="-131"/>
      <point x="229" y="-131" type="curve" smooth="yes"/>
      <point x="251" y="-131" type="line" smooth="yes"/>
      <point x="355" y="-131"/>
      <point x="411" y="-111"/>
      <point x="456" y="-67" type="curve" smooth="yes"/>
      <point x="494" y="-29"/>
      <point x="515" y="27"/>
      <point x="515" y="106" type="curve" smooth="yes"/>
      <point x="515" y="249"/>
      <point x="428" y="312"/>
      <point x="287" y="312" type="curve" smooth="yes"/>
      <point x="241" y="312" type="line" smooth="yes"/>
      <point x="103" y="312"/>
      <point x="44" y="246"/>
      <point x="44" y="145" type="curve" smooth="yes"/>
      <point x="44" y="49"/>
      <point x="90" y="-12"/>
    </contour>
  </outline>
</glyph>
<glyph name="natamil" format="2">
  <advance width="553"/>
  <unicode hex="0BA8"/>
  <outline>
    <contour>
      <point x="377" y="356" type="curve" smooth="yes"/>
      <point x="336" y="356"/>
      <point x="306" y="340"/>
      <point x="277" y="319" type="curve"/>
      <point x="277" y="290" type="line"/>
      <point x="312" y="319"/>
      <point x="343" y="331"/>
      <point x="374" y="331" type="curve" smooth="yes"/>
      <point x="442" y="331"/>
      <point x="480" y="269"/>
      <point x="480" y="138" type="curve" smooth="yes"/>
      <point x="480" y="36"/>
      <point x="463" y="-25"/>
      <point x="426" y="-61" type="curve" smooth="yes"/>
      <point x="391" y="-95"/>
      <point x="347" y="-106"/>
      <point x="258" y="-106" type="curve" smooth="yes"/>
      <point x="229" y="-106" type="line" smooth="yes"/>
      <point x="153" y="-106"/>
      <point x="117" y="-115"/>
      <point x="86" y="-140" type="curve" smooth="yes"/>
      <point x="58" y="-162"/>
      <point x="42" y="-198"/>
      <point x="42" y="-251" type="curve" smooth="yes"/>
      <point x="42" y="-277"/>
      <point x="44" y="-299"/>
      <point x="48" y="-321" type="curve"/>
      <point x="74" y="-319" type="line"/>
      <point x="70" y="-297"/>
      <point x="68" y="-279"/>
      <point x="68" y="-251" type="curve" smooth="yes"/>
      <point x="68" y="-204"/>
      <point x="81" y="-176"/>
      <point x="104" y="-158" type="curve" smooth="yes"/>
      <point x="130" y="-137"/>
      <point x="158" y="-131"/>
      <point x="229" y="-131" type="curve" smooth="yes"/>
      <point x="254" y="-131" type="line" smooth="yes"/>
      <point x="350" y="-131"/>
      <point x="401" y="-120"/>
      <point x="444" y="-79" type="curve" smooth="yes"/>
      <point x="486" y="-39"/>
      <point x="507" y="29"/>
      <point x="507" y="138" type="curve" smooth="yes"/>
      <point x="507" y="282"/>
      <point x="457" y="356"/>
    </contour>
    <contour>
      <point x="73" y="0" type="line"/>
      <point x="99" y="0" type="line"/>
      <point x="99" y="521" type="line"/>
      <point x="255" y="521" type="line"/>
      <point x="255" y="0" type="line"/>
      <point x="281" y="0" type="line"/>
      <point x="281" y="521" type="line"/>
      <point x="416" y="521" type="line"/>
      <point x="416" y="546" type="line"/>
      <point x="73" y="546" type="line"/>
    </contour>
  </outline>
</glyph>
<glyph name="nnnatamil" format="2">
  <advance width="840"/>
  <unicode hex="0BA9"/>
  <outline>
    <contour>
      <point x="173" y="-12" type="curve" smooth="yes"/>
      <point x="232" y="-12"/>
      <point x="282" y="22"/>
      <point x="282" y="154" type="curve" smooth="yes"/>
      <point x="282" y="259"/>
      <point x="235" y="312"/>
      <point x="170" y="312" type="curve" smooth="yes"/>
      <point x="126" y="312"/>
      <point x="88" y="285"/>
      <point x="58" y="247" type="curve"/>
      <point x="62" y="220" type="line"/>
      <point x="91" y="259"/>
      <point x="128" y="287"/>
      <point x="168" y="287" type="curve" smooth="yes"/>
      <point x="226" y="287"/>
      <point x="255" y="236"/>
      <point x="255" y="153" type="curve" smooth="yes"/>
      <point x="255" y="42"/>
      <point x="221" y="13"/>
      <point x="175" y="13" type="curve" smooth="yes"/>
      <point x="118" y="13"/>
      <point x="77" y="61"/>
      <point x="77" y="229" type="curve" smooth="yes"/>
      <point x="77" y="235"/>
      <point x="77" y="240"/>
      <point x="77" y="244" type="curve" smooth="yes"/>
      <point x="77" y="412"/>
      <point x="162" y="533"/>
      <point x="280" y="533" type="curve" smooth="yes"/>
      <point x="352" y="533"/>
      <point x="404" y="500"/>
      <point x="442" y="449" type="curve" smooth="yes"/>
      <point x="498" y="373"/>
      <point x="521" y="266"/>
      <point x="521" y="170" type="curve" smooth="yes"/>
      <point x="521" y="58"/>
      <point x="501" y="13"/>
      <point x="449" y="13" type="curve" smooth="yes"/>
      <point x="402" y="13"/>
      <point x="375" y="52"/>
      <point x="375" y="172" type="curve" smooth="yes"/>
      <point x="375" y="282"/>
      <point x="397" y="383"/>
      <point x="458" y="448" type="curve" smooth="yes"/>
      <point x="501" y="494"/>
      <point x="564" y="521"/>
      <point x="652" y="521" type="curve" smooth="yes"/>
      <point x="662" y="521" type="line"/>
      <point x="662" y="0" type="line"/>
      <point x="688" y="0" type="line"/>
      <point x="688" y="521" type="line"/>
      <point x="824" y="521" type="line"/>
      <point x="824" y="546" type="line"/>
      <point x="670" y="546" type="line" smooth="yes"/>
      <point x="559" y="546"/>
      <point x="495" y="520"/>
      <point x="447" y="472" type="curve"/>
      <point x="440" y="465" type="line"/>
      <point x="372" y="394"/>
      <point x="348" y="290"/>
      <point x="348" y="172" type="curve" smooth="yes"/>
      <point x="348" y="47"/>
      <point x="382" y="-12"/>
      <point x="448" y="-12" type="curve" smooth="yes"/>
      <point x="508" y="-12"/>
      <point x="548" y="30"/>
      <point x="548" y="170" type="curve" smooth="yes"/>
      <point x="548" y="280"/>
      <point x="520" y="385"/>
      <point x="463" y="461" type="curve"/>
      <point x="457" y="469" type="line"/>
      <point x="415" y="522"/>
      <point x="362" y="558"/>
      <point x="282" y="558" type="curve" smooth="yes"/>
      <point x="146" y="558"/>
      <point x="51" y="432"/>
      <point x="51" y="234" type="curve" smooth="yes"/>
      <point x="51" y="40"/>
      <point x="106" y="-12"/>
    </contour>
  </outline>
</glyph>
<glyph name="patamil" format="2">
  <advance width="539"/>
  <unicode hex="0BAA"/>
  <outline>
    <contour>
      <point x="73" y="0" type="line"/>
      <point x="466" y="0" type="line"/>
      <point x="466" y="546" type="line"/>
      <point x="440" y="546" type="line"/>
      <point x="440" y="25" type="line"/>
      <point x="99" y="25" type="line"/>
      <point x="99" y="546" type="line"/>
      <point x="73" y="546" type="line"/>
    </contour>
  </outline>
</glyph>
<glyph name="matamil" format="2">
  <advance width="593"/>
  <unicode hex="0BAE"/>
  <outline>
    <contour>
      <point x="400" y="558" type="curve" smooth="yes"/>
      <point x="376" y="558"/>
      <point x="358" y="552"/>
      <point x="343" y="542" type="curve" smooth="yes"/>
      <point x="303" y="514"/>
      <point x="292" y="464"/>
      <point x="292" y="380" type="curve" smooth="yes"/>
      <point x="292" y="25" type="line"/>
      <point x="99" y="25" type="line"/>
      <point x="99" y="546" type="line"/>
      <point x="73" y="546" type="line"/>
      <point x="73" y="0" type="line"/>
      <point x="351" y="0" type="line" smooth="yes"/>
      <point x="422" y="0"/>
      <point x="459" y="20"/>
      <point x="485" y="50" type="curve" smooth="yes"/>
      <point x="531" y="102"/>
      <point x="539" y="183"/>
      <point x="539" y="263" type="curve" smooth="yes"/>
      <point x="539" y="446"/>
      <point x="491" y="558"/>
    </contour>
    <contour>
      <point x="400" y="533" type="curve" smooth="yes"/>
      <point x="479" y="533"/>
      <point x="512" y="409"/>
      <point x="512" y="264" type="curve" smooth="yes"/>
      <point x="512" y="97"/>
      <point x="471" y="25"/>
      <point x="352" y="25" type="curve" smooth="yes"/>
      <point x="318" y="25" type="line"/>
      <point x="318" y="377" type="line" smooth="yes"/>
      <point x="318" y="438"/>
      <point x="323" y="496"/>
      <point x="356" y="520" type="curve" smooth="yes"/>
      <point x="367" y="528"/>
      <point x="382" y="533"/>
    </contour>
  </outline>
</glyph>
<glyph name="yatamil" format="2">
  <advance width="665"/>
  <unicode hex="0BAF"/>
  <outline>
    <contour>
      <point x="259" y="0" type="line"/>
      <point x="592" y="0" type="line"/>
      <point x="592" y="546" type="line"/>
      <point x="566" y="546" type="line"/>
      <point x="566" y="25" type="line"/>
      <point x="285" y="25" type="line"/>
      <point x="285" y="546" type="line"/>
      <point x="259" y="546" type="line"/>
    </contour>
    <contour>
      <point x="181" y="-10" type="curve" smooth="yes"/>
      <point x="226" y="-10"/>
      <point x="257" y="16"/>
      <point x="275" y="43" type="curve"/>
      <point x="273" y="79" type="line"/>
      <point x="246" y="34"/>
      <point x="218" y="15"/>
      <point x="181" y="15" type="curve" smooth="yes"/>
      <point x="153" y="15"/>
      <point x="134" y="25"/>
      <point x="122" y="42" type="curve" smooth="yes"/>
      <point x="101" y="70"/>
      <point x="98" y="115"/>
      <point x="98" y="182" type="curve" smooth="yes"/>
      <point x="98" y="546" type="line"/>
      <point x="72" y="546" type="line"/>
      <point x="72" y="176" type="line" smooth="yes"/>
      <point x="72" y="96"/>
      <point x="77" y="53"/>
      <point x="108" y="18" type="curve" smooth="yes"/>
      <point x="124" y="1"/>
      <point x="147" y="-10"/>
    </contour>
  </outline>
</glyph>
<glyph name="ratamil" format="2">
  <advance width="445"/>
  <unicode hex="0BB0"/>
  <outline>
    <contour>
      <point x="122" y="-211" type="line"/>
      <point x="294" y="0" type="line"/>
      <point x="294" y="521" type="line"/>
      <point x="429" y="521" type="line"/>
      <point x="429" y="546" type="line"/>
      <point x="73" y="546" type="line"/>
      <point x="73" y="0" type="line"/>
      <point x="99" y="0" type="line"/>
      <point x="99" y="521" type="line"/>
      <point x="268" y="521" type="line"/>
      <point x="268" y="8" type="line"/>
      <point x="102" y="-194" type="line"/>
    </contour>
  </outline>
</glyph>
<glyph name="rratamil" format="2">
  <advance width="596"/>
  <unicode hex="0BB1"/>
  <outline>
    <contour>
      <point x="391" y="558" type="curve" smooth="yes"/>
      <point x="315" y="558"/>
      <point x="272" y="497"/>
      <point x="265" y="413" type="curve"/>
      <point x="276" y="416" type="line"/>
      <point x="271" y="505"/>
      <point x="241" y="558"/>
      <point x="178" y="558" type="curve" smooth="yes"/>
      <point x="145" y="558"/>
      <point x="123" y="546"/>
      <point x="106" y="526" type="curve" smooth="yes"/>
      <point x="81" y="496"/>
      <point x="71" y="454"/>
      <point x="71" y="377" type="curve" smooth="yes"/>
      <point x="71" y="0" type="line"/>
      <point x="97" y="0" type="line"/>
      <point x="97" y="371" type="line" smooth="yes"/>
      <point x="97" y="431"/>
      <point x="103" y="478"/>
      <point x="123" y="506" type="curve" smooth="yes"/>
      <point x="135" y="523"/>
      <point x="153" y="533"/>
      <point x="178" y="533" type="curve" smooth="yes"/>
      <point x="201" y="533"/>
      <point x="218" y="523"/>
      <point x="230" y="506" type="curve" smooth="yes"/>
      <point x="249" y="479"/>
      <point x="256" y="433"/>
      <point x="256" y="369" type="curve" smooth="yes"/>
      <point x="256" y="0" type="line"/>
      <point x="282" y="0" type="line"/>
      <point x="282" y="353" type="line" smooth="yes"/>
      <point x="282" y="430"/>
      <point x="296" y="481"/>
      <point x="328" y="510" type="curve" smooth="yes"/>
      <point x="344" y="525"/>
      <point x="364" y="533"/>
      <point x="389" y="533" type="curve" smooth="yes"/>
      <point x="462" y="533"/>
      <point x="514" y="455"/>
      <point x="514" y="254" type="curve" smooth="yes"/>
      <point x="514" y="-16"/>
      <point x="439" y="-106"/>
      <point x="250" y="-106" type="curve" smooth="yes"/>
      <point x="229" y="-106" type="line" smooth="yes"/>
      <point x="153" y="-106"/>
      <point x="117" y="-115"/>
      <point x="86" y="-140" type="curve" smooth="yes"/>
      <point x="58" y="-162"/>
      <point x="42" y="-198"/>
      <point x="42" y="-251" type="curve" smooth="yes"/>
      <point x="42" y="-277"/>
      <point x="44" y="-299"/>
      <point x="48" y="-321" type="curve"/>
      <point x="74" y="-319" type="line"/>
      <point x="70" y="-297"/>
      <point x="68" y="-279"/>
      <point x="68" y="-251" type="curve" smooth="yes"/>
      <point x="68" y="-204"/>
      <point x="81" y="-176"/>
      <point x="104" y="-158" type="curve" smooth="yes"/>
      <point x="130" y="-137"/>
      <point x="158" y="-131"/>
      <point x="229" y="-131" type="curve" smooth="yes"/>
      <point x="255" y="-131" type="line" smooth="yes"/>
      <point x="356" y="-131"/>
      <point x="424" y="-103"/>
      <point x="470" y="-48" type="curve" smooth="yes"/>
      <point x="524" y="17"/>
      <point x="541" y="121"/>
      <point x="541" y="252" type="curve" smooth="yes"/>
      <point x="541" y="480"/>
      <point x="473" y="558"/>
    </contour>
  </outline>
</glyph>
<glyph name="latamil" format="2">
  <advance width="694"/>
  <unicode hex="0BB2"/>
  <outline>
    <contour>
      <point x="173" y="-12" type="curve" smooth="yes"/>
      <point x="232" y="-12"/>
      <point x="282" y="22"/>
      <point x="282" y="154" type="curve" smooth="yes"/>
      <point x="282" y="259"/>
      <point x="235" y="312"/>
      <point x="170" y="312" type="curve" smooth="yes"/>
      <point x="126" y="312"/>
      <point x="88" y="285"/>
      <point x="58" y="247" type="curve"/>
      <point x="62" y="220" type="line"/>
      <point x="91" y="259"/>
      <point x="128" y="287"/>
      <point x="168" y="287" type="curve" smooth="yes"/>
      <point x="226" y="287"/>
      <point x="255" y="236"/>
      <point x="255" y="153" type="curve" smooth="yes"/>
      <point x="255" y="42"/>
      <point x="221" y="13"/>
      <point x="175" y="13" type="curve" smooth="yes"/>
      <point x="118" y="13"/>
      <point x="77" y="61"/>
      <point x="77" y="235" type="curve" smooth="yes"/>
      <point x="77" y="426"/>
      <point x="147" y="533"/>
      <point x="245" y="533" type="curve" smooth="yes"/>
      <point x="276" y="533"/>
      <point x="300" y="523"/>
      <point x="319" y="507" type="curve" smooth="yes"/>
      <point x="377" y="456"/>
      <point x="381" y="340"/>
      <point x="381" y="248" type="curve" smooth="yes"/>
      <point x="381" y="134"/>
      <point x="389" y="53"/>
      <point x="438" y="12" type="curve" smooth="yes"/>
      <point x="455" y="-3"/>
      <point x="479" y="-12"/>
      <point x="507" y="-12" type="curve" smooth="yes"/>
      <point x="588" y="-12"/>
      <point x="639" y="49"/>
      <point x="639" y="235" type="curve" smooth="yes"/>
      <point x="639" y="377"/>
      <point x="591" y="492"/>
      <point x="525" y="573" type="curve"/>
      <point x="504" y="557" type="line"/>
      <point x="559" y="487"/>
      <point x="612" y="392"/>
      <point x="612" y="235" type="curve" smooth="yes"/>
      <point x="612" y="63"/>
      <point x="571" y="13"/>
      <point x="508" y="13" type="curve" smooth="yes"/>
      <point x="485" y="13"/>
      <point x="468" y="20"/>
      <point x="454" y="32" type="curve" smooth="yes"/>
      <point x="413" y="68"/>
      <point x="407" y="144"/>
      <point x="407" y="268" type="curve" smooth="yes"/>
      <point x="407" y="375"/>
      <point x="396" y="471"/>
      <point x="337" y="525" type="curve" smooth="yes"/>
      <point x="314" y="546"/>
      <point x="284" y="558"/>
      <point x="245" y="558" type="curve" smooth="yes"/>
      <point x="138" y="558"/>
      <point x="51" y="454"/>
      <point x="51" y="236" type="curve" smooth="yes"/>
      <point x="51" y="40"/>
      <point x="106" y="-12"/>
    </contour>
  </outline>
</glyph>
<glyph name="llatamil" format="2">
  <advance width="739"/>
  <unicode hex="0BB3"/>
  <outline>
    <contour>
      <point x="173" y="-12" type="curve" smooth="yes"/>
      <point x="232" y="-12"/>
      <point x="282" y="22"/>
      <point x="282" y="154" type="curve" smooth="yes"/>
      <point x="282" y="259"/>
      <point x="235" y="312"/>
      <point x="170" y="312" type="curve" smooth="yes"/>
      <point x="126" y="312"/>
      <point x="88" y="285"/>
      <point x="58" y="247" type="curve"/>
      <point x="62" y="220" type="line"/>
      <point x="91" y="259"/>
      <point x="128" y="287"/>
      <point x="168" y="287" type="curve" smooth="yes"/>
      <point x="226" y="287"/>
      <point x="255" y="236"/>
      <point x="255" y="153" type="curve" smooth="yes"/>
      <point x="255" y="42"/>
      <point x="221" y="13"/>
      <point x="175" y="13" type="curve" smooth="yes"/>
      <point x="118" y="13"/>
      <point x="77" y="61"/>
      <point x="77" y="235" type="curve" smooth="yes"/>
      <point x="77" y="430"/>
      <point x="150" y="533"/>
      <point x="255" y="533" type="curve" smooth="yes"/>
      <point x="310" y="533"/>
      <point x="356" y="496"/>
      <point x="392" y="455" type="curve"/>
      <point x="393" y="490" type="line"/>
      <point x="357" y="526"/>
      <point x="313" y="558"/>
      <point x="255" y="558" type="curve" smooth="yes"/>
      <point x="137" y="558"/>
      <point x="51" y="450"/>
      <point x="51" y="234" type="curve" smooth="yes"/>
      <point x="51" y="40"/>
      <point x="106" y="-12"/>
    </contour>
    <contour>
      <point x="380" y="0" type="line"/>
      <point x="406" y="0" type="line"/>
      <point x="406" y="521" type="line"/>
      <point x="562" y="521" type="line"/>
      <point x="562" y="0" type="line"/>
      <point x="588" y="0" type="line"/>
      <point x="588" y="521" type="line"/>
      <point x="723" y="521" type="line"/>
      <point x="723" y="546" type="line"/>
      <point x="381" y="546" type="line"/>
      <point x="381" y="491" type="line"/>
      <point x="380" y="476" type="line"/>
    </contour>
  </outline>
</glyph>
<glyph name="lllatamil" format="2">
  <advance width="593"/>
  <unicode hex="0BB4"/>
  <outline>
    <contour>
      <point x="400" y="558" type="curve" smooth="yes"/>
      <point x="376" y="558"/>
      <point x="358" y="552"/>
      <point x="343" y="542" type="curve" smooth="yes"/>
      <point x="303" y="514"/>
      <point x="292" y="464"/>
      <point x="292" y="380" type="curve" smooth="yes"/>
      <point x="292" y="25" type="line"/>
      <point x="99" y="25" type="line"/>
      <point x="99" y="546" type="line"/>
      <point x="73" y="546" type="line"/>
      <point x="73" y="0" type="line"/>
      <point x="351" y="0" type="line" smooth="yes"/>
      <point x="422" y="0"/>
      <point x="459" y="20"/>
      <point x="485" y="50" type="curve" smooth="yes"/>
      <point x="531" y="102"/>
      <point x="539" y="183"/>
      <point x="539" y="263" type="curve" smooth="yes"/>
      <point x="539" y="446"/>
      <point x="491" y="558"/>
    </contour>
    <contour>
      <point x="400" y="533" type="curve" smooth="yes"/>
      <point x="479" y="533"/>
      <point x="512" y="409"/>
      <point x="512" y="264" type="curve" smooth="yes"/>
      <point x="512" y="97"/>
      <point x="471" y="25"/>
      <point x="352" y="25" type="curve" smooth="yes"/>
      <point x="318" y="25" type="line"/>
      <point x="318" y="377" type="line" smooth="yes"/>
      <point x="318" y="438"/>
      <point x="323" y="496"/>
      <point x="356" y="520" type="curve" smooth="yes"/>
      <point x="367" y="528"/>
      <point x="382" y="533"/>
    </contour>
    <contour>
      <point x="168" y="-83" type="curve" smooth="yes"/>
      <point x="103" y="-83"/>
      <point x="56" y="-126"/>
      <point x="56" y="-198" type="curve" smooth="yes"/>
      <point x="56" y="-234"/>
      <point x="66" y="-264"/>
      <point x="86" y="-285" type="curve" smooth="yes"/>
      <point x="109" y="-309"/>
      <point x="141" y="-321"/>
      <point x="189" y="-321" type="curve" smooth="yes"/>
      <point x="195" y="-321" type="line" smooth="yes"/>
      <point x="300" y="-321"/>
      <point x="335" y="-262"/>
      <point x="370" y="-192" type="curve" smooth="yes"/>
      <point x="386" y="-160"/>
      <point x="399" y="-139"/>
      <point x="422" y="-125" type="curve"/>
      <point x="395" y="-120" type="line"/>
      <point x="376" y="-129"/>
      <point x="364" y="-142"/>
      <point x="345" y="-182" type="curve" smooth="yes"/>
      <point x="316" y="-244"/>
      <point x="280" y="-296"/>
      <point x="195" y="-296" type="curve" smooth="yes"/>
      <point x="192" y="-296" type="line" smooth="yes"/>
      <point x="130" y="-296"/>
      <point x="83" y="-273"/>
      <point x="83" y="-199" type="curve" smooth="yes"/>
      <point x="83" y="-140"/>
      <point x="118" y="-108"/>
      <point x="166" y="-108" type="curve" smooth="yes"/>
      <point x="181" y="-108"/>
      <point x="192" y="-109"/>
      <point x="203" y="-111" type="curve"/>
      <point x="206" y="-87" type="line"/>
      <point x="192" y="-84"/>
      <point x="181" y="-83"/>
    </contour>
    <contour>
      <point x="393" y="-139" type="line"/>
      <point x="504" y="-139" type="line"/>
      <point x="504" y="-114" type="line"/>
      <point x="423" y="-114" type="line" smooth="yes"/>
      <point x="386" y="-114"/>
      <point x="368" y="-108"/>
      <point x="353" y="-97" type="curve" smooth="yes"/>
      <point x="329" y="-79"/>
      <point x="319" y="-46"/>
      <point x="318" y="2" type="curve"/>
      <point x="292" y="3" type="line"/>
      <point x="293" y="-88"/>
      <point x="329" y="-125"/>
      <point x="383" y="-135" type="curve"/>
    </contour>
  </outline>
</glyph>
<glyph name="shatamil" format="2">
  <advance width="833"/>
  <unicode hex="0BB6"/>
  <outline>
    <contour>
      <point x="208" y="-12" type="curve" smooth="yes"/>
      <point x="247" y="-12"/>
      <point x="276" y="-1"/>
      <point x="297" y="19" type="curve" smooth="yes"/>
      <point x="336" y="55"/>
      <point x="347" y="111"/>
      <point x="347" y="203" type="curve" smooth="yes"/>
      <point x="347" y="521" type="line"/>
      <point x="486" y="521" type="line"/>
      <point x="486" y="201" type="line" smooth="yes"/>
      <point x="486" y="120"/>
      <point x="493" y="58"/>
      <point x="535" y="19" type="curve" smooth="yes"/>
      <point x="556" y="0"/>
      <point x="585" y="-12"/>
      <point x="625" y="-12" type="curve" smooth="yes"/>
      <point x="664" y="-12"/>
      <point x="693" y="-1"/>
      <point x="714" y="19" type="curve" smooth="yes"/>
      <point x="753" y="55"/>
      <point x="764" y="111"/>
      <point x="764" y="203" type="curve" smooth="yes"/>
      <point x="764" y="546" type="line"/>
      <point x="321" y="546" type="line"/>
      <point x="321" y="209" type="line" smooth="yes"/>
      <point x="321" y="134"/>
      <point x="317" y="76"/>
      <point x="282" y="40" type="curve" smooth="yes"/>
      <point x="265" y="23"/>
      <point x="242" y="13"/>
      <point x="208" y="13" type="curve" smooth="yes"/>
      <point x="173" y="13"/>
      <point x="148" y="24"/>
      <point x="131" y="43" type="curve" smooth="yes"/>
      <point x="99" y="79"/>
      <point x="95" y="135"/>
      <point x="95" y="211" type="curve" smooth="yes"/>
      <point x="95" y="546" type="line"/>
      <point x="69" y="546" type="line"/>
      <point x="69" y="201" type="line" smooth="yes"/>
      <point x="69" y="120"/>
      <point x="76" y="58"/>
      <point x="118" y="19" type="curve" smooth="yes"/>
      <point x="139" y="0"/>
      <point x="168" y="-12"/>
    </contour>
    <contour>
      <point x="625" y="13" type="curve" smooth="yes"/>
      <point x="590" y="13"/>
      <point x="565" y="24"/>
      <point x="548" y="43" type="curve" smooth="yes"/>
      <point x="516" y="79"/>
      <point x="512" y="135"/>
      <point x="512" y="211" type="curve" smooth="yes"/>
      <point x="512" y="521" type="line"/>
      <point x="738" y="521" type="line"/>
      <point x="738" y="209" type="line" smooth="yes"/>
      <point x="738" y="134"/>
      <point x="734" y="76"/>
      <point x="699" y="40" type="curve" smooth="yes"/>
      <point x="682" y="23"/>
      <point x="659" y="13"/>
    </contour>
  </outline>
</glyph>
<glyph name="ssatamil" format="2">
  <advance width="941"/>
  <unicode hex="0BB7"/>
  <outline>
    <contour>
      <point x="649" y="558" type="curve" smooth="yes"/>
      <point x="587" y="558"/>
      <point x="535" y="495"/>
      <point x="535" y="390" type="curve" smooth="yes"/>
      <point x="535" y="243"/>
      <point x="628" y="203"/>
      <point x="702" y="203" type="curve" smooth="yes"/>
      <point x="706" y="203" type="line" smooth="yes"/>
      <point x="771" y="203"/>
      <point x="817" y="226"/>
      <point x="853" y="269" type="curve"/>
      <point x="851" y="234"/>
      <point x="851" y="217"/>
      <point x="851" y="175" type="curve" smooth="yes"/>
      <point x="851" y="25" type="line"/>
      <point x="581" y="25" type="line"/>
      <point x="579" y="0" type="line"/>
      <point x="877" y="0" type="line"/>
      <point x="877" y="305" type="line"/>
      <point x="851" y="305" type="line"/>
      <point x="816" y="258"/>
      <point x="777" y="228"/>
      <point x="710" y="228" type="curve" smooth="yes"/>
      <point x="701" y="228" type="line" smooth="yes"/>
      <point x="636" y="228"/>
      <point x="562" y="262"/>
      <point x="562" y="390" type="curve" smooth="yes"/>
      <point x="562" y="482"/>
      <point x="604" y="533"/>
      <point x="649" y="533" type="curve" smooth="yes"/>
      <point x="689" y="533"/>
      <point x="721" y="511"/>
      <point x="721" y="428" type="curve" smooth="yes"/>
      <point x="721" y="382"/>
      <point x="709" y="310"/>
      <point x="698" y="255" type="curve" smooth="yes"/>
      <point x="651" y="16" type="line"/>
      <point x="650" y="10" type="line"/>
      <point x="592" y="-277" type="line"/>
      <point x="618" y="-284" type="line"/>
      <point x="716" y="210" type="line"/>
      <point x="724" y="250" type="line" smooth="yes"/>
      <point x="736" y="311"/>
      <point x="747" y="380"/>
      <point x="747" y="428" type="curve" smooth="yes"/>
      <point x="747" y="519"/>
      <point x="709" y="558"/>
    </contour>
    <contour>
      <point x="173" y="-12" type="curve" smooth="yes"/>
      <point x="232" y="-12"/>
      <point x="282" y="24"/>
      <point x="282" y="154" type="curve" smooth="yes"/>
      <point x="282" y="259"/>
      <point x="235" y="312"/>
      <point x="170" y="312" type="curve" smooth="yes"/>
      <point x="126" y="312"/>
      <point x="88" y="285"/>
      <point x="58" y="247" type="curve"/>
      <point x="62" y="220" type="line"/>
      <point x="91" y="259"/>
      <point x="128" y="287"/>
      <point x="168" y="287" type="curve" smooth="yes"/>
      <point x="226" y="287"/>
      <point x="255" y="236"/>
      <point x="255" y="153" type="curve" smooth="yes"/>
      <point x="255" y="42"/>
      <point x="221" y="13"/>
      <point x="175" y="13" type="curve" smooth="yes"/>
      <point x="118" y="13"/>
      <point x="77" y="61"/>
      <point x="77" y="235" type="curve" smooth="yes"/>
      <point x="77" y="430"/>
      <point x="150" y="533"/>
      <point x="258" y="533" type="curve" smooth="yes"/>
      <point x="357" y="533"/>
      <point x="417" y="442"/>
      <point x="417" y="284" type="curve" smooth="yes"/>
      <point x="417" y="164"/>
      <point x="391" y="91"/>
      <point x="364" y="23" type="curve"/>
      <point x="369" y="0" type="line"/>
      <point x="612" y="0" type="line"/>
      <point x="612" y="25" type="line"/>
      <point x="393" y="25" type="line"/>
      <point x="416" y="80"/>
      <point x="444" y="169"/>
      <point x="444" y="287" type="curve" smooth="yes"/>
      <point x="444" y="455"/>
      <point x="374" y="558"/>
      <point x="258" y="558" type="curve" smooth="yes"/>
      <point x="137" y="558"/>
      <point x="51" y="450"/>
      <point x="51" y="234" type="curve" smooth="yes"/>
      <point x="51" y="40"/>
      <point x="106" y="-12"/>
    </contour>
  </outline>
</glyph>
<glyph name="hatamil" format="2">
  <advance width="1135"/>
  <unicode hex="0BB9"/>
  <outline>
    <contour>
      <point x="930" y="558" type="curve" smooth="yes"/>
      <point x="854" y="558"/>
      <point x="811" y="497"/>
      <point x="804" y="413" type="curve"/>
      <point x="815" y="416" type="line"/>
      <point x="810" y="505"/>
      <point x="780" y="558"/>
      <point x="717" y="558" type="curve" smooth="yes"/>
      <point x="684" y="558"/>
      <point x="662" y="546"/>
      <point x="645" y="526" type="curve" smooth="yes"/>
      <point x="620" y="496"/>
      <point x="610" y="454"/>
      <point x="610" y="377" type="curve" smooth="yes"/>
      <point x="610" y="0" type="line"/>
      <point x="636" y="0" type="line"/>
      <point x="636" y="371" type="line" smooth="yes"/>
      <point x="636" y="431"/>
      <point x="642" y="478"/>
      <point x="662" y="506" type="curve" smooth="yes"/>
      <point x="674" y="523"/>
      <point x="692" y="533"/>
      <point x="717" y="533" type="curve" smooth="yes"/>
      <point x="740" y="533"/>
      <point x="757" y="523"/>
      <point x="769" y="506" type="curve" smooth="yes"/>
      <point x="788" y="479"/>
      <point x="795" y="433"/>
      <point x="795" y="369" type="curve" smooth="yes"/>
      <point x="795" y="0" type="line"/>
      <point x="821" y="0" type="line"/>
      <point x="821" y="353" type="line" smooth="yes"/>
      <point x="821" y="430"/>
      <point x="835" y="481"/>
      <point x="867" y="510" type="curve" smooth="yes"/>
      <point x="883" y="525"/>
      <point x="903" y="533"/>
      <point x="928" y="533" type="curve" smooth="yes"/>
      <point x="1001" y="533"/>
      <point x="1053" y="455"/>
      <point x="1053" y="254" type="curve" smooth="yes"/>
      <point x="1053" y="-16"/>
      <point x="978" y="-106"/>
      <point x="789" y="-106" type="curve" smooth="yes"/>
      <point x="238" y="-106" type="line" smooth="yes"/>
      <point x="162" y="-106"/>
      <point x="126" y="-115"/>
      <point x="95" y="-140" type="curve" smooth="yes"/>
      <point x="67" y="-162"/>
      <point x="51" y="-198"/>
      <point x="51" y="-251" type="curve" smooth="yes"/>
      <point x="51" y="-277"/>
      <point x="53" y="-299"/>
      <point x="57" y="-321" type="curve"/>
      <point x="83" y="-319" type="line"/>
      <point x="79" y="-297"/>
      <point x="77" y="-279"/>
      <point x="77" y="-251" type="curve" smooth="yes"/>
      <point x="77" y="-204"/>
      <point x="90" y="-176"/>
      <point x="113" y="-158" type="curve" smooth="yes"/>
      <point x="139" y="-137"/>
      <point x="167" y="-131"/>
      <point x="238" y="-131" type="curve" smooth="yes"/>
      <point x="794" y="-131" type="line" smooth="yes"/>
      <point x="895" y="-131"/>
      <point x="963" y="-103"/>
      <point x="1009" y="-48" type="curve" smooth="yes"/>
      <point x="1063" y="17"/>
      <point x="1080" y="121"/>
      <point x="1080" y="252" type="curve" smooth="yes"/>
      <point x="1080" y="480"/>
      <point x="1012" y="558"/>
    </contour>
    <contour>
      <point x="180" y="-12" type="curve" smooth="yes"/>
      <point x="239" y="-12"/>
      <point x="289" y="24"/>
      <point x="289" y="154" type="curve" smooth="yes"/>
      <point x="289" y="259"/>
      <point x="242" y="312"/>
      <point x="177" y="312" type="curve" smooth="yes"/>
      <point x="133" y="312"/>
      <point x="95" y="285"/>
      <point x="65" y="247" type="curve"/>
      <point x="69" y="220" type="line"/>
      <point x="98" y="259"/>
      <point x="135" y="287"/>
      <point x="175" y="287" type="curve" smooth="yes"/>
      <point x="233" y="287"/>
      <point x="262" y="236"/>
      <point x="262" y="153" type="curve" smooth="yes"/>
      <point x="262" y="42"/>
      <point x="228" y="13"/>
      <point x="182" y="13" type="curve" smooth="yes"/>
      <point x="125" y="13"/>
      <point x="84" y="61"/>
      <point x="84" y="235" type="curve" smooth="yes"/>
      <point x="84" y="430"/>
      <point x="157" y="533"/>
      <point x="265" y="533" type="curve" smooth="yes"/>
      <point x="364" y="533"/>
      <point x="424" y="442"/>
      <point x="424" y="284" type="curve" smooth="yes"/>
      <point x="424" y="164"/>
      <point x="398" y="91"/>
      <point x="371" y="23" type="curve"/>
      <point x="376" y="0" type="line"/>
      <point x="626" y="0" type="line"/>
      <point x="626" y="25" type="line"/>
      <point x="400" y="25" type="line"/>
      <point x="423" y="80"/>
      <point x="451" y="169"/>
      <point x="451" y="287" type="curve" smooth="yes"/>
      <point x="451" y="455"/>
      <point x="381" y="558"/>
      <point x="265" y="558" type="curve" smooth="yes"/>
      <point x="144" y="558"/>
      <point x="58" y="450"/>
      <point x="58" y="234" type="curve" smooth="yes"/>
      <point x="58" y="40"/>
      <point x="113" y="-12"/>
    </contour>
  </outline>
</glyph>
<glyph name="aavowelsigntamil" format="2">
  <advance width="445"/>
  <unicode hex="0BBE"/>
  <outline>
    <contour>
      <point x="73" y="0" type="line"/>
      <point x="99" y="0" type="line"/>
      <point x="99" y="521" type="line"/>
      <point x="268" y="521" type="line"/>
      <point x="268" y="0" type="line"/>
      <point x="294" y="0" type="line"/>
      <point x="294" y="521" type="line"/>
      <point x="429" y="521" type="line"/>
      <point x="429" y="546" type="line"/>
      <point x="73" y="546" type="line"/>
    </contour>
  </outline>
</glyph>
<glyph name="ivowelsigntamil" format="2">
  <advance width="172"/>
  <unicode hex="0BBF"/>
  <outline>
    <contour>
      <point x="-56" y="839" type="curve" smooth="yes"/>
      <point x="-129" y="839"/>
      <point x="-202" y="785"/>
      <point x="-202" y="664" type="curve" smooth="yes"/>
      <point x="-202" y="612"/>
      <point x="-188" y="564"/>
      <point x="-175" y="526" type="curve"/>
      <point x="-148" y="526" type="line"/>
      <point x="-165" y="571"/>
      <point x="-175" y="617"/>
      <point x="-175" y="663" type="curve" smooth="yes"/>
      <point x="-175" y="762"/>
      <point x="-121" y="814"/>
      <point x="-55" y="814" type="curve" smooth="yes"/>
      <point x="-28" y="814"/>
      <point x="-7" y="806"/>
      <point x="10" y="792" type="curve" smooth="yes"/>
      <point x="69" y="743"/>
      <point x="73" y="624"/>
      <point x="73" y="512" type="curve" smooth="yes"/>
      <point x="73" y="0" type="line"/>
      <point x="99" y="0" type="line"/>
      <point x="99" y="526" type="line" smooth="yes"/>
      <point x="99" y="643"/>
      <point x="92" y="759"/>
      <point x="26" y="812" type="curve" smooth="yes"/>
      <point x="5" y="829"/>
      <point x="-21" y="839"/>
    </contour>
  </outline>
</glyph>
<glyph name="iivowelsigntamil" format="2">
  <unicode hex="0BC0"/>
  <outline>
    <contour>
      <point x="-111" y="839" type="curve" smooth="yes"/>
      <point x="-208" y="839"/>
      <point x="-284" y="759"/>
      <point x="-284" y="633" type="curve" smooth="yes"/>
      <point x="-284" y="601"/>
      <point x="-276" y="562"/>
      <point x="-267" y="537" type="curve"/>
      <point x="-242" y="540" type="line"/>
      <point x="-252" y="569"/>
      <point x="-258" y="599"/>
      <point x="-258" y="632" type="curve" smooth="yes"/>
      <point x="-258" y="723"/>
      <point x="-216" y="800"/>
      <point x="-128" y="815" type="curve"/>
      <point x="-123" y="815"/>
      <point x="-113" y="814"/>
      <point x="-103" y="814" type="curve" smooth="yes"/>
      <point x="-56" y="814"/>
      <point x="-21" y="777"/>
      <point x="-21" y="716" type="curve" smooth="yes"/>
      <point x="-21" y="660"/>
      <point x="-42" y="636"/>
      <point x="-79" y="636" type="curve" smooth="yes"/>
      <point x="-107" y="636"/>
      <point x="-137" y="649"/>
      <point x="-137" y="712" type="curve" smooth="yes"/>
      <point x="-137" y="759"/>
      <point x="-120" y="793"/>
      <point x="-98" y="823" type="curve"/>
      <point x="-121" y="826" type="line"/>
      <point x="-142" y="800"/>
      <point x="-163" y="766"/>
      <point x="-163" y="711" type="curve" smooth="yes"/>
      <point x="-163" y="644"/>
      <point x="-129" y="611"/>
      <point x="-79" y="611" type="curve" smooth="yes"/>
      <point x="-33" y="611"/>
      <point x="6" y="642"/>
      <point x="6" y="716" type="curve" smooth="yes"/>
      <point x="6" y="794"/>
      <point x="-41" y="839"/>
    </contour>
  </outline>
</glyph>
<glyph name="uvowelsigntamil" format="2">
  <advance width="340"/>
  <unicode hex="0BC1"/>
  <outline>
    <contour>
      <point x="198" y="240" type="curve" smooth="yes"/>
      <point x="257" y="240"/>
      <point x="301" y="279"/>
      <point x="301" y="377" type="curve" smooth="yes"/>
      <point x="301" y="430"/>
      <point x="286" y="472"/>
      <point x="257" y="501" type="curve" smooth="yes"/>
      <point x="228" y="530"/>
      <point x="191" y="546"/>
      <point x="116" y="546" type="curve" smooth="yes"/>
      <point x="-149" y="546" type="line"/>
      <point x="-139" y="521" type="line"/>
      <point x="118" y="521" type="line" smooth="yes"/>
      <point x="181" y="521"/>
      <point x="214" y="508"/>
      <point x="238" y="484" type="curve" smooth="yes"/>
      <point x="263" y="459"/>
      <point x="274" y="423"/>
      <point x="274" y="377" type="curve" smooth="yes"/>
      <point x="274" y="294"/>
      <point x="243" y="265"/>
      <point x="198" y="265" type="curve" smooth="yes"/>
      <point x="141" y="265"/>
      <point x="109" y="308"/>
      <point x="109" y="408" type="curve" smooth="yes"/>
      <point x="109" y="460"/>
      <point x="118" y="501"/>
      <point x="131" y="536" type="curve"/>
      <point x="107" y="544" type="line"/>
      <point x="92" y="508"/>
      <point x="82" y="464"/>
      <point x="82" y="406" type="curve" smooth="yes"/>
      <point x="82" y="298"/>
      <point x="122" y="240"/>
    </contour>
  </outline>
</glyph>
<glyph name="uuvowelsigntamil" format="2">
  <advance width="570"/>
  <unicode hex="0BC2"/>
  <outline>
    <contour>
      <point x="253" y="39" type="curve" smooth="yes"/>
      <point x="403" y="39"/>
      <point x="517" y="112"/>
      <point x="517" y="413" type="curve" smooth="yes"/>
      <point x="517" y="618"/>
      <point x="434" y="735"/>
      <point x="305" y="735" type="curve" smooth="yes"/>
      <point x="178" y="735"/>
      <point x="115" y="642"/>
      <point x="95" y="538" type="curve"/>
      <point x="95" y="530" type="line"/>
      <point x="89" y="497"/>
      <point x="87" y="462"/>
      <point x="87" y="429" type="curve" smooth="yes"/>
      <point x="87" y="306"/>
      <point x="130" y="240"/>
      <point x="203" y="240" type="curve" smooth="yes"/>
      <point x="262" y="240"/>
      <point x="306" y="279"/>
      <point x="306" y="377" type="curve" smooth="yes"/>
      <point x="306" y="430"/>
      <point x="291" y="472"/>
      <point x="262" y="501" type="curve" smooth="yes"/>
      <point x="233" y="530"/>
      <point x="196" y="546"/>
      <point x="121" y="546" type="curve" smooth="yes"/>
      <point x="-149" y="546" type="line"/>
      <point x="-139" y="521" type="line"/>
      <point x="123" y="521" type="line" smooth="yes"/>
      <point x="186" y="521"/>
      <point x="219" y="508"/>
      <point x="243" y="484" type="curve" smooth="yes"/>
      <point x="268" y="459"/>
      <point x="279" y="423"/>
      <point x="279" y="377" type="curve" smooth="yes"/>
      <point x="279" y="294"/>
      <point x="248" y="265"/>
      <point x="202" y="265" type="curve" smooth="yes"/>
      <point x="150" y="265"/>
      <point x="113" y="317"/>
      <point x="113" y="429" type="curve" smooth="yes"/>
      <point x="113" y="462"/>
      <point x="115" y="495"/>
      <point x="121" y="526" type="curve"/>
      <point x="122" y="538" type="line"/>
      <point x="140" y="627"/>
      <point x="194" y="710"/>
      <point x="303" y="710" type="curve" smooth="yes"/>
      <point x="423" y="710"/>
      <point x="490" y="596"/>
      <point x="490" y="413" type="curve" smooth="yes"/>
      <point x="490" y="128"/>
      <point x="392" y="64"/>
      <point x="252" y="64" type="curve" smooth="yes"/>
      <point x="171" y="64"/>
      <point x="110" y="84"/>
      <point x="48" y="125" type="curve"/>
      <point x="34" y="104" type="line"/>
      <point x="84" y="68"/>
      <point x="162" y="39"/>
    </contour>
  </outline>
</glyph>
<glyph name="evowelsigntamil" format="2">
  <advance width="622"/>
  <unicode hex="0BC6"/>
  <outline>
    <contour>
      <point x="265" y="-12" type="curve" smooth="yes"/>
      <point x="352" y="-12"/>
      <point x="408" y="41"/>
      <point x="408" y="159" type="curve" smooth="yes"/>
      <point x="408" y="256"/>
      <point x="368" y="318"/>
      <point x="297" y="318" type="curve" smooth="yes"/>
      <point x="226" y="318"/>
      <point x="184" y="257"/>
      <point x="184" y="167" type="curve" smooth="yes"/>
      <point x="184" y="97"/>
      <point x="206" y="47"/>
      <point x="238" y="1" type="curve"/>
      <point x="262" y="4" type="line"/>
      <point x="225" y="57"/>
      <point x="211" y="106"/>
      <point x="211" y="166" type="curve" smooth="yes"/>
      <point x="211" y="243"/>
      <point x="242" y="293"/>
      <point x="297" y="293" type="curve" smooth="yes"/>
      <point x="350" y="293"/>
      <point x="381" y="244"/>
      <point x="381" y="160" type="curve" smooth="yes"/>
      <point x="381" y="56"/>
      <point x="337" y="13"/>
      <point x="268" y="13" type="curve" smooth="yes"/>
      <point x="265" y="13"/>
      <point x="252" y="14"/>
      <point x="241" y="16" type="curve"/>
      <point x="231" y="16" type="line"/>
      <point x="121" y="50"/>
      <point x="79" y="230"/>
      <point x="79" y="381" type="curve" smooth="yes"/>
      <point x="79" y="684"/>
      <point x="226" y="814"/>
      <point x="341" y="814" type="curve" smooth="yes"/>
      <point x="397" y="814"/>
      <point x="436" y="796"/>
      <point x="463" y="767" type="curve" smooth="yes"/>
      <point x="520" y="706"/>
      <point x="523" y="592"/>
      <point x="523" y="479" type="curve" smooth="yes"/>
      <point x="523" y="0" type="line"/>
      <point x="549" y="0" type="line"/>
      <point x="549" y="494" type="line" smooth="yes"/>
      <point x="549" y="623"/>
      <point x="540" y="723"/>
      <point x="480" y="787" type="curve" smooth="yes"/>
      <point x="449" y="819"/>
      <point x="406" y="839"/>
      <point x="342" y="839" type="curve" smooth="yes"/>
      <point x="214" y="839"/>
      <point x="53" y="704"/>
      <point x="53" y="380" type="curve" smooth="yes"/>
      <point x="53" y="180"/>
      <point x="120" y="-12"/>
    </contour>
  </outline>
</glyph>
<glyph name="eevowelsigntamil" format="2">
  <advance width="507"/>
  <unicode hex="0BC7"/>
  <outline>
    <contour>
      <point x="319" y="-12" type="curve" smooth="yes"/>
      <point x="406" y="-12"/>
      <point x="469" y="36"/>
      <point x="469" y="158" type="curve" smooth="yes"/>
      <point x="469" y="265"/>
      <point x="420" y="315"/>
      <point x="360" y="315" type="curve" smooth="yes"/>
      <point x="298" y="315"/>
      <point x="249" y="267"/>
      <point x="249" y="168" type="curve" smooth="yes"/>
      <point x="249" y="98"/>
      <point x="273" y="43"/>
      <point x="303" y="-4" type="curve"/>
      <point x="328" y="3" type="line"/>
      <point x="295" y="53"/>
      <point x="276" y="108"/>
      <point x="276" y="169" type="curve" smooth="yes"/>
      <point x="276" y="253"/>
      <point x="313" y="290"/>
      <point x="360" y="290" type="curve" smooth="yes"/>
      <point x="412" y="290"/>
      <point x="442" y="239"/>
      <point x="442" y="158" type="curve" smooth="yes"/>
      <point x="442" y="52"/>
      <point x="392" y="13"/>
      <point x="324" y="13" type="curve" smooth="yes"/>
      <point x="319" y="13"/>
      <point x="312" y="13"/>
      <point x="304" y="13" type="curve"/>
      <point x="169" y="22"/>
      <point x="78" y="178"/>
      <point x="78" y="418" type="curve" smooth="yes"/>
      <point x="78" y="650"/>
      <point x="180" y="795"/>
      <point x="312" y="814" type="curve" smooth="yes"/>
      <point x="321" y="815"/>
      <point x="330" y="814"/>
      <point x="336" y="814" type="curve" smooth="yes"/>
      <point x="402" y="814"/>
      <point x="452" y="776"/>
      <point x="452" y="680" type="curve" smooth="yes"/>
      <point x="452" y="594"/>
      <point x="421" y="559"/>
      <point x="373" y="559" type="curve" smooth="yes"/>
      <point x="323" y="559"/>
      <point x="291" y="591"/>
      <point x="291" y="669" type="curve" smooth="yes"/>
      <point x="291" y="735"/>
      <point x="311" y="785"/>
      <point x="340" y="830" type="curve"/>
      <point x="316" y="834" type="line"/>
      <point x="284" y="790"/>
      <point x="264" y="737"/>
      <point x="264" y="669" type="curve" smooth="yes"/>
      <point x="264" y="572"/>
      <point x="312" y="534"/>
      <point x="374" y="534" type="curve" smooth="yes"/>
      <point x="427" y="534"/>
      <point x="479" y="570"/>
      <point x="479" y="681" type="curve" smooth="yes"/>
      <point x="479" y="794"/>
      <point x="414" y="839"/>
      <point x="332" y="839" type="curve" smooth="yes"/>
      <point x="193" y="839"/>
      <point x="51" y="698"/>
      <point x="51" y="418" type="curve" smooth="yes"/>
      <point x="51" y="144"/>
      <point x="164" y="-12"/>
    </contour>
  </outline>
</glyph>
<glyph name="aivowelsigntamil" format="2">
  <advance width="797"/>
  <unicode hex="0BC8"/>
  <outline>
    <contour>
      <point x="173" y="-12" type="curve" smooth="yes"/>
      <point x="232" y="-12"/>
      <point x="282" y="22"/>
      <point x="282" y="154" type="curve" smooth="yes"/>
      <point x="282" y="259"/>
      <point x="235" y="312"/>
      <point x="170" y="312" type="curve" smooth="yes"/>
      <point x="120" y="312"/>
      <point x="88" y="285"/>
      <point x="58" y="247" type="curve"/>
      <point x="62" y="220" type="line"/>
      <point x="91" y="259"/>
      <point x="126" y="287"/>
      <point x="168" y="287" type="curve" smooth="yes"/>
      <point x="226" y="287"/>
      <point x="255" y="236"/>
      <point x="255" y="153" type="curve" smooth="yes"/>
      <point x="255" y="42"/>
      <point x="221" y="13"/>
      <point x="175" y="13" type="curve" smooth="yes"/>
      <point x="118" y="13"/>
      <point x="77" y="61"/>
      <point x="77" y="229" type="curve" smooth="yes"/>
      <point x="77" y="233"/>
      <point x="77" y="241"/>
      <point x="77" y="244" type="curve"/>
      <point x="77" y="412"/>
      <point x="162" y="533"/>
      <point x="280" y="533" type="curve" smooth="yes"/>
      <point x="352" y="533"/>
      <point x="404" y="500"/>
      <point x="439" y="453" type="curve"/>
      <point x="500" y="372"/>
      <point x="521" y="263"/>
      <point x="521" y="170" type="curve" smooth="yes"/>
      <point x="521" y="58"/>
      <point x="501" y="13"/>
      <point x="449" y="13" type="curve" smooth="yes"/>
      <point x="402" y="13"/>
      <point x="375" y="52"/>
      <point x="375" y="172" type="curve" smooth="yes"/>
      <point x="375" y="273"/>
      <point x="399" y="388"/>
      <point x="446" y="460" type="curve"/>
      <point x="474" y="502"/>
      <point x="515" y="533"/>
      <point x="563" y="533" type="curve" smooth="yes"/>
      <point x="664" y="533"/>
      <point x="715" y="439"/>
      <point x="715" y="284" type="curve" smooth="yes"/>
      <point x="715" y="164"/>
      <point x="690" y="82"/>
      <point x="651" y="4" type="curve"/>
      <point x="676" y="-10" type="line"/>
      <point x="709" y="61"/>
      <point x="742" y="149"/>
      <point x="742" y="287" type="curve" smooth="yes"/>
      <point x="742" y="455"/>
      <point x="678" y="558"/>
      <point x="565" y="558" type="curve" smooth="yes"/>
      <point x="510" y="558"/>
      <point x="469" y="531"/>
      <point x="433" y="486" type="curve"/>
      <point x="427" y="477" type="line"/>
      <point x="376" y="403"/>
      <point x="348" y="292"/>
      <point x="348" y="172" type="curve" smooth="yes"/>
      <point x="348" y="47"/>
      <point x="382" y="-12"/>
      <point x="448" y="-12" type="curve" smooth="yes"/>
      <point x="508" y="-12"/>
      <point x="548" y="30"/>
      <point x="548" y="170" type="curve" smooth="yes"/>
      <point x="548" y="280"/>
      <point x="523" y="390"/>
      <point x="452" y="475" type="curve"/>
      <point x="445" y="483" type="line"/>
      <point x="412" y="521"/>
      <point x="362" y="558"/>
      <point x="282" y="558" type="curve" smooth="yes"/>
      <point x="146" y="558"/>
      <point x="51" y="432"/>
      <point x="51" y="234" type="curve" smooth="yes"/>
      <point x="51" y="40"/>
      <point x="106" y="-12"/>
    </contour>
  </outline>
</glyph>
<glyph name="viramatamil" format="2">
  <unicode hex="0BCD"/>
  <outline>
    <contour>
      <point x="-277" y="696" type="curve" smooth="yes"/>
      <point x="-257" y="696"/>
      <point x="-243" y="709"/>
      <point x="-243" y="734" type="curve" smooth="yes"/>
      <point x="-243" y="759"/>
      <point x="-257" y="772"/>
      <point x="-277" y="772" type="curve" smooth="yes"/>
      <point x="-297" y="772"/>
      <point x="-311" y="759"/>
      <point x="-311" y="734" type="curve" smooth="yes"/>
      <point x="-311" y="709"/>
      <point x="-297" y="696"/>
    </contour>
  </outline>
</glyph>
<glyph name="ohmsigntamil" format="2">
  <advance width="805"/>
  <unicode hex="0BD0"/>
  <outline>
    <contour>
      <point x="399" y="558" type="curve" smooth="yes"/>
      <point x="300" y="558"/>
      <point x="212" y="536"/>
      <point x="150" y="489" type="curve" smooth="yes"/>
      <point x="85" y="440"/>
      <point x="47" y="368"/>
      <point x="47" y="267" type="curve" smooth="yes"/>
      <point x="47" y="119"/>
      <point x="99" y="73"/>
      <point x="163" y="73" type="curve" smooth="yes"/>
      <point x="222" y="73"/>
      <point x="267" y="111"/>
      <point x="267" y="229" type="curve" smooth="yes"/>
      <point x="267" y="329"/>
      <point x="221" y="378"/>
      <point x="158" y="378" type="curve" smooth="yes"/>
      <point x="125" y="378"/>
      <point x="90" y="357"/>
      <point x="60" y="324" type="curve"/>
      <point x="64" y="300" type="line"/>
      <point x="93" y="333"/>
      <point x="124" y="353"/>
      <point x="157" y="353" type="curve" smooth="yes"/>
      <point x="203" y="353"/>
      <point x="240" y="321"/>
      <point x="240" y="228" type="curve" smooth="yes"/>
      <point x="240" y="125"/>
      <point x="206" y="98"/>
      <point x="163" y="98" type="curve" smooth="yes"/>
      <point x="105" y="98"/>
      <point x="74" y="150"/>
      <point x="74" y="268" type="curve" smooth="yes"/>
      <point x="74" y="287"/>
      <point x="76" y="313"/>
      <point x="80" y="333" type="curve"/>
      <point x="104" y="439"/>
      <point x="193" y="533"/>
      <point x="398" y="533" type="curve" smooth="yes"/>
      <point x="592" y="533"/>
      <point x="732" y="423"/>
      <point x="732" y="246" type="curve" smooth="yes"/>
      <point x="732" y="154"/>
      <point x="702" y="111"/>
      <point x="653" y="111" type="curve" smooth="yes"/>
      <point x="595" y="111"/>
      <point x="581" y="156"/>
      <point x="581" y="209" type="curve" smooth="yes"/>
      <point x="581" y="257"/>
      <point x="591" y="288"/>
      <point x="609" y="328" type="curve"/>
      <point x="582" y="345" type="line"/>
      <point x="503" y="316"/>
      <point x="432" y="252"/>
      <point x="432" y="134" type="curve" smooth="yes"/>
      <point x="432" y="11"/>
      <point x="511" y="-58"/>
      <point x="625" y="-77" type="curve" smooth="yes"/>
      <point x="643" y="-80"/>
      <point x="664" y="-83"/>
      <point x="694" y="-83" type="curve" smooth="yes"/>
      <point x="724" y="-83" type="line"/>
      <point x="724" y="-59" type="line"/>
      <point x="702" y="-59" type="line" smooth="yes"/>
      <point x="613" y="-59"/>
      <point x="554" y="-40"/>
      <point x="512" y="0" type="curve" smooth="yes"/>
      <point x="479" y="31"/>
      <point x="459" y="75"/>
      <point x="459" y="134" type="curve" smooth="yes"/>
      <point x="459" y="236"/>
      <point x="514" y="297"/>
      <point x="598" y="326" type="curve"/>
      <point x="583" y="330" type="line"/>
      <point x="563" y="295"/>
      <point x="554" y="253"/>
      <point x="554" y="208" type="curve" smooth="yes"/>
      <point x="554" y="130"/>
      <point x="588" y="86"/>
      <point x="653" y="86" type="curve" smooth="yes"/>
      <point x="720" y="86"/>
      <point x="758" y="144"/>
      <point x="758" y="246" type="curve" smooth="yes"/>
      <point x="758" y="359"/>
      <point x="708" y="440"/>
      <point x="633" y="492" type="curve" smooth="yes"/>
      <point x="569" y="536"/>
      <point x="488" y="558"/>
    </contour>
    <contour>
      <point x="48" y="-138" type="curve" smooth="yes"/>
      <point x="48" y="-266"/>
      <point x="129" y="-321"/>
      <point x="265" y="-321" type="curve" smooth="yes"/>
      <point x="273" y="-321" type="line" smooth="yes"/>
      <point x="435" y="-321"/>
      <point x="534" y="-221"/>
      <point x="589" y="-99" type="curve" smooth="yes"/>
      <point x="606" y="-61" type="line"/>
      <point x="581" y="-54" type="line"/>
      <point x="513" y="-205"/>
      <point x="431" y="-296"/>
      <point x="269" y="-296" type="curve" smooth="yes"/>
      <point x="142" y="-296"/>
      <point x="75" y="-253"/>
      <point x="75" y="-138" type="curve" smooth="yes"/>
      <point x="75" y="-88"/>
      <point x="89" y="-44"/>
      <point x="112" y="2" type="curve"/>
      <point x="88" y="13" type="line"/>
      <point x="62" y="-41"/>
      <point x="48" y="-89"/>
    </contour>
    <contour>
      <point x="345" y="28" type="curve" smooth="yes"/>
      <point x="329" y="28"/>
      <point x="317" y="23"/>
      <point x="309" y="15" type="curve" smooth="yes"/>
      <point x="297" y="3"/>
      <point x="293" y="-15"/>
      <point x="293" y="-39" type="curve" smooth="yes"/>
      <point x="293" y="-183" type="line"/>
      <point x="214" y="-183" type="line"/>
      <point x="214" y="21" type="line"/>
      <point x="189" y="21" type="line"/>
      <point x="189" y="-207" type="line"/>
      <point x="321" y="-207" type="line" smooth="yes"/>
      <point x="363" y="-207"/>
      <point x="385" y="-198"/>
      <point x="400" y="-180" type="curve" smooth="yes"/>
      <point x="416" y="-161"/>
      <point x="422" y="-132"/>
      <point x="422" y="-96" type="curve" smooth="yes"/>
      <point x="422" y="-60"/>
      <point x="414" y="-21"/>
      <point x="393" y="4" type="curve" smooth="yes"/>
      <point x="381" y="18"/>
      <point x="365" y="28"/>
    </contour>
    <contour>
      <point x="344" y="4" type="curve" smooth="yes"/>
      <point x="373" y="4"/>
      <point x="396" y="-30"/>
      <point x="396" y="-96" type="curve" smooth="yes"/>
      <point x="396" y="-166"/>
      <point x="374" y="-183"/>
      <point x="328" y="-183" type="curve" smooth="yes"/>
      <point x="318" y="-183" type="line"/>
      <point x="318" y="-35" type="line" smooth="yes"/>
      <point x="318" y="-10"/>
      <point x="327" y="4"/>
    </contour>
    <contour>
      <point x="337" y="84" type="curve" smooth="yes"/>
      <point x="356" y="84"/>
      <point x="364" y="98"/>
      <point x="364" y="119" type="curve" smooth="yes"/>
      <point x="364" y="140"/>
      <point x="356" y="154"/>
      <point x="337" y="154" type="curve" smooth="yes"/>
      <point x="318" y="154"/>
      <point x="310" y="140"/>
      <point x="310" y="119" type="curve" smooth="yes"/>
      <point x="310" y="98"/>
      <point x="318" y="84"/>
    </contour>
  </outline>
</glyph>
<glyph name="zerotamil" format="2">
  <advance width="458"/>
  <unicode hex="0BE6"/>
  <outline>
    <contour>
      <point x="230" y="-12" type="curve" smooth="yes"/>
      <point x="337" y="-12"/>
      <point x="406" y="81"/>
      <point x="406" y="273" type="curve" smooth="yes"/>
      <point x="406" y="465"/>
      <point x="337" y="558"/>
      <point x="230" y="558" type="curve" smooth="yes"/>
      <point x="123" y="558"/>
      <point x="52" y="466"/>
      <point x="52" y="274" type="curve" smooth="yes"/>
      <point x="52" y="82"/>
      <point x="123" y="-12"/>
    </contour>
    <contour>
      <point x="230" y="533" type="curve" smooth="yes"/>
      <point x="325" y="533"/>
      <point x="379" y="443"/>
      <point x="379" y="273" type="curve" smooth="yes"/>
      <point x="379" y="103"/>
      <point x="325" y="13"/>
      <point x="230" y="13" type="curve" smooth="yes"/>
      <point x="135" y="13"/>
      <point x="79" y="104"/>
      <point x="79" y="274" type="curve" smooth="yes"/>
      <point x="79" y="444"/>
      <point x="135" y="533"/>
    </contour>
  </outline>
</glyph>
<glyph name="twotamil" format="2">
  <advance width="734"/>
  <unicode hex="0BE8"/>
  <outline>
    <contour>
      <point x="209" y="558" type="curve" smooth="yes"/>
      <point x="108" y="558"/>
      <point x="47" y="484"/>
      <point x="47" y="384" type="curve" smooth="yes"/>
      <point x="47" y="282"/>
      <point x="94" y="215"/>
      <point x="176" y="145" type="curve"/>
      <point x="191" y="164" type="line"/>
      <point x="121" y="224"/>
      <point x="74" y="290"/>
      <point x="74" y="383" type="curve" smooth="yes"/>
      <point x="74" y="471"/>
      <point x="122" y="533"/>
      <point x="209" y="533" type="curve" smooth="yes"/>
      <point x="294" y="533"/>
      <point x="369" y="467"/>
      <point x="369" y="349" type="curve" smooth="yes"/>
      <point x="369" y="245"/>
      <point x="331" y="192"/>
      <point x="212" y="173" type="curve" smooth="yes"/>
      <point x="149" y="163" type="line" smooth="yes"/>
      <point x="89" y="154"/>
      <point x="42" y="128"/>
      <point x="42" y="74" type="curve" smooth="yes"/>
      <point x="42" y="31"/>
      <point x="67" y="0"/>
      <point x="139" y="0" type="curve" smooth="yes"/>
      <point x="718" y="0" type="line"/>
      <point x="718" y="25" type="line"/>
      <point x="142" y="25" type="line" smooth="yes"/>
      <point x="82" y="25"/>
      <point x="69" y="44"/>
      <point x="69" y="74" type="curve" smooth="yes"/>
      <point x="69" y="107"/>
      <point x="93" y="129"/>
      <point x="150" y="138" type="curve" smooth="yes"/>
      <point x="213" y="148" type="line" smooth="yes"/>
      <point x="316" y="164"/>
      <point x="396" y="204"/>
      <point x="396" y="349" type="curve" smooth="yes"/>
      <point x="396" y="468"/>
      <point x="322" y="558"/>
    </contour>
  </outline>
</glyph>
<glyph name="threetamil" format="2">
  <advance width="700"/>
  <unicode hex="0BE9"/>
  <outline>
    <contour>
      <point x="73" y="0" type="line"/>
      <point x="99" y="0" type="line"/>
      <point x="99" y="521" type="line"/>
      <point x="252" y="521" type="line"/>
      <point x="252" y="128" type="line"/>
      <point x="278" y="128" type="line"/>
      <point x="278" y="294" type="line"/>
      <point x="308" y="316"/>
      <point x="337" y="331"/>
      <point x="373" y="331" type="curve" smooth="yes"/>
      <point x="437" y="331"/>
      <point x="463" y="279"/>
      <point x="463" y="213" type="curve" smooth="yes"/>
      <point x="463" y="143"/>
      <point x="434" y="84"/>
      <point x="394" y="25" type="curve"/>
      <point x="252" y="25" type="line"/>
      <point x="252" y="0" type="line"/>
      <point x="684" y="0" type="line"/>
      <point x="684" y="25" type="line"/>
      <point x="424" y="25" type="line"/>
      <point x="459" y="76"/>
      <point x="490" y="133"/>
      <point x="490" y="214" type="curve" smooth="yes"/>
      <point x="490" y="299"/>
      <point x="447" y="356"/>
      <point x="374" y="356" type="curve" smooth="yes"/>
      <point x="335" y="356"/>
      <point x="302" y="338"/>
      <point x="278" y="322" type="curve"/>
      <point x="278" y="521" type="line"/>
      <point x="420" y="521" type="line"/>
      <point x="420" y="546" type="line"/>
      <point x="73" y="546" type="line"/>
    </contour>
  </outline>
</glyph>
<glyph name="fourtamil" format="2">
  <advance width="652"/>
  <unicode hex="0BEA"/>
  <outline>
    <contour>
      <point x="177" y="-12" type="curve" smooth="yes"/>
      <point x="228" y="-12"/>
      <point x="263" y="6"/>
      <point x="286" y="36" type="curve" smooth="yes"/>
      <point x="312" y="71"/>
      <point x="321" y="115"/>
      <point x="321" y="180" type="curve" smooth="yes"/>
      <point x="321" y="521" type="line"/>
      <point x="462" y="521" type="line"/>
      <point x="462" y="546" type="line"/>
      <point x="119" y="546" type="line"/>
      <point x="119" y="276" type="line"/>
      <point x="145" y="284" type="line"/>
      <point x="145" y="521" type="line"/>
      <point x="295" y="521" type="line"/>
      <point x="295" y="181" type="line" smooth="yes"/>
      <point x="295" y="56"/>
      <point x="252" y="13"/>
      <point x="176" y="13" type="curve" smooth="yes"/>
      <point x="107" y="13"/>
      <point x="71" y="61"/>
      <point x="71" y="146" type="curve" smooth="yes"/>
      <point x="71" y="193"/>
      <point x="86" y="229"/>
      <point x="113" y="252" type="curve" smooth="yes"/>
      <point x="140" y="275"/>
      <point x="176" y="287"/>
      <point x="242" y="287" type="curve" smooth="yes"/>
      <point x="489" y="287" type="line"/>
      <point x="489" y="312" type="line"/>
      <point x="241" y="312" type="line" smooth="yes"/>
      <point x="103" y="312"/>
      <point x="44" y="246"/>
      <point x="44" y="145" type="curve" smooth="yes"/>
      <point x="44" y="49"/>
      <point x="90" y="-12"/>
    </contour>
    <contour>
      <point x="468" y="287" type="line"/>
      <point x="589" y="287" type="line"/>
      <point x="589" y="546" type="line"/>
      <point x="563" y="546" type="line"/>
      <point x="563" y="312" type="line"/>
      <point x="468" y="312" type="line"/>
    </contour>
  </outline>
</glyph>
<glyph name="fivetamil" format="2">
  <advance width="740"/>
  <unicode hex="0BEB"/>
  <outline>
    <contour>
      <point x="391" y="-321" type="curve" smooth="yes"/>
      <point x="398" y="-321" type="line" smooth="yes"/>
      <point x="584" y="-321"/>
      <point x="696" y="-204"/>
      <point x="696" y="65" type="curve" smooth="yes"/>
      <point x="696" y="235"/>
      <point x="640" y="299"/>
      <point x="565" y="299" type="curve" smooth="yes"/>
      <point x="532" y="299"/>
      <point x="502" y="286"/>
      <point x="471" y="262" type="curve"/>
      <point x="473" y="235" type="line"/>
      <point x="499" y="260"/>
      <point x="529" y="274"/>
      <point x="562" y="274" type="curve" smooth="yes"/>
      <point x="628" y="274"/>
      <point x="669" y="217"/>
      <point x="669" y="64" type="curve" smooth="yes"/>
      <point x="669" y="-197"/>
      <point x="563" y="-296"/>
      <point x="398" y="-296" type="curve" smooth="yes"/>
      <point x="392" y="-296" type="line" smooth="yes"/>
      <point x="195" y="-296"/>
      <point x="88" y="-146"/>
      <point x="88" y="226" type="curve" smooth="yes"/>
      <point x="88" y="243" type="line" smooth="yes"/>
      <point x="88" y="615"/>
      <point x="215" y="814"/>
      <point x="440" y="814" type="curve" smooth="yes"/>
      <point x="543" y="814"/>
      <point x="602" y="790"/>
      <point x="680" y="743" type="curve"/>
      <point x="693" y="766" type="line"/>
      <point x="603" y="821"/>
      <point x="528" y="839"/>
      <point x="443" y="839" type="curve" smooth="yes"/>
      <point x="200" y="839"/>
      <point x="62" y="633"/>
      <point x="62" y="253" type="curve" smooth="yes"/>
      <point x="62" y="209" type="line" smooth="yes"/>
      <point x="62" y="-170"/>
      <point x="186" y="-321"/>
    </contour>
    <contour>
      <point x="275" y="0" type="line"/>
      <point x="301" y="0" type="line"/>
      <point x="301" y="521" type="line"/>
      <point x="457" y="521" type="line"/>
      <point x="457" y="0" type="line"/>
      <point x="483" y="0" type="line"/>
      <point x="483" y="521" type="line"/>
      <point x="618" y="521" type="line"/>
      <point x="618" y="546" type="line"/>
      <point x="275" y="546" type="line"/>
    </contour>
  </outline>
</glyph>
<glyph name="sixtamil" format="2">
  <advance width="714"/>
  <unicode hex="0BEC"/>
  <outline>
    <contour>
      <point x="177" y="-12" type="curve" smooth="yes"/>
      <point x="228" y="-12"/>
      <point x="263" y="6"/>
      <point x="286" y="36" type="curve" smooth="yes"/>
      <point x="312" y="71"/>
      <point x="321" y="115"/>
      <point x="321" y="180" type="curve" smooth="yes"/>
      <point x="321" y="521" type="line"/>
      <point x="463" y="521" type="line"/>
      <point x="463" y="546" type="line"/>
      <point x="119" y="546" type="line"/>
      <point x="119" y="276" type="line"/>
      <point x="145" y="284" type="line"/>
      <point x="145" y="521" type="line"/>
      <point x="295" y="521" type="line"/>
      <point x="295" y="181" type="line" smooth="yes"/>
      <point x="295" y="56"/>
      <point x="252" y="13"/>
      <point x="176" y="13" type="curve" smooth="yes"/>
      <point x="107" y="13"/>
      <point x="71" y="61"/>
      <point x="71" y="146" type="curve" smooth="yes"/>
      <point x="71" y="193"/>
      <point x="86" y="229"/>
      <point x="113" y="252" type="curve" smooth="yes"/>
      <point x="140" y="275"/>
      <point x="176" y="287"/>
      <point x="242" y="287" type="curve" smooth="yes"/>
      <point x="691" y="287" type="line"/>
      <point x="691" y="312" type="line"/>
      <point x="241" y="312" type="line" smooth="yes"/>
      <point x="103" y="312"/>
      <point x="44" y="246"/>
      <point x="44" y="145" type="curve" smooth="yes"/>
      <point x="44" y="49"/>
      <point x="90" y="-12"/>
    </contour>
    <contour>
      <point x="437" y="0" type="line"/>
      <point x="463" y="0" type="line"/>
      <point x="463" y="292" type="line"/>
      <point x="437" y="295" type="line"/>
    </contour>
    <contour>
      <point x="583" y="0" type="line"/>
      <point x="609" y="0" type="line"/>
      <point x="609" y="292" type="line"/>
      <point x="583" y="295" type="line"/>
    </contour>
  </outline>
</glyph>
<glyph name="eighttamil" format="2">
  <advance width="775"/>
  <unicode hex="0BEE"/>
  <outline>
    <contour>
      <point x="228" y="-96" type="curve" smooth="yes"/>
      <point x="235" y="-96" type="line"/>
      <point x="390" y="-96"/>
      <point x="506" y="-8"/>
      <point x="540" y="151" type="curve"/>
      <point x="543" y="163" type="line"/>
      <point x="549" y="193"/>
      <point x="553" y="225"/>
      <point x="553" y="261" type="curve" smooth="yes"/>
      <point x="553" y="433"/>
      <point x="493" y="558"/>
      <point x="362" y="558" type="curve" smooth="yes"/>
      <point x="280" y="558"/>
      <point x="213" y="493"/>
      <point x="213" y="384" type="curve" smooth="yes"/>
      <point x="213" y="285"/>
      <point x="265" y="213"/>
      <point x="327" y="151" type="curve"/>
      <point x="355" y="156" type="line"/>
      <point x="303" y="205"/>
      <point x="240" y="284"/>
      <point x="240" y="381" type="curve" smooth="yes"/>
      <point x="240" y="490"/>
      <point x="303" y="533"/>
      <point x="362" y="533" type="curve" smooth="yes"/>
      <point x="476" y="533"/>
      <point x="526" y="420"/>
      <point x="526" y="261" type="curve" smooth="yes"/>
      <point x="526" y="224"/>
      <point x="522" y="192"/>
      <point x="516" y="163" type="curve"/>
      <point x="513" y="150" type="line"/>
      <point x="478" y="0"/>
      <point x="371" y="-71"/>
      <point x="234" y="-71" type="curve" smooth="yes"/>
      <point x="228" y="-71" type="line" smooth="yes"/>
      <point x="114" y="-71"/>
      <point x="52" y="-14"/>
      <point x="52" y="66" type="curve" smooth="yes"/>
      <point x="52" y="93"/>
      <point x="60" y="114"/>
      <point x="77" y="127" type="curve" smooth="yes"/>
      <point x="92" y="139"/>
      <point x="113" y="144"/>
      <point x="163" y="144" type="curve" smooth="yes"/>
      <point x="693" y="144" type="line"/>
      <point x="688" y="169" type="line"/>
      <point x="160" y="169" type="line" smooth="yes"/>
      <point x="103" y="169"/>
      <point x="75" y="160"/>
      <point x="54" y="141" type="curve" smooth="yes"/>
      <point x="33" y="122"/>
      <point x="25" y="95"/>
      <point x="25" y="68" type="curve" smooth="yes"/>
      <point x="25" y="-30"/>
      <point x="102" y="-96"/>
    </contour>
    <contour>
      <point x="676" y="-154" type="line"/>
      <point x="702" y="-154" type="line"/>
      <point x="702" y="546" type="line"/>
      <point x="676" y="546" type="line"/>
    </contour>
  </outline>
</glyph>
<glyph name="ninetamil" format="2">
  <advance width="790"/>
  <unicode hex="0BEF"/>
  <outline>
    <contour>
      <point x="177" y="-12" type="curve" smooth="yes"/>
      <point x="228" y="-12"/>
      <point x="263" y="6"/>
      <point x="286" y="36" type="curve" smooth="yes"/>
      <point x="312" y="71"/>
      <point x="321" y="115"/>
      <point x="321" y="180" type="curve" smooth="yes"/>
      <point x="321" y="521" type="line"/>
      <point x="463" y="521" type="line"/>
      <point x="463" y="546" type="line"/>
      <point x="119" y="546" type="line"/>
      <point x="119" y="276" type="line"/>
      <point x="145" y="284" type="line"/>
      <point x="145" y="521" type="line"/>
      <point x="295" y="521" type="line"/>
      <point x="295" y="181" type="line" smooth="yes"/>
      <point x="295" y="56"/>
      <point x="252" y="13"/>
      <point x="176" y="13" type="curve" smooth="yes"/>
      <point x="107" y="13"/>
      <point x="71" y="61"/>
      <point x="71" y="146" type="curve" smooth="yes"/>
      <point x="71" y="193"/>
      <point x="86" y="229"/>
      <point x="113" y="252" type="curve" smooth="yes"/>
      <point x="140" y="275"/>
      <point x="176" y="287"/>
      <point x="242" y="287" type="curve" smooth="yes"/>
      <point x="413" y="287" type="line"/>
      <point x="413" y="312" type="line"/>
      <point x="241" y="312" type="line" smooth="yes"/>
      <point x="103" y="312"/>
      <point x="44" y="246"/>
      <point x="44" y="145" type="curve" smooth="yes"/>
      <point x="44" y="49"/>
      <point x="90" y="-12"/>
    </contour>
    <contour>
      <point x="507" y="-12" type="curve" smooth="yes"/>
      <point x="566" y="-12"/>
      <point x="605" y="25"/>
      <point x="605" y="130" type="curve" smooth="yes"/>
      <point x="605" y="236"/>
      <point x="552" y="295"/>
      <point x="473" y="307" type="curve"/>
      <point x="466" y="310" type="line"/>
      <point x="454" y="311"/>
      <point x="443" y="312"/>
      <point x="430" y="312" type="curve" smooth="yes"/>
      <point x="370" y="312" type="line"/>
      <point x="370" y="287" type="line"/>
      <point x="429" y="287" type="line" smooth="yes"/>
      <point x="532" y="287"/>
      <point x="578" y="227"/>
      <point x="578" y="132" type="curve" smooth="yes"/>
      <point x="578" y="40"/>
      <point x="552" y="13"/>
      <point x="507" y="13" type="curve" smooth="yes"/>
      <point x="461" y="13"/>
      <point x="430" y="52"/>
      <point x="430" y="145" type="curve" smooth="yes"/>
      <point x="430" y="194"/>
      <point x="445" y="251"/>
      <point x="472" y="291" type="curve" smooth="yes"/>
      <point x="476" y="297" type="line" smooth="yes"/>
      <point x="501" y="332"/>
      <point x="536" y="355"/>
      <point x="590" y="355" type="curve" smooth="yes"/>
      <point x="662" y="355"/>
      <point x="717" y="299"/>
      <point x="717" y="195" type="curve" smooth="yes"/>
      <point x="717" y="118"/>
      <point x="697" y="59"/>
      <point x="666" y="3" type="curve"/>
      <point x="690" y="-9" type="line"/>
      <point x="719" y="47"/>
      <point x="744" y="111"/>
      <point x="744" y="194" type="curve" smooth="yes"/>
      <point x="744" y="315"/>
      <point x="679" y="380"/>
      <point x="590" y="380" type="curve" smooth="yes"/>
      <point x="523" y="380"/>
      <point x="479" y="347"/>
      <point x="449" y="303" type="curve"/>
      <point x="446" y="297" type="line" smooth="yes"/>
      <point x="419" y="252"/>
      <point x="404" y="196"/>
      <point x="404" y="145" type="curve" smooth="yes"/>
      <point x="404" y="34"/>
      <point x="447" y="-12"/>
    </contour>
  </outline>
</glyph>
<glyph name="tentamil" format="2">
  <advance width="601"/>
  <unicode hex="0BF0"/>
  <outline>
    <contour>
      <point x="178" y="-12" type="curve" smooth="yes"/>
      <point x="241" y="-12"/>
      <point x="271" y="41"/>
      <point x="276" y="130" type="curve"/>
      <point x="265" y="133" type="line"/>
      <point x="272" y="49"/>
      <point x="315" y="-12"/>
      <point x="390" y="-12" type="curve" smooth="yes"/>
      <point x="476" y="-12"/>
      <point x="540" y="46"/>
      <point x="540" y="359" type="curve" smooth="yes"/>
      <point x="540" y="406" type="line" smooth="yes"/>
      <point x="540" y="594"/>
      <point x="506" y="712"/>
      <point x="450" y="780" type="curve" smooth="yes"/>
      <point x="415" y="822"/>
      <point x="371" y="839"/>
      <point x="321" y="839" type="curve" smooth="yes"/>
      <point x="278" y="839"/>
      <point x="238" y="831"/>
      <point x="197" y="812" type="curve"/>
      <point x="206" y="787" type="line"/>
      <point x="240" y="804"/>
      <point x="276" y="814"/>
      <point x="322" y="814" type="curve" smooth="yes"/>
      <point x="432" y="814"/>
      <point x="514" y="702"/>
      <point x="514" y="384" type="curve" smooth="yes"/>
      <point x="514" y="77"/>
      <point x="467" y="13"/>
      <point x="391" y="13" type="curve" smooth="yes"/>
      <point x="364" y="13"/>
      <point x="344" y="21"/>
      <point x="328" y="36" type="curve" smooth="yes"/>
      <point x="296" y="65"/>
      <point x="282" y="116"/>
      <point x="282" y="193" type="curve" smooth="yes"/>
      <point x="282" y="546" type="line"/>
      <point x="256" y="546" type="line"/>
      <point x="256" y="177" type="line" smooth="yes"/>
      <point x="256" y="113"/>
      <point x="249" y="67"/>
      <point x="230" y="40" type="curve" smooth="yes"/>
      <point x="218" y="23"/>
      <point x="201" y="13"/>
      <point x="178" y="13" type="curve" smooth="yes"/>
      <point x="153" y="13"/>
      <point x="135" y="23"/>
      <point x="123" y="40" type="curve"/>
      <point x="103" y="68"/>
      <point x="97" y="115"/>
      <point x="97" y="175" type="curve" smooth="yes"/>
      <point x="97" y="546" type="line"/>
      <point x="71" y="546" type="line"/>
      <point x="71" y="169" type="line" smooth="yes"/>
      <point x="71" y="92"/>
      <point x="81" y="50"/>
      <point x="106" y="20" type="curve" smooth="yes"/>
      <point x="123" y="0"/>
      <point x="145" y="-12"/>
    </contour>
  </outline>
</glyph>
<glyph name="hundredtamil" format="2">
  <advance width="618"/>
  <unicode hex="0BF1"/>
  <outline>
    <contour>
      <point x="259" y="0" type="line"/>
      <point x="285" y="0" type="line"/>
      <point x="285" y="521" type="line"/>
      <point x="441" y="521" type="line"/>
      <point x="441" y="0" type="line"/>
      <point x="467" y="0" type="line"/>
      <point x="467" y="521" type="line"/>
      <point x="602" y="521" type="line"/>
      <point x="602" y="546" type="line"/>
      <point x="259" y="546" type="line"/>
    </contour>
    <contour>
      <point x="181" y="556" type="curve" smooth="yes"/>
      <point x="147" y="556"/>
      <point x="124" y="545"/>
      <point x="108" y="528" type="curve"/>
      <point x="77" y="493"/>
      <point x="72" y="450"/>
      <point x="72" y="370" type="curve" smooth="yes"/>
      <point x="72" y="0" type="line"/>
      <point x="98" y="0" type="line"/>
      <point x="98" y="364" type="line" smooth="yes"/>
      <point x="98" y="431"/>
      <point x="101" y="476"/>
      <point x="122" y="504" type="curve" smooth="yes"/>
      <point x="134" y="521"/>
      <point x="153" y="531"/>
      <point x="181" y="531" type="curve" smooth="yes"/>
      <point x="218" y="531"/>
      <point x="246" y="512"/>
      <point x="273" y="468" type="curve"/>
      <point x="275" y="503" type="line"/>
      <point x="257" y="530"/>
      <point x="226" y="556"/>
    </contour>
  </outline>
</glyph>
<glyph name="thousandtamil" format="2">
  <advance width="670"/>
  <unicode hex="0BF2"/>
  <outline>
    <contour>
      <point x="546" y="166" type="curve" smooth="yes"/>
      <point x="509" y="166"/>
      <point x="482" y="149"/>
      <point x="458" y="134" type="curve"/>
      <point x="467" y="113" type="line"/>
      <point x="490" y="129"/>
      <point x="515" y="141"/>
      <point x="546" y="141" type="curve" smooth="yes"/>
      <point x="596" y="141"/>
      <point x="624" y="103"/>
      <point x="624" y="35" type="curve" smooth="yes"/>
      <point x="624" y="-23"/>
      <point x="611" y="-59"/>
      <point x="584" y="-80" type="curve" smooth="yes"/>
      <point x="558" y="-100"/>
      <point x="523" y="-106"/>
      <point x="455" y="-106" type="curve" smooth="yes"/>
      <point x="229" y="-106" type="line" smooth="yes"/>
      <point x="153" y="-106"/>
      <point x="117" y="-115"/>
      <point x="86" y="-140" type="curve" smooth="yes"/>
      <point x="58" y="-162"/>
      <point x="42" y="-198"/>
      <point x="42" y="-251" type="curve" smooth="yes"/>
      <point x="42" y="-277"/>
      <point x="44" y="-299"/>
      <point x="48" y="-321" type="curve"/>
      <point x="74" y="-319" type="line"/>
      <point x="70" y="-297"/>
      <point x="68" y="-279"/>
      <point x="68" y="-251" type="curve" smooth="yes"/>
      <point x="68" y="-204"/>
      <point x="81" y="-176"/>
      <point x="104" y="-158" type="curve" smooth="yes"/>
      <point x="130" y="-137"/>
      <point x="158" y="-131"/>
      <point x="229" y="-131" type="curve" smooth="yes"/>
      <point x="459" y="-131" type="line" smooth="yes"/>
      <point x="529" y="-131"/>
      <point x="570" y="-123"/>
      <point x="602" y="-98" type="curve" smooth="yes"/>
      <point x="634" y="-73"/>
      <point x="651" y="-31"/>
      <point x="651" y="35" type="curve" smooth="yes"/>
      <point x="651" y="114"/>
      <point x="614" y="166"/>
    </contour>
    <contour>
      <point x="177" y="-12" type="curve" smooth="yes"/>
      <point x="228" y="-12"/>
      <point x="263" y="6"/>
      <point x="286" y="36" type="curve" smooth="yes"/>
      <point x="312" y="71"/>
      <point x="321" y="115"/>
      <point x="321" y="180" type="curve" smooth="yes"/>
      <point x="321" y="521" type="line"/>
      <point x="463" y="521" type="line"/>
      <point x="463" y="546" type="line"/>
      <point x="119" y="546" type="line"/>
      <point x="119" y="276" type="line"/>
      <point x="145" y="284" type="line"/>
      <point x="145" y="521" type="line"/>
      <point x="295" y="521" type="line"/>
      <point x="295" y="181" type="line" smooth="yes"/>
      <point x="295" y="56"/>
      <point x="252" y="13"/>
      <point x="176" y="13" type="curve" smooth="yes"/>
      <point x="107" y="13"/>
      <point x="71" y="61"/>
      <point x="71" y="146" type="curve" smooth="yes"/>
      <point x="71" y="193"/>
      <point x="86" y="229"/>
      <point x="113" y="252" type="curve" smooth="yes"/>
      <point x="140" y="275"/>
      <point x="176" y="287"/>
      <point x="242" y="287" type="curve" smooth="yes"/>
      <point x="583" y="287" type="line"/>
      <point x="583" y="312" type="line"/>
      <point x="241" y="312" type="line" smooth="yes"/>
      <point x="103" y="312"/>
      <point x="44" y="246"/>
      <point x="44" y="145" type="curve" smooth="yes"/>
      <point x="44" y="49"/>
      <point x="90" y="-12"/>
    </contour>
    <contour>
      <point x="447" y="0" type="line"/>
      <point x="473" y="0" type="line"/>
      <point x="473" y="292" type="line"/>
      <point x="447" y="295" type="line"/>
    </contour>
  </outline>
</glyph>
<glyph name="monthsigntamil" format="2">
  <advance width="881"/>
  <unicode hex="0BF4"/>
  <outline>
    <contour>
      <point x="399" y="558" type="curve" smooth="yes"/>
      <point x="375" y="558"/>
      <point x="357" y="552"/>
      <point x="342" y="542" type="curve" smooth="yes"/>
      <point x="302" y="514"/>
      <point x="291" y="464"/>
      <point x="291" y="380" type="curve" smooth="yes"/>
      <point x="291" y="25" type="line"/>
      <point x="98" y="25" type="line"/>
      <point x="98" y="546" type="line"/>
      <point x="72" y="546" type="line"/>
      <point x="72" y="0" type="line"/>
      <point x="350" y="0" type="line" smooth="yes"/>
      <point x="421" y="0"/>
      <point x="458" y="20"/>
      <point x="484" y="50" type="curve" smooth="yes"/>
      <point x="530" y="102"/>
      <point x="538" y="183"/>
      <point x="538" y="263" type="curve" smooth="yes"/>
      <point x="538" y="446"/>
      <point x="490" y="558"/>
    </contour>
    <contour>
      <point x="399" y="533" type="curve" smooth="yes"/>
      <point x="478" y="533"/>
      <point x="511" y="409"/>
      <point x="511" y="264" type="curve" smooth="yes"/>
      <point x="511" y="97"/>
      <point x="470" y="25"/>
      <point x="351" y="25" type="curve" smooth="yes"/>
      <point x="317" y="25" type="line"/>
      <point x="317" y="377" type="line" smooth="yes"/>
      <point x="317" y="438"/>
      <point x="322" y="496"/>
      <point x="355" y="520" type="curve" smooth="yes"/>
      <point x="366" y="528"/>
      <point x="381" y="533"/>
    </contour>
    <contour>
      <point x="593" y="497" type="curve" smooth="yes"/>
      <point x="636" y="497"/>
      <point x="666" y="523"/>
      <point x="666" y="593" type="curve" smooth="yes"/>
      <point x="666" y="626"/>
      <point x="656" y="650"/>
      <point x="638" y="667" type="curve" smooth="yes"/>
      <point x="621" y="684"/>
      <point x="598" y="694"/>
      <point x="561" y="694" type="curve" smooth="yes"/>
      <point x="559" y="694" type="line" smooth="yes"/>
      <point x="505" y="694"/>
      <point x="421" y="675"/>
      <point x="420" y="544" type="curve"/>
      <point x="446" y="536" type="line"/>
      <point x="446" y="550" type="line" smooth="yes"/>
      <point x="446" y="617"/>
      <point x="480" y="669"/>
      <point x="548" y="669" type="curve" smooth="yes"/>
      <point x="559" y="669" type="line" smooth="yes"/>
      <point x="591" y="669"/>
      <point x="609" y="661"/>
      <point x="621" y="647" type="curve" smooth="yes"/>
      <point x="632" y="634"/>
      <point x="639" y="618"/>
      <point x="639" y="592" type="curve" smooth="yes"/>
      <point x="639" y="547"/>
      <point x="627" y="522"/>
      <point x="595" y="522" type="curve" smooth="yes"/>
      <point x="554" y="522"/>
      <point x="542" y="571"/>
      <point x="542" y="633" type="curve" smooth="yes"/>
      <point x="542" y="655"/>
      <point x="544" y="670"/>
      <point x="545" y="683" type="curve"/>
      <point x="555" y="770"/>
      <point x="597" y="814"/>
      <point x="651" y="814" type="curve" smooth="yes"/>
      <point x="718" y="814"/>
      <point x="754" y="761"/>
      <point x="754" y="671" type="curve" smooth="yes"/>
      <point x="754" y="614"/>
      <point x="740" y="570"/>
      <point x="719" y="523" type="curve"/>
      <point x="719" y="500" type="line"/>
      <point x="867" y="500" type="line"/>
      <point x="867" y="525" type="line"/>
      <point x="735" y="525" type="line"/>
      <point x="741" y="510" type="line"/>
      <point x="766" y="560"/>
      <point x="781" y="614"/>
      <point x="781" y="673" type="curve" smooth="yes"/>
      <point x="781" y="781"/>
      <point x="728" y="839"/>
      <point x="652" y="839" type="curve" smooth="yes"/>
      <point x="581" y="839"/>
      <point x="529" y="782"/>
      <point x="519" y="685" type="curve"/>
      <point x="517" y="673"/>
      <point x="516" y="656"/>
      <point x="516" y="633" type="curve" smooth="yes"/>
      <point x="516" y="529"/>
      <point x="552" y="497"/>
    </contour>
  </outline>
</glyph>
<glyph name="yearsigntamil" format="2">
  <advance width="1537"/>
  <unicode hex="0BF5"/>
  <outline>
    <contour>
      <point x="649" y="814" type="curve" smooth="yes"/>
      <point x="853" y="814"/>
      <point x="1001" y="773"/>
      <point x="1096" y="675" type="curve" smooth="yes"/>
      <point x="1182" y="586"/>
      <point x="1220" y="457"/>
      <point x="1222" y="242" type="curve" smooth="yes"/>
      <point x="1223" y="141"/>
      <point x="1232" y="53"/>
      <point x="1281" y="12" type="curve" smooth="yes"/>
      <point x="1298" y="-3"/>
      <point x="1322" y="-12"/>
      <point x="1350" y="-12" type="curve" smooth="yes"/>
      <point x="1431" y="-12"/>
      <point x="1482" y="49"/>
      <point x="1482" y="235" type="curve" smooth="yes"/>
      <point x="1482" y="377"/>
      <point x="1434" y="492"/>
      <point x="1368" y="573" type="curve"/>
      <point x="1347" y="557" type="line"/>
      <point x="1402" y="487"/>
      <point x="1455" y="392"/>
      <point x="1455" y="235" type="curve" smooth="yes"/>
      <point x="1455" y="63"/>
      <point x="1414" y="13"/>
      <point x="1351" y="13" type="curve" smooth="yes"/>
      <point x="1328" y="13"/>
      <point x="1311" y="20"/>
      <point x="1297" y="32" type="curve" smooth="yes"/>
      <point x="1256" y="68"/>
      <point x="1249" y="144"/>
      <point x="1248" y="256" type="curve" smooth="yes"/>
      <point x="1246" y="465"/>
      <point x="1207" y="596"/>
      <point x="1117" y="691" type="curve" smooth="yes"/>
      <point x="1021" y="793"/>
      <point x="861" y="839"/>
      <point x="677" y="839" type="curve" smooth="yes"/>
      <point x="644" y="839" type="line" smooth="yes"/>
      <point x="232" y="839"/>
      <point x="55" y="589"/>
      <point x="55" y="278" type="curve" smooth="yes"/>
      <point x="55" y="258" type="line" smooth="yes"/>
      <point x="55" y="45"/>
      <point x="130" y="-321"/>
      <point x="634" y="-321" type="curve" smooth="yes"/>
      <point x="638" y="-321" type="line" smooth="yes"/>
      <point x="946" y="-321"/>
      <point x="1136" y="-167"/>
      <point x="1136" y="106" type="curve" smooth="yes"/>
      <point x="1136" y="225"/>
      <point x="1094" y="303"/>
      <point x="1014" y="303" type="curve" smooth="yes"/>
      <point x="987" y="303"/>
      <point x="965" y="292"/>
      <point x="947" y="278" type="curve"/>
      <point x="947" y="521" type="line"/>
      <point x="1080" y="521" type="line"/>
      <point x="1080" y="546" type="line"/>
      <point x="746" y="546" type="line"/>
      <point x="746" y="0" type="line"/>
      <point x="772" y="0" type="line"/>
      <point x="772" y="521" type="line"/>
      <point x="921" y="521" type="line"/>
      <point x="921" y="0" type="line"/>
      <point x="947" y="0" type="line"/>
      <point x="947" y="251" type="line"/>
      <point x="968" y="269"/>
      <point x="990" y="278"/>
      <point x="1012" y="278" type="curve" smooth="yes"/>
      <point x="1081" y="278"/>
      <point x="1109" y="205"/>
      <point x="1109" y="105" type="curve" smooth="yes"/>
      <point x="1109" y="-157"/>
      <point x="927" y="-296"/>
      <point x="638" y="-296" type="curve" smooth="yes"/>
      <point x="634" y="-296" type="line" smooth="yes"/>
      <point x="142" y="-296"/>
      <point x="82" y="64"/>
      <point x="82" y="259" type="curve" smooth="yes"/>
      <point x="82" y="274" type="line" smooth="yes"/>
      <point x="82" y="574"/>
      <point x="242" y="814"/>
    </contour>
    <contour>
      <point x="346" y="-12" type="curve" smooth="yes"/>
      <point x="405" y="-12"/>
      <point x="455" y="24"/>
      <point x="455" y="154" type="curve" smooth="yes"/>
      <point x="455" y="259"/>
      <point x="408" y="312"/>
      <point x="343" y="312" type="curve" smooth="yes"/>
      <point x="299" y="312"/>
      <point x="261" y="285"/>
      <point x="231" y="247" type="curve"/>
      <point x="235" y="220" type="line"/>
      <point x="264" y="259"/>
      <point x="301" y="287"/>
      <point x="341" y="287" type="curve" smooth="yes"/>
      <point x="399" y="287"/>
      <point x="428" y="236"/>
      <point x="428" y="153" type="curve" smooth="yes"/>
      <point x="428" y="42"/>
      <point x="394" y="13"/>
      <point x="348" y="13" type="curve" smooth="yes"/>
      <point x="291" y="13"/>
      <point x="250" y="61"/>
      <point x="250" y="235" type="curve" smooth="yes"/>
      <point x="250" y="430"/>
      <point x="323" y="533"/>
      <point x="431" y="533" type="curve" smooth="yes"/>
      <point x="530" y="533"/>
      <point x="590" y="442"/>
      <point x="590" y="284" type="curve" smooth="yes"/>
      <point x="590" y="164"/>
      <point x="564" y="91"/>
      <point x="537" y="23" type="curve"/>
      <point x="542" y="0" type="line"/>
      <point x="758" y="0" type="line"/>
      <point x="758" y="25" type="line"/>
      <point x="566" y="25" type="line"/>
      <point x="589" y="80"/>
      <point x="617" y="169"/>
      <point x="617" y="287" type="curve" smooth="yes"/>
      <point x="617" y="455"/>
      <point x="547" y="558"/>
      <point x="431" y="558" type="curve" smooth="yes"/>
      <point x="310" y="558"/>
      <point x="224" y="450"/>
      <point x="224" y="234" type="curve" smooth="yes"/>
      <point x="224" y="40"/>
      <point x="279" y="-12"/>
    </contour>
  </outline>
</glyph>
<glyph name="debitsigntamil" format="2">
  <advance width="599"/>
  <unicode hex="0BF6"/>
  <outline>
    <contour>
      <point x="177" y="-321" type="curve" smooth="yes"/>
      <point x="300" y="-321"/>
      <point x="342" y="-227"/>
      <point x="349" y="-124" type="curve"/>
      <point x="349" y="-114" type="line" smooth="yes"/>
      <point x="350" y="-104"/>
      <point x="350" y="-95"/>
      <point x="350" y="-85" type="curve" smooth="yes"/>
      <point x="350" y="39" type="line"/>
      <point x="324" y="-10" type="line"/>
      <point x="324" y="-81" type="line" smooth="yes"/>
      <point x="324" y="-92"/>
      <point x="324" y="-104"/>
      <point x="323" y="-115" type="curve" smooth="yes"/>
      <point x="323" y="-123" type="line"/>
      <point x="316" y="-216"/>
      <point x="282" y="-296"/>
      <point x="178" y="-296" type="curve" smooth="yes"/>
      <point x="101" y="-296"/>
      <point x="60" y="-256"/>
      <point x="60" y="-192" type="curve" smooth="yes"/>
      <point x="60" y="-144"/>
      <point x="85" y="-131"/>
      <point x="137" y="-131" type="curve" smooth="yes"/>
      <point x="326" y="-131" type="line"/>
      <point x="340" y="-131" type="line"/>
      <point x="526" y="-131" type="line"/>
      <point x="526" y="320" type="line"/>
      <point x="500" y="320" type="line"/>
      <point x="500" y="-106" type="line"/>
      <point x="143" y="-106" type="line" smooth="yes"/>
      <point x="95" y="-106"/>
      <point x="67" y="-115"/>
      <point x="49" y="-137" type="curve" smooth="yes"/>
      <point x="39" y="-149"/>
      <point x="34" y="-164"/>
      <point x="34" y="-190" type="curve" smooth="yes"/>
      <point x="34" y="-274"/>
      <point x="92" y="-321"/>
    </contour>
    <contour>
      <point x="246" y="-10" type="curve" smooth="yes"/>
      <point x="291" y="-10"/>
      <point x="322" y="16"/>
      <point x="340" y="43" type="curve"/>
      <point x="338" y="79" type="line"/>
      <point x="311" y="34"/>
      <point x="283" y="15"/>
      <point x="246" y="15" type="curve" smooth="yes"/>
      <point x="218" y="15"/>
      <point x="199" y="25"/>
      <point x="187" y="42" type="curve" smooth="yes"/>
      <point x="166" y="70"/>
      <point x="163" y="115"/>
      <point x="163" y="182" type="curve" smooth="yes"/>
      <point x="163" y="546" type="line"/>
      <point x="137" y="546" type="line"/>
      <point x="137" y="176" type="line" smooth="yes"/>
      <point x="137" y="96"/>
      <point x="142" y="53"/>
      <point x="173" y="18" type="curve" smooth="yes"/>
      <point x="189" y="1"/>
      <point x="212" y="-10"/>
    </contour>
    <contour>
      <point x="350" y="546" type="line"/>
      <point x="324" y="546" type="line"/>
      <point x="324" y="-30" type="line"/>
      <point x="350" y="29" type="line"/>
    </contour>
  </outline>
</glyph>
<glyph name="creditsigntamil" format="2">
  <advance width="948"/>
  <unicode hex="0BF7"/>
  <outline>
    <contour>
      <point x="173" y="-12" type="curve" smooth="yes"/>
      <point x="232" y="-12"/>
      <point x="282" y="22"/>
      <point x="282" y="154" type="curve" smooth="yes"/>
      <point x="282" y="259"/>
      <point x="235" y="312"/>
      <point x="170" y="312" type="curve" smooth="yes"/>
      <point x="126" y="312"/>
      <point x="88" y="285"/>
      <point x="58" y="247" type="curve"/>
      <point x="62" y="220" type="line"/>
      <point x="91" y="259"/>
      <point x="128" y="287"/>
      <point x="168" y="287" type="curve" smooth="yes"/>
      <point x="226" y="287"/>
      <point x="255" y="236"/>
      <point x="255" y="153" type="curve" smooth="yes"/>
      <point x="255" y="42"/>
      <point x="221" y="13"/>
      <point x="175" y="13" type="curve" smooth="yes"/>
      <point x="118" y="13"/>
      <point x="77" y="61"/>
      <point x="77" y="233" type="curve" smooth="yes"/>
      <point x="77" y="335"/>
      <point x="100" y="414"/>
      <point x="155" y="463" type="curve" smooth="yes"/>
      <point x="197" y="501"/>
      <point x="256" y="521"/>
      <point x="343" y="521" type="curve" smooth="yes"/>
      <point x="371" y="521" type="line"/>
      <point x="372" y="546" type="line"/>
      <point x="357" y="546" type="line" smooth="yes"/>
      <point x="246" y="546"/>
      <point x="179" y="522"/>
      <point x="133" y="477" type="curve" smooth="yes"/>
      <point x="77" y="423"/>
      <point x="51" y="339"/>
      <point x="51" y="234" type="curve" smooth="yes"/>
      <point x="51" y="40"/>
      <point x="106" y="-12"/>
    </contour>
    <contour>
      <point x="372" y="0" type="line"/>
      <point x="398" y="0" type="line"/>
      <point x="398" y="521" type="line"/>
      <point x="535" y="521" type="line"/>
      <point x="535" y="546" type="line"/>
      <point x="368" y="546" type="line"/>
      <point x="367" y="521" type="line"/>
      <point x="372" y="521" type="line"/>
    </contour>
    <contour>
      <point x="558" y="-3" type="curve" smooth="yes"/>
      <point x="601" y="-3"/>
      <point x="631" y="23"/>
      <point x="631" y="93" type="curve" smooth="yes"/>
      <point x="631" y="126"/>
      <point x="621" y="150"/>
      <point x="603" y="167" type="curve" smooth="yes"/>
      <point x="586" y="184"/>
      <point x="563" y="194"/>
      <point x="526" y="194" type="curve" smooth="yes"/>
      <point x="387" y="194" type="line"/>
      <point x="386" y="169" type="line"/>
      <point x="524" y="169" type="line" smooth="yes"/>
      <point x="556" y="169"/>
      <point x="574" y="161"/>
      <point x="586" y="147" type="curve" smooth="yes"/>
      <point x="597" y="134"/>
      <point x="604" y="118"/>
      <point x="604" y="92" type="curve" smooth="yes"/>
      <point x="604" y="47"/>
      <point x="592" y="22"/>
      <point x="560" y="22" type="curve" smooth="yes"/>
      <point x="519" y="22"/>
      <point x="507" y="71"/>
      <point x="507" y="133" type="curve" smooth="yes"/>
      <point x="507" y="155"/>
      <point x="509" y="170"/>
      <point x="510" y="183" type="curve" smooth="yes"/>
      <point x="520" y="270"/>
      <point x="562" y="314"/>
      <point x="616" y="314" type="curve" smooth="yes"/>
      <point x="683" y="314"/>
      <point x="719" y="261"/>
      <point x="719" y="171" type="curve" smooth="yes"/>
      <point x="719" y="114"/>
      <point x="705" y="70"/>
      <point x="684" y="23" type="curve"/>
      <point x="684" y="0" type="line"/>
      <point x="867" y="0" type="line"/>
      <point x="867" y="25" type="line"/>
      <point x="700" y="25" type="line"/>
      <point x="706" y="10" type="line"/>
      <point x="731" y="60"/>
      <point x="746" y="114"/>
      <point x="746" y="173" type="curve" smooth="yes"/>
      <point x="746" y="281"/>
      <point x="693" y="339"/>
      <point x="617" y="339" type="curve" smooth="yes"/>
      <point x="546" y="339"/>
      <point x="494" y="282"/>
      <point x="484" y="185" type="curve"/>
      <point x="482" y="173"/>
      <point x="481" y="156"/>
      <point x="481" y="133" type="curve" smooth="yes"/>
      <point x="481" y="29"/>
      <point x="517" y="-3"/>
    </contour>
    <contour>
      <point x="858" y="0" type="line"/>
      <point x="884" y="0" type="line"/>
      <point x="884" y="329" type="line"/>
      <point x="858" y="329" type="line"/>
    </contour>
  </outline>
</glyph>
<glyph name="asabovesigntamil" format="2">
  <advance width="1365"/>
  <unicode hex="0BF8"/>
  <outline>
    <contour>
      <point x="263" y="-12" type="curve" smooth="yes"/>
      <point x="350" y="-12"/>
      <point x="406" y="41"/>
      <point x="406" y="159" type="curve" smooth="yes"/>
      <point x="406" y="256"/>
      <point x="366" y="318"/>
      <point x="295" y="318" type="curve" smooth="yes"/>
      <point x="224" y="318"/>
      <point x="182" y="257"/>
      <point x="182" y="167" type="curve" smooth="yes"/>
      <point x="182" y="97"/>
      <point x="204" y="47"/>
      <point x="236" y="1" type="curve"/>
      <point x="260" y="4" type="line"/>
      <point x="223" y="57"/>
      <point x="209" y="106"/>
      <point x="209" y="166" type="curve" smooth="yes"/>
      <point x="209" y="243"/>
      <point x="240" y="293"/>
      <point x="295" y="293" type="curve" smooth="yes"/>
      <point x="348" y="293"/>
      <point x="379" y="244"/>
      <point x="379" y="160" type="curve" smooth="yes"/>
      <point x="379" y="56"/>
      <point x="335" y="13"/>
      <point x="266" y="13" type="curve" smooth="yes"/>
      <point x="263" y="13"/>
      <point x="250" y="14"/>
      <point x="239" y="16" type="curve"/>
      <point x="229" y="16" type="line"/>
      <point x="119" y="50"/>
      <point x="77" y="230"/>
      <point x="77" y="381" type="curve" smooth="yes"/>
      <point x="77" y="666"/>
      <point x="227" y="814"/>
      <point x="384" y="814" type="curve" smooth="yes"/>
      <point x="542" y="814"/>
      <point x="621" y="691"/>
      <point x="660" y="548" type="curve" smooth="yes"/>
      <point x="662" y="541" type="line" smooth="yes"/>
      <point x="682" y="469"/>
      <point x="689" y="389"/>
      <point x="689" y="311" type="curve" smooth="yes"/>
      <point x="689" y="218"/>
      <point x="674" y="136"/>
      <point x="598" y="136" type="curve" smooth="yes"/>
      <point x="539" y="136"/>
      <point x="514" y="199"/>
      <point x="514" y="287" type="curve" smooth="yes"/>
      <point x="514" y="419"/>
      <point x="574" y="518"/>
      <point x="666" y="532" type="curve"/>
      <point x="690" y="533" type="line"/>
      <point x="784" y="533"/>
      <point x="841" y="442"/>
      <point x="841" y="284" type="curve" smooth="yes"/>
      <point x="841" y="164"/>
      <point x="815" y="91"/>
      <point x="788" y="23" type="curve"/>
      <point x="793" y="0" type="line"/>
      <point x="1036" y="0" type="line"/>
      <point x="1039" y="25" type="line"/>
      <point x="817" y="25" type="line"/>
      <point x="840" y="80"/>
      <point x="868" y="169"/>
      <point x="868" y="287" type="curve" smooth="yes"/>
      <point x="868" y="461"/>
      <point x="798" y="558"/>
      <point x="684" y="558" type="curve" smooth="yes"/>
      <point x="674" y="558"/>
      <point x="669" y="558"/>
      <point x="660" y="556" type="curve" smooth="yes"/>
      <point x="535" y="535"/>
      <point x="487" y="396"/>
      <point x="487" y="287" type="curve" smooth="yes"/>
      <point x="487" y="172"/>
      <point x="530" y="111"/>
      <point x="598" y="111" type="curve" smooth="yes"/>
      <point x="675" y="111"/>
      <point x="716" y="172"/>
      <point x="716" y="311" type="curve" smooth="yes"/>
      <point x="716" y="387"/>
      <point x="708" y="466"/>
      <point x="688" y="541" type="curve" smooth="yes"/>
      <point x="685" y="552" type="line" smooth="yes"/>
      <point x="643" y="709"/>
      <point x="558" y="839"/>
      <point x="381" y="839" type="curve" smooth="yes"/>
      <point x="207" y="839"/>
      <point x="51" y="675"/>
      <point x="51" y="380" type="curve" smooth="yes"/>
      <point x="51" y="180"/>
      <point x="118" y="-12"/>
    </contour>
    <contour>
      <point x="1073" y="558" type="curve" smooth="yes"/>
      <point x="1011" y="558"/>
      <point x="959" y="495"/>
      <point x="959" y="390" type="curve" smooth="yes"/>
      <point x="959" y="243"/>
      <point x="1052" y="203"/>
      <point x="1126" y="203" type="curve" smooth="yes"/>
      <point x="1130" y="203" type="line" smooth="yes"/>
      <point x="1195" y="203"/>
      <point x="1241" y="226"/>
      <point x="1277" y="269" type="curve"/>
      <point x="1275" y="234"/>
      <point x="1275" y="217"/>
      <point x="1275" y="175" type="curve" smooth="yes"/>
      <point x="1275" y="25" type="line"/>
      <point x="1005" y="25" type="line"/>
      <point x="1003" y="0" type="line"/>
      <point x="1301" y="0" type="line"/>
      <point x="1301" y="305" type="line"/>
      <point x="1275" y="305" type="line"/>
      <point x="1240" y="258"/>
      <point x="1201" y="228"/>
      <point x="1134" y="228" type="curve" smooth="yes"/>
      <point x="1125" y="228" type="line" smooth="yes"/>
      <point x="1060" y="228"/>
      <point x="986" y="262"/>
      <point x="986" y="390" type="curve" smooth="yes"/>
      <point x="986" y="482"/>
      <point x="1028" y="533"/>
      <point x="1073" y="533" type="curve" smooth="yes"/>
      <point x="1113" y="533"/>
      <point x="1145" y="511"/>
      <point x="1145" y="428" type="curve" smooth="yes"/>
      <point x="1145" y="382"/>
      <point x="1133" y="310"/>
      <point x="1122" y="255" type="curve" smooth="yes"/>
      <point x="1075" y="16" type="line"/>
      <point x="1074" y="10" type="line"/>
      <point x="1018" y="-277" type="line"/>
      <point x="1042" y="-284" type="line"/>
      <point x="1140" y="210" type="line"/>
      <point x="1148" y="250" type="line" smooth="yes"/>
      <point x="1160" y="311"/>
      <point x="1171" y="380"/>
      <point x="1171" y="428" type="curve" smooth="yes"/>
      <point x="1171" y="519"/>
      <point x="1133" y="558"/>
    </contour>
  </outline>
</glyph>
<glyph name="rupeesigntamil" format="2">
  <advance width="740"/>
  <unicode hex="0BF9"/>
  <outline>
    <contour>
      <point x="565" y="288" type="curve" smooth="yes"/>
      <point x="532" y="288"/>
      <point x="502" y="275"/>
      <point x="471" y="251" type="curve"/>
      <point x="473" y="224" type="line"/>
      <point x="499" y="249"/>
      <point x="529" y="263"/>
      <point x="562" y="263" type="curve" smooth="yes"/>
      <point x="627" y="263"/>
      <point x="669" y="209"/>
      <point x="669" y="53" type="curve" smooth="yes"/>
      <point x="669" y="-197"/>
      <point x="563" y="-296"/>
      <point x="398" y="-296" type="curve" smooth="yes"/>
      <point x="392" y="-296" type="line" smooth="yes"/>
      <point x="195" y="-296"/>
      <point x="88" y="-147"/>
      <point x="88" y="174" type="curve" smooth="yes"/>
      <point x="88" y="193" type="line" smooth="yes"/>
      <point x="88" y="439"/>
      <point x="178" y="626"/>
      <point x="284" y="693" type="curve"/>
      <point x="285" y="720" type="line"/>
      <point x="175" y="662"/>
      <point x="62" y="485"/>
      <point x="62" y="195" type="curve" smooth="yes"/>
      <point x="62" y="168" type="line" smooth="yes"/>
      <point x="62" y="-170"/>
      <point x="186" y="-321"/>
      <point x="391" y="-321" type="curve" smooth="yes"/>
      <point x="398" y="-321" type="line" smooth="yes"/>
      <point x="584" y="-321"/>
      <point x="696" y="-205"/>
      <point x="696" y="55" type="curve" smooth="yes"/>
      <point x="696" y="226"/>
      <point x="640" y="288"/>
    </contour>
    <contour>
      <point x="275" y="0" type="line"/>
      <point x="301" y="0" type="line"/>
      <point x="301" y="499" type="line"/>
      <point x="457" y="499" type="line"/>
      <point x="457" y="0" type="line"/>
      <point x="483" y="0" type="line"/>
      <point x="483" y="499" type="line"/>
      <point x="618" y="499" type="line"/>
      <point x="618" y="524" type="line"/>
      <point x="275" y="524" type="line"/>
    </contour>
    <contour>
      <point x="346" y="567" type="curve" smooth="yes"/>
      <point x="397" y="567"/>
      <point x="415" y="612"/>
      <point x="415" y="653" type="curve" smooth="yes"/>
      <point x="415" y="715"/>
      <point x="379" y="736"/>
      <point x="345" y="736" type="curve" smooth="yes"/>
      <point x="323" y="736"/>
      <point x="304" y="729"/>
      <point x="294" y="722" type="curve"/>
      <point x="291" y="695" type="line"/>
      <point x="307" y="706"/>
      <point x="323" y="712"/>
      <point x="342" y="712" type="curve" smooth="yes"/>
      <point x="375" y="712"/>
      <point x="388" y="688"/>
      <point x="388" y="653" type="curve" smooth="yes"/>
      <point x="388" y="609"/>
      <point x="370" y="592"/>
      <point x="346" y="592" type="curve" smooth="yes"/>
      <point x="316" y="592"/>
      <point x="297" y="615"/>
      <point x="297" y="686" type="curve" smooth="yes"/>
      <point x="297" y="697"/>
      <point x="298" y="704"/>
      <point x="298" y="710" type="curve"/>
      <point x="298" y="718" type="line"/>
      <point x="312" y="786"/>
      <point x="353" y="814"/>
      <point x="399" y="814" type="curve" smooth="yes"/>
      <point x="463" y="814"/>
      <point x="494" y="770"/>
      <point x="494" y="704" type="curve" smooth="yes"/>
      <point x="494" y="656"/>
      <point x="480" y="623"/>
      <point x="462" y="588" type="curve"/>
      <point x="462" y="572" type="line"/>
      <point x="618" y="572" type="line"/>
      <point x="618" y="597" type="line"/>
      <point x="482" y="597" type="line"/>
      <point x="491" y="589" type="line"/>
      <point x="509" y="624"/>
      <point x="521" y="663"/>
      <point x="521" y="705" type="curve" smooth="yes"/>
      <point x="521" y="781"/>
      <point x="480" y="839"/>
      <point x="399" y="839" type="curve" smooth="yes"/>
      <point x="335" y="839"/>
      <point x="271" y="789"/>
      <point x="271" y="688" type="curve" smooth="yes"/>
      <point x="271" y="615"/>
      <point x="292" y="567"/>
    </contour>
  </outline>
</glyph>
<glyph name="numsigntamil" format="2">
  <advance width="851"/>
  <unicode hex="0BFA"/>
  <outline>
    <contour>
      <point x="377" y="356" type="curve" smooth="yes"/>
      <point x="336" y="356"/>
      <point x="306" y="340"/>
      <point x="277" y="319" type="curve"/>
      <point x="277" y="290" type="line"/>
      <point x="312" y="319"/>
      <point x="343" y="331"/>
      <point x="374" y="331" type="curve" smooth="yes"/>
      <point x="442" y="331"/>
      <point x="480" y="269"/>
      <point x="480" y="138" type="curve" smooth="yes"/>
      <point x="480" y="36"/>
      <point x="463" y="-25"/>
      <point x="426" y="-61" type="curve" smooth="yes"/>
      <point x="391" y="-95"/>
      <point x="347" y="-106"/>
      <point x="258" y="-106" type="curve" smooth="yes"/>
      <point x="229" y="-106" type="line" smooth="yes"/>
      <point x="153" y="-106"/>
      <point x="117" y="-115"/>
      <point x="86" y="-140" type="curve" smooth="yes"/>
      <point x="58" y="-162"/>
      <point x="42" y="-198"/>
      <point x="42" y="-251" type="curve" smooth="yes"/>
      <point x="42" y="-277"/>
      <point x="44" y="-299"/>
      <point x="48" y="-321" type="curve"/>
      <point x="74" y="-319" type="line"/>
      <point x="70" y="-297"/>
      <point x="68" y="-279"/>
      <point x="68" y="-251" type="curve" smooth="yes"/>
      <point x="68" y="-204"/>
      <point x="81" y="-176"/>
      <point x="104" y="-158" type="curve" smooth="yes"/>
      <point x="130" y="-137"/>
      <point x="158" y="-131"/>
      <point x="229" y="-131" type="curve" smooth="yes"/>
      <point x="254" y="-131" type="line" smooth="yes"/>
      <point x="350" y="-131"/>
      <point x="401" y="-120"/>
      <point x="444" y="-79" type="curve" smooth="yes"/>
      <point x="486" y="-39"/>
      <point x="507" y="29"/>
      <point x="507" y="138" type="curve" smooth="yes"/>
      <point x="507" y="282"/>
      <point x="457" y="356"/>
    </contour>
    <contour>
      <point x="73" y="0" type="line"/>
      <point x="99" y="0" type="line"/>
      <point x="99" y="521" type="line"/>
      <point x="255" y="521" type="line"/>
      <point x="255" y="0" type="line"/>
      <point x="281" y="0" type="line"/>
      <point x="281" y="521" type="line"/>
      <point x="416" y="521" type="line"/>
      <point x="416" y="546" type="line"/>
      <point x="73" y="546" type="line"/>
    </contour>
    <contour>
      <point x="563" y="497" type="curve" smooth="yes"/>
      <point x="606" y="497"/>
      <point x="636" y="523"/>
      <point x="636" y="593" type="curve" smooth="yes"/>
      <point x="636" y="626"/>
      <point x="626" y="650"/>
      <point x="608" y="667" type="curve" smooth="yes"/>
      <point x="591" y="684"/>
      <point x="568" y="694"/>
      <point x="531" y="694" type="curve" smooth="yes"/>
      <point x="528" y="694" type="line" smooth="yes"/>
      <point x="475" y="694"/>
      <point x="391" y="675"/>
      <point x="390" y="544" type="curve"/>
      <point x="416" y="536" type="line"/>
      <point x="416" y="550" type="line" smooth="yes"/>
      <point x="416" y="617"/>
      <point x="450" y="669"/>
      <point x="518" y="669" type="curve" smooth="yes"/>
      <point x="529" y="669" type="line" smooth="yes"/>
      <point x="561" y="669"/>
      <point x="579" y="661"/>
      <point x="591" y="647" type="curve" smooth="yes"/>
      <point x="602" y="634"/>
      <point x="609" y="618"/>
      <point x="609" y="592" type="curve" smooth="yes"/>
      <point x="609" y="547"/>
      <point x="597" y="522"/>
      <point x="565" y="522" type="curve" smooth="yes"/>
      <point x="524" y="522"/>
      <point x="512" y="571"/>
      <point x="512" y="633" type="curve" smooth="yes"/>
      <point x="512" y="655"/>
      <point x="514" y="670"/>
      <point x="515" y="683" type="curve" smooth="yes"/>
      <point x="525" y="770"/>
      <point x="567" y="814"/>
      <point x="621" y="814" type="curve" smooth="yes"/>
      <point x="688" y="814"/>
      <point x="724" y="761"/>
      <point x="724" y="671" type="curve" smooth="yes"/>
      <point x="724" y="614"/>
      <point x="710" y="570"/>
      <point x="689" y="523" type="curve"/>
      <point x="689" y="500" type="line"/>
      <point x="837" y="500" type="line"/>
      <point x="837" y="525" type="line"/>
      <point x="705" y="525" type="line"/>
      <point x="711" y="510" type="line"/>
      <point x="736" y="560"/>
      <point x="751" y="614"/>
      <point x="751" y="673" type="curve" smooth="yes"/>
      <point x="751" y="781"/>
      <point x="698" y="839"/>
      <point x="622" y="839" type="curve" smooth="yes"/>
      <point x="551" y="839"/>
      <point x="499" y="782"/>
      <point x="489" y="685" type="curve"/>
      <point x="487" y="673"/>
      <point x="486" y="656"/>
      <point x="486" y="633" type="curve" smooth="yes"/>
      <point x="486" y="529"/>
      <point x="522" y="497"/>
    </contour>
  </outline>
</glyph>
<glyph name="uni1CDA" format="2">
  <unicode hex="1CDA"/>
  <outline>
    <contour>
      <point x="-338" y="870" type="line"/>
      <point x="-338" y="659" type="line"/>
      <point x="-312" y="659" type="line"/>
      <point x="-312" y="870" type="line"/>
    </contour>
    <contour>
      <point x="-245" y="870" type="line"/>
      <point x="-245" y="659" type="line"/>
      <point x="-219" y="659" type="line"/>
      <point x="-219" y="870" type="line"/>
    </contour>
  </outline>
</glyph>
<glyph name="quoteright.tamil" format="2">
  <advance width="180"/>
  <unicode hex="2019"/>
  <outline>
    <contour>
      <point x="128" y="800" type="line"/>
      <point x="103" y="800" type="line"/>
      <point x="96" y="728"/>
      <point x="75" y="625"/>
      <point x="46" y="555" type="curve"/>
      <point x="68" y="555" type="line"/>
      <point x="98" y="624"/>
      <point x="123" y="709"/>
      <point x="134" y="791" type="curve"/>
    </contour>
  </outline>
</glyph>
<glyph name="quotedblleft.tamil" format="2">
  <advance width="313"/>
  <unicode hex="201C"/>
  <outline>
    <contour>
      <point x="185" y="555" type="line"/>
      <point x="210" y="555" type="line"/>
      <point x="217" y="627"/>
      <point x="238" y="730"/>
      <point x="267" y="800" type="curve"/>
      <point x="245" y="800" type="line"/>
      <point x="215" y="731"/>
      <point x="190" y="646"/>
      <point x="179" y="564" type="curve"/>
    </contour>
    <contour>
      <point x="52" y="555" type="line"/>
      <point x="77" y="555" type="line"/>
      <point x="84" y="627"/>
      <point x="105" y="730"/>
      <point x="134" y="800" type="curve"/>
      <point x="112" y="800" type="line"/>
      <point x="82" y="731"/>
      <point x="57" y="646"/>
      <point x="46" y="564" type="curve"/>
    </contour>
  </outline>
</glyph>
<glyph name="ellipsis.tamil" format="2">
  <advance width="607"/>
  <unicode hex="2026"/>
  <outline>
    <contour>
      <point x="102" y="-8" type="curve" smooth="yes"/>
      <point x="126" y="-8"/>
      <point x="129" y="6"/>
      <point x="129" y="23" type="curve" smooth="yes"/>
      <point x="129" y="39"/>
      <point x="126" y="54"/>
      <point x="102" y="54" type="curve" smooth="yes"/>
      <point x="82" y="54"/>
      <point x="77" y="39"/>
      <point x="77" y="23" type="curve" smooth="yes"/>
      <point x="77" y="6"/>
      <point x="82" y="-8"/>
    </contour>
    <contour>
      <point x="302" y="-8" type="curve" smooth="yes"/>
      <point x="326" y="-8"/>
      <point x="329" y="6"/>
      <point x="329" y="23" type="curve" smooth="yes"/>
      <point x="329" y="39"/>
      <point x="326" y="54"/>
      <point x="302" y="54" type="curve" smooth="yes"/>
      <point x="282" y="54"/>
      <point x="277" y="39"/>
      <point x="277" y="23" type="curve" smooth="yes"/>
      <point x="277" y="6"/>
      <point x="282" y="-8"/>
    </contour>
    <contour>
      <point x="503" y="-8" type="curve" smooth="yes"/>
      <point x="527" y="-8"/>
      <point x="530" y="6"/>
      <point x="530" y="23" type="curve" smooth="yes"/>
      <point x="530" y="39"/>
      <point x="527" y="54"/>
      <point x="503" y="54" type="curve" smooth="yes"/>
      <point x="483" y="54"/>
      <point x="478" y="39"/>
      <point x="478" y="23" type="curve" smooth="yes"/>
      <point x="478" y="6"/>
      <point x="483" y="-8"/>
    </contour>
  </outline>
</glyph>
<glyph name="uni2074" format="2">
  <advance width="284"/>
  <unicode hex="2074"/>
  <outline>
    <contour>
      <point x="182" y="369" type="line"/>
      <point x="208" y="369" type="line"/>
      <point x="208" y="485" type="line"/>
      <point x="268" y="485" type="line"/>
      <point x="268" y="510" type="line"/>
      <point x="208" y="510" type="line"/>
      <point x="208" y="800" type="line"/>
      <point x="185" y="800" type="line"/>
      <point x="17" y="507" type="line"/>
      <point x="17" y="485" type="line"/>
      <point x="182" y="485" type="line"/>
    </contour>
    <contour>
      <point x="47" y="510" type="line"/>
      <point x="163" y="714" type="line" smooth="yes"/>
      <point x="172" y="730"/>
      <point x="179" y="743"/>
      <point x="184" y="755" type="curve"/>
      <point x="182" y="741"/>
      <point x="182" y="721"/>
      <point x="182" y="702" type="curve" smooth="yes"/>
      <point x="182" y="510" type="line"/>
    </contour>
  </outline>
</glyph>
<glyph name="minus.tamil" format="2">
  <advance width="399"/>
  <unicode hex="2212"/>
  <outline>
    <contour>
      <point x="33" y="341" type="line"/>
      <point x="365" y="341" type="line"/>
      <point x="365" y="367" type="line"/>
      <point x="33" y="367" type="line"/>
    </contour>
  </outline>
</glyph>
<glyph name="uniA8F3" format="2">
  <advance width="347"/>
  <unicode hex="A8F3"/>
  <outline>
    <contour>
      <point x="173" y="309" type="curve" smooth="yes"/>
      <point x="259" y="309"/>
      <point x="311" y="362"/>
      <point x="311" y="462" type="curve" smooth="yes"/>
      <point x="311" y="485"/>
      <point x="308" y="514"/>
      <point x="303" y="535" type="curve"/>
      <point x="278" y="531" type="line"/>
      <point x="283" y="507"/>
      <point x="285" y="483"/>
      <point x="285" y="461" type="curve" smooth="yes"/>
      <point x="285" y="373"/>
      <point x="242" y="335"/>
      <point x="173" y="335" type="curve" smooth="yes"/>
      <point x="105" y="335"/>
      <point x="62" y="373"/>
      <point x="62" y="460" type="curve" smooth="yes"/>
      <point x="62" y="487"/>
      <point x="64" y="507"/>
      <point x="69" y="531" type="curve"/>
      <point x="44" y="535" type="line"/>
      <point x="39" y="514"/>
      <point x="36" y="486"/>
      <point x="36" y="461" type="curve" smooth="yes"/>
      <point x="36" y="363"/>
      <point x="87" y="309"/>
    </contour>
    <contour>
      <point x="174" y="433" type="curve" smooth="yes"/>
      <point x="190" y="433"/>
      <point x="202" y="444"/>
      <point x="202" y="467" type="curve" smooth="yes"/>
      <point x="202" y="489"/>
      <point x="190" y="501"/>
      <point x="174" y="501" type="curve" smooth="yes"/>
      <point x="157" y="501"/>
      <point x="145" y="489"/>
      <point x="145" y="467" type="curve" smooth="yes"/>
      <point x="145" y="444"/>
      <point x="157" y="433"/>
    </contour>
    <contour>
      <point x="312" y="35" type="line"/>
      <point x="112" y="234" type="line"/>
      <point x="94" y="215" type="line"/>
      <point x="294" y="16" type="line"/>
    </contour>
  </outline>
</glyph>
<glyph name="u11301" format="2">
  <unicode hex="11301"/>
  <outline>
    <contour>
      <point x="-279" y="677" type="curve" smooth="yes"/>
      <point x="-214" y="677"/>
      <point x="-162" y="716"/>
      <point x="-162" y="813" type="curve" smooth="yes"/>
      <point x="-162" y="829"/>
      <point x="-164" y="847"/>
      <point x="-168" y="865" type="curve"/>
      <point x="-193" y="861" type="line"/>
      <point x="-190" y="847"/>
      <point x="-188" y="827"/>
      <point x="-188" y="812" type="curve" smooth="yes"/>
      <point x="-188" y="741"/>
      <point x="-217" y="703"/>
      <point x="-279" y="703" type="curve" smooth="yes"/>
      <point x="-337" y="703"/>
      <point x="-368" y="735"/>
      <point x="-368" y="812" type="curve" smooth="yes"/>
      <point x="-368" y="826"/>
      <point x="-366" y="846"/>
      <point x="-363" y="860" type="curve"/>
      <point x="-388" y="864" type="line"/>
      <point x="-392" y="848"/>
      <point x="-394" y="826"/>
      <point x="-394" y="812" type="curve" smooth="yes"/>
      <point x="-394" y="715"/>
      <point x="-345" y="677"/>
    </contour>
    <contour>
      <point x="-278" y="784" type="curve" smooth="yes"/>
      <point x="-256" y="784"/>
      <point x="-252" y="798"/>
      <point x="-252" y="815" type="curve" smooth="yes"/>
      <point x="-252" y="831"/>
      <point x="-255" y="846"/>
      <point x="-278" y="846" type="curve" smooth="yes"/>
      <point x="-299" y="846"/>
      <point x="-304" y="831"/>
      <point x="-304" y="815" type="curve" smooth="yes"/>
      <point x="-304" y="798"/>
      <point x="-299" y="784"/>
    </contour>
  </outline>
</glyph>
<glyph name="u11303" format="2">
  <advance width="272"/>
  <unicode hex="11303"/>
  <outline>
    <contour>
      <point x="43" y="113" type="curve" smooth="yes"/>
      <point x="43" y="34"/>
      <point x="79" y="-12"/>
      <point x="136" y="-12" type="curve" smooth="yes"/>
      <point x="193" y="-12"/>
      <point x="229" y="34"/>
      <point x="229" y="113" type="curve" smooth="yes"/>
      <point x="229" y="192"/>
      <point x="193" y="238"/>
      <point x="136" y="238" type="curve" smooth="yes"/>
      <point x="79" y="238"/>
      <point x="43" y="192"/>
    </contour>
    <contour>
      <point x="70" y="113" type="curve" smooth="yes"/>
      <point x="70" y="179"/>
      <point x="95" y="213"/>
      <point x="136" y="213" type="curve" smooth="yes"/>
      <point x="178" y="213"/>
      <point x="202" y="179"/>
      <point x="202" y="113" type="curve" smooth="yes"/>
      <point x="202" y="47"/>
      <point x="177" y="13"/>
      <point x="136" y="13" type="curve" smooth="yes"/>
      <point x="95" y="13"/>
      <point x="70" y="47"/>
    </contour>
    <contour>
      <point x="43" y="433" type="curve" smooth="yes"/>
      <point x="43" y="354"/>
      <point x="79" y="308"/>
      <point x="136" y="308" type="curve" smooth="yes"/>
      <point x="193" y="308"/>
      <point x="229" y="354"/>
      <point x="229" y="433" type="curve" smooth="yes"/>
      <point x="229" y="512"/>
      <point x="193" y="558"/>
      <point x="136" y="558" type="curve" smooth="yes"/>
      <point x="79" y="558"/>
      <point x="43" y="512"/>
    </contour>
    <contour>
      <point x="70" y="433" type="curve" smooth="yes"/>
      <point x="70" y="499"/>
      <point x="95" y="533"/>
      <point x="136" y="533" type="curve" smooth="yes"/>
      <point x="177" y="533"/>
      <point x="202" y="499"/>
      <point x="202" y="433" type="curve" smooth="yes"/>
      <point x="202" y="367"/>
      <point x="177" y="333"/>
      <point x="136" y="333" type="curve" smooth="yes"/>
      <point x="95" y="333"/>
      <point x="70" y="367"/>
    </contour>
  </outline>
</glyph>
<glyph name="u1133B" format="2">
  <unicode hex="1133B"/>
  <outline>
    <contour>
      <point x="-277" y="-185" type="curve" smooth="yes"/>
      <point x="-257" y="-185"/>
      <point x="-243" y="-172"/>
      <point x="-243" y="-147" type="curve" smooth="yes"/>
      <point x="-243" y="-122"/>
      <point x="-257" y="-109"/>
      <point x="-277" y="-109" type="curve" smooth="yes"/>
      <point x="-297" y="-109"/>
      <point x="-311" y="-122"/>
      <point x="-311" y="-147" type="curve" smooth="yes"/>
      <point x="-311" y="-172"/>
      <point x="-297" y="-185"/>
    </contour>
  </outline>
</glyph>
<glyph name="u1133C" format="2">
  <unicode hex="1133C"/>
  <outline>
    <contour>
      <point x="-374" y="-149" type="curve" smooth="yes"/>
      <point x="-374" y="-173"/>
      <point x="-362" y="-185"/>
      <point x="-342" y="-185" type="curve" smooth="yes"/>
      <point x="-322" y="-185"/>
      <point x="-310" y="-173"/>
      <point x="-310" y="-149" type="curve" smooth="yes"/>
      <point x="-310" y="-124"/>
      <point x="-322" y="-112"/>
      <point x="-342" y="-112" type="curve" smooth="yes"/>
      <point x="-362" y="-112"/>
      <point x="-374" y="-124"/>
    </contour>
    <contour>
      <point x="-249" y="-149" type="curve" smooth="yes"/>
      <point x="-249" y="-173"/>
      <point x="-237" y="-185"/>
      <point x="-217" y="-185" type="curve" smooth="yes"/>
      <point x="-197" y="-185"/>
      <point x="-185" y="-173"/>
      <point x="-185" y="-149" type="curve" smooth="yes"/>
      <point x="-185" y="-124"/>
      <point x="-197" y="-112"/>
      <point x="-217" y="-112" type="curve" smooth="yes"/>
      <point x="-237" y="-112"/>
      <point x="-249" y="-124"/>
    </contour>
  </outline>
</glyph>
